<?xml version="1.0" encoding="UTF-8" standalone="no"?>
<!DOCTYPE svg PUBLIC "-//W3C//DTD SVG 1.1//EN" "http://www.w3.org/Graphics/SVG/1.1/DTD/svg11.dtd">
<svg width="100%" height="100%" viewBox="0 0 139 96" version="1.1" xmlns="http://www.w3.org/2000/svg" xmlns:xlink="http://www.w3.org/1999/xlink" xml:space="preserve" xmlns:serif="http://www.serif.com/" style="fill-rule:evenodd;clip-rule:evenodd;stroke-linejoin:round;stroke-miterlimit:2;">
    <g transform="matrix(1,0,0,1,0.00672192,6.52174e-05)">
        <path d="M133.26,22.12L89.5,3.48C78.66,-1.14 66.21,-1.16 55.36,3.42L11.08,22.11C7.93,23.44 5.9,26.51 5.9,29.93C5.9,33.35 7.94,36.42 11.09,37.74L19.67,41.35C19.98,41.47 20.21,41.78 20.21,42.15C20.21,42.37 20.13,42.57 19.98,42.72L20,42.74C17.48,45.23 15.38,48.15 13.9,51.38C13.5,52.25 13.15,53.14 12.84,54.05C10.25,55.32 8.45,57.96 8.45,61.04C8.45,63.63 9.72,65.9 11.66,67.32C11.28,72.99 7.06,77.61 1.56,78.58C0.4,78.78 -0.31,79.99 0.12,81.09C1.9,85.58 6.28,88.75 11.41,88.73C17.77,88.7 23.15,83.52 23.42,77.17C23.57,73.55 22.12,70.28 19.74,67.98C22.28,66.69 24.04,64.09 24.04,61.04C24.04,59.49 23.57,58.05 22.8,56.84C22.95,56.46 23.09,56.08 23.26,55.71C24.83,52.31 27.41,49.41 30.58,47.43C31.08,47.14 31.66,46.97 32.29,46.97C32.8,46.97 33.29,47.09 33.74,47.29L55.38,56.4C60.77,58.67 66.56,59.8 72.34,59.8C78.17,59.8 84,58.65 89.43,56.34L133.24,37.74C136.38,36.41 138.4,33.35 138.41,29.94C138.42,26.52 136.39,23.46 133.26,22.12ZM85.41,46.84C77.15,50.35 67.66,50.36 59.39,46.88L47.54,41.89C47.3,41.78 47.14,41.55 47.14,41.27C47.14,40.99 47.31,40.75 47.55,40.65L47.55,40.63L70.61,30.74C72.6,29.89 72.6,27.07 70.6,26.22C70.6,26.22 66.94,24.67 65.72,24.15C63.84,23.35 61.72,23.35 59.84,24.15C54.24,26.54 39.85,32.71 33.91,35.25C33.58,35.37 33.23,35.45 32.85,35.45C32.45,35.45 32.07,35.37 31.73,35.23L21.05,30.73C20.75,30.58 20.54,30.27 20.54,29.91C20.54,29.55 20.77,29.22 21.08,29.08L59.37,12.92C67.67,9.42 77.17,9.43 85.46,12.96L123.38,29.12C123.69,29.25 123.92,29.56 123.92,29.92C123.92,30.27 123.7,30.57 123.39,30.71L85.41,46.84Z" style="fill:rgb(0,99,231);fill-rule:nonzero;"/>
        <path d="M108.34,67.89L104.57,66.22C102.81,65.44 100.78,66.31 100.08,68.1C98.77,71.46 96.48,74.57 93.33,77.2C87.79,81.82 80.36,84.36 72.4,84.36C64.44,84.36 57.01,81.82 51.47,77.2C48.27,74.54 45.97,71.37 44.66,67.95C43.97,66.13 41.92,65.24 40.14,66.03L36.39,67.69C34.75,68.42 33.98,70.3 34.61,71.98C36.58,77.24 40.03,82.03 44.77,85.98C52.21,92.18 62.02,95.59 72.4,95.59C82.79,95.59 92.6,92.18 100.03,85.98C104.71,82.08 108.12,77.36 110.11,72.18C110.76,70.52 109.99,68.62 108.34,67.89Z" style="fill:rgb(0,99,231);fill-rule:nonzero;"/>
    </g>
</svg>
