<svg version="1.1" id="Layer_1" xmlns="http://www.w3.org/2000/svg" xmlns:xlink="http://www.w3.org/1999/xlink" x="0px" y="0px"
	 width="100%" viewBox="0 0 736 992" enable-background="new 0 0 736 992" xml:space="preserve">
<path fill="#000000" opacity="1.000000" stroke="none" 
	d="
M525.757812,336.749512 
	C529.644714,334.200775 533.220093,331.839386 537.366699,329.100708 
	C539.492126,335.409180 537.721680,341.038208 536.755859,346.547760 
	C533.971802,362.429718 523.058228,370.642365 508.665558,375.199646 
	C497.949127,378.592896 486.782318,379.222473 475.667511,380.066925 
	C474.381897,380.164612 473.093262,380.222778 470.399261,380.382782 
	C480.184204,387.914337 490.333649,388.951691 500.857361,388.999023 
	C511.544403,389.047089 521.484009,386.175903 530.906433,381.590881 
	C532.963928,383.629089 532.110535,385.624176 531.687500,387.479126 
	C528.946167,399.498260 520.413696,406.351166 509.969360,411.296326 
	C499.877197,416.074707 489.033112,417.727051 477.986267,418.310669 
	C473.910461,418.526001 469.834961,418.747711 465.768646,419.885345 
	C485.337738,431.796722 505.196136,429.247528 525.335266,420.639984 
	C527.071838,424.165741 525.574890,427.304840 524.503357,430.300079 
	C520.450012,441.630371 511.229553,447.455872 500.782196,451.664948 
	C489.024292,456.401978 476.557556,457.403564 464.044128,457.951782 
	C462.896118,458.002045 461.754547,458.200012 460.533661,458.338074 
	C463.592346,464.150635 473.104279,466.686981 489.171387,466.930878 
	C499.932953,467.094208 509.748932,464.009521 520.277588,458.699829 
	C520.195740,467.944153 517.184082,474.603485 511.321259,479.913025 
	C502.467102,487.931610 491.447693,491.103577 480.036652,493.274597 
	C469.927582,495.197937 459.601257,495.148590 448.754089,496.388947 
	C450.390961,499.685303 453.021271,500.699768 455.507385,501.803772 
	C470.143158,508.303314 485.057159,506.539612 500.055542,503.359833 
	C503.203888,502.692352 506.272125,500.872711 510.096130,502.100647 
	C509.785065,507.708557 506.982513,511.940582 503.089294,515.394592 
	C493.921600,523.528015 483.105988,527.623047 470.849396,528.360901 
	C460.504211,528.983643 450.310516,528.314331 439.087921,525.531982 
	C443.995239,534.004822 451.466064,536.607361 458.850098,539.300720 
	C466.484711,542.085510 474.562378,541.174988 482.505066,541.697144 
	C480.857300,548.927490 468.744446,555.380798 454.898010,557.412415 
	C443.241943,559.122559 432.926483,556.174377 422.201355,548.797058 
	C425.740265,558.228760 429.285767,565.782532 437.318542,570.076782 
	C442.902313,573.061829 445.898956,572.410767 450.290771,567.806274 
	C452.953735,565.014343 454.083771,567.582947 455.059235,569.395081 
	C459.151184,576.996521 453.206360,587.100159 444.020081,588.289185 
	C434.885620,589.471497 426.914917,587.021362 420.063812,580.788208 
	C413.007355,574.368225 408.513611,566.332703 404.811646,556.269592 
	C404.605194,568.443359 406.955170,578.919250 410.328217,590.593689 
	C397.470917,584.926514 391.457886,575.150635 385.782135,564.838928 
	C385.554962,578.924683 386.689209,592.716064 395.050720,604.651306 
	C402.058197,614.653687 417.281128,616.965271 429.452301,610.411072 
	C430.717834,609.729553 431.737701,608.397095 433.418152,608.723572 
	C436.113617,617.922058 430.309021,631.721497 421.689789,636.777954 
	C410.723175,643.211548 398.523010,639.962830 386.036591,627.284119 
	C384.319275,635.010071 389.321106,647.742432 395.895508,652.380127 
	C402.510773,657.046814 408.558594,657.546265 423.131927,654.629272 
	C425.476624,660.872009 421.252136,670.515015 414.077881,674.670593 
	C404.927582,679.970703 392.142151,679.038757 380.824982,665.265503 
	C385.085938,682.832825 384.959991,699.629333 372.463776,715.369568 
	C360.043335,699.402283 359.597443,682.415344 364.989014,663.634705 
	C351.464233,679.600952 341.724976,679.580139 331.745850,675.225281 
	C324.429657,672.032471 319.930145,662.371338 321.553406,654.344543 
	C332.281708,658.046143 342.944885,658.867554 351.525177,649.840393 
	C357.376221,643.684753 359.637939,635.907654 359.200317,626.475586 
	C354.252777,632.372925 349.362122,637.151001 342.335663,638.864807 
	C335.427124,640.549683 328.786896,640.216736 322.615326,636.333435 
	C314.277405,631.087097 308.979828,618.083313 311.514709,608.765503 
	C315.397552,609.627502 318.612061,612.143311 322.519104,613.062561 
	C336.731964,616.406677 348.180511,611.027588 353.866943,597.608704 
	C358.351685,587.025635 359.937622,575.915405 358.959564,563.685608 
	C356.315643,569.860413 353.363281,574.979675 349.439880,579.526794 
	C345.635559,583.935913 341.589325,587.932556 334.565735,590.362061 
	C337.925201,578.963745 340.228577,568.546143 340.220367,556.712952 
	C337.831665,563.237793 334.936768,568.460022 331.404083,573.289673 
	C324.100555,583.274780 314.985443,589.705322 301.828156,588.379150 
	C294.104584,587.600769 288.383362,581.584900 288.749298,574.044617 
	C288.895355,571.034973 289.516907,568.105347 292.607239,566.554932 
	C300.461823,573.740417 305.985352,573.404907 313.511932,565.237305 
	C317.364410,561.056641 320.459961,556.403015 321.844025,549.398682 
	C306.690216,559.953003 291.335724,559.953552 275.700470,553.590027 
	C270.158264,551.334290 265.177307,548.024231 261.183228,541.775269 
	C278.130646,541.766235 293.937958,540.574341 306.392822,525.830750 
	C297.896515,526.979126 290.847778,528.504395 283.635376,528.630066 
	C268.048767,528.901672 253.458542,526.321777 241.594055,515.164429 
	C237.898972,511.689636 235.037888,507.716187 234.883286,502.474915 
	C236.397980,500.998199 237.917252,501.606445 239.296677,501.980774 
	C247.839020,504.298920 256.532623,506.124054 265.347351,506.246765 
	C276.200989,506.397919 286.830658,504.850220 296.635437,497.019775 
	C291.243896,495.757843 286.776062,495.440613 282.261078,495.221497 
	C269.215729,494.588379 256.409424,492.620270 244.429367,487.115356 
	C235.296326,482.918610 228.241180,476.639954 225.474838,466.494507 
	C224.904572,464.403076 224.317780,462.338959 225.528198,459.488220 
	C235.070221,463.669495 244.718719,467.174072 255.424072,466.978027 
	C265.964111,466.784973 276.137360,466.217041 285.556244,458.755890 
	C276.472626,456.934662 268.102112,457.699249 259.973358,456.051880 
	C247.207184,453.464661 235.075150,449.710419 225.967392,439.629791 
	C221.225433,434.381378 218.813660,428.270905 218.733765,420.343536 
	C239.245361,429.284180 259.099060,431.723694 280.118500,420.365570 
	C275.366821,417.754974 271.655212,418.492340 268.095856,418.339691 
	C256.365662,417.836792 244.859604,416.174011 234.184280,411.010132 
	C223.918823,406.044525 215.691193,399.116882 213.242996,387.177826 
	C212.906540,385.537048 212.358978,383.950623 213.777771,381.896820 
	C233.608002,390.355377 253.619476,392.875092 273.295410,382.022583 
	C273.302216,381.511993 273.309021,381.001404 273.315857,380.490814 
	C265.652069,379.741486 257.962006,379.191498 250.332199,378.184631 
	C243.239792,377.248627 236.353561,375.490936 229.656219,372.728516 
	C212.119476,365.495056 205.731918,350.114471 207.159866,330.207764 
	C209.315277,329.213837 210.529297,330.988556 211.878815,331.995972 
	C227.857666,343.924072 245.699921,349.167023 265.677734,348.128998 
	C277.012207,347.540039 288.196472,346.146942 299.342590,344.275940 
	C310.523132,342.399170 317.718109,349.835419 314.592072,360.851868 
	C311.586121,371.445343 308.476440,382.013306 308.404114,393.081329 
	C308.318695,406.155457 309.427795,419.085388 317.217529,430.357727 
	C317.879822,431.316101 318.657440,432.194580 319.323059,433.150879 
	C323.593231,439.285431 332.094513,438.381409 336.674408,442.887268 
	C342.358276,448.479218 348.204620,449.543823 355.250397,448.274353 
	C358.150848,447.751740 358.602905,449.846313 359.225983,451.692657 
	C361.042725,457.076324 364.393280,461.318817 368.670105,464.943176 
	C371.259644,467.137604 373.737762,467.074005 376.289795,464.917572 
	C380.439117,461.411469 383.798767,457.288696 385.532684,452.108063 
	C386.517456,449.165710 387.543701,447.872681 391.190765,448.511322 
	C397.675995,449.646881 403.901459,448.727722 407.897766,442.399689 
	C408.459412,441.510345 409.311829,441.021240 410.363678,440.878204 
	C425.811981,438.777802 431.296234,427.126648 434.453064,414.324615 
	C438.395111,398.338013 436.878357,382.303406 431.846802,366.627228 
	C430.830292,363.460297 429.778564,360.317688 429.706512,356.914215 
	C429.521118,348.156830 435.374634,342.646179 444.013794,344.038940 
	C455.678101,345.919434 467.319458,347.645599 479.166748,348.122162 
	C495.727783,348.788300 511.273926,345.860138 525.757812,336.749512 
z"/>
<path fill="#000000" opacity="1.000000" stroke="none" 
	d="
M222.341461,600.655823 
	C232.338318,621.276001 243.356354,640.859314 257.576172,658.444092 
	C267.716980,670.984680 278.468658,682.881714 290.591309,693.702759 
	C314.423676,714.976135 340.794434,732.540955 367.721893,749.442566 
	C371.164642,751.603455 373.675140,751.512207 377.169495,749.390259 
	C399.825256,735.632874 421.796265,720.888794 442.367188,704.168823 
	C470.443970,681.348267 493.379028,654.173096 511.116211,622.546753 
	C524.716370,598.296875 535.279114,572.850769 542.616516,546.079956 
	C547.889221,526.842102 551.651306,507.284576 554.515686,487.526062 
	C557.200867,469.003784 559.211548,450.403046 560.336731,431.760742 
	C561.193909,417.558563 561.462219,403.265625 562.183655,389.061890 
	C563.529297,362.568451 562.565430,336.100647 563.081787,309.629913 
	C563.111023,308.131073 563.025085,306.629944 563.056274,305.131226 
	C563.125854,301.791107 561.479126,300.239624 558.179871,300.268158 
	C554.514038,300.299805 550.847717,300.290558 547.181702,300.275909 
	C523.685242,300.182007 500.170074,300.607788 476.699646,299.775085 
	C463.787598,299.316956 450.708801,300.244171 437.910980,297.003632 
	C432.901337,295.735107 429.073975,294.200409 428.878113,288.263428 
	C428.795471,285.758301 427.043518,284.496521 424.715149,283.932983 
	C420.009857,282.794220 415.297455,281.823547 410.403656,281.953125 
	C406.144501,282.065887 401.880005,281.976593 397.579437,281.435516 
	C398.809479,279.712372 400.490387,280.123596 402.005920,280.074371 
	C460.807312,278.164429 519.628784,278.969147 578.442993,278.794800 
	C585.366272,278.774261 586.063416,279.286987 585.842957,286.052216 
	C585.191467,306.044128 586.404297,326.025146 586.083496,346.005798 
	C585.848389,360.645630 585.684570,375.315491 585.027466,389.915497 
	C584.185425,408.623657 582.990356,427.348450 581.559082,446.048340 
	C579.582275,471.875275 576.578918,497.538788 571.601868,522.917297 
	C564.188477,560.719604 551.730286,596.777161 532.406677,630.289429 
	C521.323792,649.510071 508.856934,667.714111 494.351685,684.562012 
	C471.805145,710.749878 445.599976,732.550415 416.530457,751.083923 
	C403.462555,759.415466 389.898346,766.857056 376.382935,774.402588 
	C373.802612,775.843140 371.601074,775.989014 368.911774,774.576782 
	C338.463226,758.587708 309.537628,740.370972 283.528931,717.684387 
	C236.976425,677.078125 204.757416,627.117981 185.377899,568.633911 
	C179.238022,550.104858 174.881256,531.197693 171.462738,511.982941 
	C168.410370,494.826263 166.201233,477.573059 164.334503,460.287781 
	C162.793518,446.018738 162.310349,431.634247 161.527939,417.285187 
	C159.179214,374.211639 158.895615,331.119080 158.906830,288.010345 
	C158.909195,278.894440 158.929260,278.872437 168.319397,278.872803 
	C218.646652,278.874817 268.973907,278.888000 319.301147,278.899597 
	C325.087158,278.900909 330.850037,279.105591 335.775452,280.506409 
	C322.965393,295.508575 305.551666,299.927490 286.684204,300.067047 
	C255.356659,300.298798 224.026688,300.203247 192.697723,300.242645 
	C190.364929,300.245575 188.028717,300.301147 185.700104,300.197479 
	C182.468842,300.053619 181.257172,301.554718 181.329391,304.718353 
	C181.929947,331.018280 180.762589,357.321106 182.420792,383.647308 
	C182.999161,392.829742 183.165253,402.207489 183.356552,411.496155 
	C183.571854,421.949615 184.352890,432.412750 185.380875,442.822998 
	C186.833420,457.532776 187.981110,472.273468 190.143616,486.917572 
	C195.931610,526.112427 205.209259,564.294678 222.341461,600.655823 
z"/>
<path fill="#000000" opacity="1.000000" stroke="none" 
	d="
M340.382874,384.715942 
	C332.217010,383.476105 332.217010,383.476105 327.216278,391.254791 
	C319.040558,384.981232 319.913879,372.761475 328.976562,368.609863 
	C333.047516,366.744934 337.284210,365.070709 341.615753,363.994690 
	C345.779022,362.960541 349.570923,361.994202 351.826752,357.825684 
	C352.976868,355.700317 355.411560,355.767853 357.620331,355.642090 
	C368.986908,354.994843 380.236328,356.173248 391.413544,357.982941 
	C399.813110,359.342957 407.930054,359.863495 414.908051,353.630280 
	C416.864716,358.665863 415.597107,363.637573 411.853424,366.888489 
	C408.159454,370.096191 403.286163,369.935699 398.397949,371.300476 
	C401.858612,372.299805 404.836823,372.845520 407.555511,374.001526 
	C417.203888,378.104034 420.284210,389.086517 414.374695,397.699127 
	C412.627197,400.245941 410.969696,401.919922 408.306030,398.476135 
	C406.356293,395.955383 403.460602,395.382568 400.648865,396.772125 
	C397.735779,398.211761 397.141693,401.171448 397.466125,404.083893 
	C398.350891,412.027435 399.626862,419.936157 402.541290,427.414734 
	C403.930603,430.979858 404.590759,433.904846 401.230103,436.797363 
	C397.689850,439.844482 393.944000,440.614899 389.712738,438.843140 
	C386.723694,437.591583 384.678406,435.207062 382.808624,431.362885 
	C381.312256,439.479340 379.741699,446.412933 375.629425,452.388031 
	C372.910706,456.338287 371.835907,456.327301 369.230316,452.371307 
	C366.450714,448.151154 364.873688,443.427490 363.553345,438.585327 
	C363.088501,436.880554 363.161682,434.917419 361.501556,433.345306 
	C358.954956,435.674927 356.963837,438.658966 353.265045,439.461212 
	C349.086853,440.367432 345.792114,439.106903 342.890411,436.198792 
	C340.071808,433.373962 341.246246,430.584991 342.568665,427.516541 
	C346.127960,419.257660 349.148743,410.775238 351.432739,402.081238 
	C354.389771,390.825195 352.184204,387.477814 340.382874,384.715942 
M369.772949,369.504761 
	C370.662476,368.512817 371.632111,367.547577 370.855560,365.748322 
	C367.458282,365.119537 363.999664,364.555664 360.353973,366.332764 
	C362.069366,371.273926 365.293854,371.421204 369.772949,369.504761 
z"/>
<path fill="#000000" opacity="1.000000" stroke="none" 
	d="
M349.263336,144.333374 
	C351.699493,143.976288 351.653564,142.399292 351.663788,140.872879 
	C351.679413,138.541199 351.601318,136.206421 351.695923,133.878342 
	C351.837860,130.383011 351.892517,127.055359 347.134827,126.611198 
	C346.534576,126.555153 346.166534,125.766891 346.452820,124.294846 
	C353.416138,123.112793 360.516113,123.766296 367.733154,123.902863 
	C367.596954,125.269150 367.623810,125.548523 367.559021,125.571716 
	C360.795654,127.992233 361.848450,133.614349 361.944427,138.953888 
	C362.070129,145.946869 362.036255,152.944107 361.971863,159.938614 
	C361.928558,164.639648 361.159424,169.625580 368.856476,170.275314 
	C368.463104,170.737808 368.069733,171.200317 367.676361,171.662811 
	C360.467346,171.662811 353.258331,171.662811 346.000732,171.662811 
	C346.051056,170.951187 345.957825,170.550995 346.114655,170.322037 
	C347.434814,168.394623 351.262238,169.531494 351.426636,166.525299 
	C351.707733,161.386475 351.661194,156.211960 351.398926,151.070465 
	C351.301971,149.170364 349.238953,149.340805 347.757019,149.332642 
	C342.593994,149.304214 337.427704,149.421783 332.268738,149.272537 
	C329.171570,149.182953 328.087250,150.590057 328.212189,153.474716 
	C328.298584,155.469315 328.197418,157.471329 328.215271,159.469711 
	C328.257874,164.242310 326.943481,169.749939 334.968964,170.023071 
	C331.642853,172.855789 316.115875,173.009033 311.652618,170.471542 
	C319.850800,168.675262 317.788239,162.568420 317.842377,157.398804 
	C317.924316,149.571594 317.742950,141.740219 317.914948,133.915924 
	C317.999146,130.084641 317.833099,126.853844 312.838776,126.762268 
	C312.224274,126.750992 311.618774,126.247437 311.324493,125.048424 
	C319.156952,123.432724 326.653534,123.495735 334.414490,124.076797 
	C334.098938,125.398224 334.113678,125.778275 333.935852,126.011414 
	C332.533142,127.850227 328.746948,126.506828 328.520935,129.623901 
	C328.209015,133.925949 328.213074,138.275406 328.457672,142.583221 
	C328.585327,144.831665 330.779816,144.589401 332.409424,144.579849 
	C337.903412,144.547653 343.397034,144.447876 349.263336,144.333374 
z"/>
<path fill="#000000" opacity="1.000000" stroke="none" 
	d="
M421.756592,221.636108 
	C419.010986,222.925430 418.335480,224.326996 420.059814,226.805878 
	C424.750580,233.549011 427.989441,241.463882 436.038422,245.476517 
	C430.829865,249.107162 422.456909,247.842819 419.431854,243.153580 
	C416.185028,238.120468 413.058258,233.009064 409.931549,227.899734 
	C409.009308,226.392715 408.037476,225.047913 406.027344,225.515701 
	C403.732574,226.049713 404.331421,228.031265 404.165527,229.597763 
	C404.113190,230.091858 404.121490,230.598373 404.158600,231.094986 
	C404.568878,236.589249 401.618530,243.342667 410.225769,246.101685 
	C402.636261,247.565857 395.582581,247.368668 387.910065,246.010971 
	C395.784241,243.890076 393.912994,238.078629 393.966309,233.177261 
	C394.042389,226.185226 394.019836,219.191589 393.978394,212.198975 
	C393.950104,207.424561 395.511780,201.888245 388.252869,200.894669 
	C388.715027,199.896759 388.823425,199.363876 388.990448,199.344803 
	C398.404480,198.270157 407.858490,197.972504 417.217896,199.481491 
	C422.084351,200.266068 425.888397,203.269058 427.048920,208.322617 
	C428.268555,213.633652 426.696411,218.206543 421.756592,221.636108 
M416.901886,211.586746 
	C417.003815,207.068283 415.182098,204.001617 410.590485,202.762756 
	C405.521057,201.394974 404.253357,202.219086 404.187531,207.401993 
	C404.141296,211.043304 404.252075,214.686691 404.200104,218.327820 
	C404.163483,220.892761 405.394257,221.790131 407.862122,221.813110 
	C413.503387,221.865616 416.354370,218.986420 416.901886,211.586746 
z"/>
<path fill="#000000" opacity="1.000000" stroke="none" 
	d="
M204.052704,130.952942 
	C211.232025,139.459702 213.404724,148.483002 208.459778,158.497910 
	C203.380035,168.785889 194.375443,172.994797 183.550034,172.907471 
	C176.417221,172.849945 169.267807,172.133087 162.103851,172.374756 
	C161.047455,172.410400 160.079514,172.262268 159.792297,170.287354 
	C167.522141,169.240509 165.579681,163.185669 165.634354,158.129013 
	C165.720810,150.135071 165.553680,142.137619 165.700974,134.145462 
	C165.770462,130.374573 165.653336,127.081779 160.780594,126.640862 
	C160.351379,126.602028 159.997025,125.736267 159.717422,125.390160 
	C160.136444,123.491455 161.464188,123.715088 162.569382,123.711288 
	C170.730576,123.683228 178.898895,123.490784 187.050995,123.765144 
	C193.389343,123.978470 199.006714,126.463043 204.052704,130.952942 
M175.333633,151.337524 
	C175.347321,155.165176 175.421112,158.993820 175.357422,162.820175 
	C175.296265,166.495636 177.118942,168.411469 180.663895,168.734909 
	C186.910690,169.304886 192.073837,167.358154 195.994888,162.251419 
	C199.941696,157.111176 200.293137,151.256607 199.850693,145.165192 
	C199.032532,133.901382 191.297653,126.992966 180.025360,127.190666 
	C176.609161,127.250580 175.240555,128.449753 175.328735,131.904129 
	C175.485855,138.058487 175.357834,144.220154 175.333633,151.337524 
z"/>
<path fill="#000000" opacity="1.000000" stroke="none" 
	d="
M405.327576,123.076942 
	C420.275909,126.742668 428.095245,138.990417 424.926605,153.236023 
	C421.863647,167.006439 408.265839,175.622620 393.657654,173.049408 
	C380.412170,170.716248 372.045990,160.433380 372.793793,147.405899 
	C373.575287,133.791870 383.662476,123.439171 396.942169,122.748856 
	C399.586792,122.611397 402.252441,122.879059 405.327576,123.076942 
M414.537903,144.157303 
	C413.596100,139.168854 411.890991,134.535187 408.262878,130.814514 
	C401.747681,124.133141 390.465790,125.209457 386.636841,133.340698 
	C382.132965,142.905289 382.372101,152.815201 387.563385,162.091904 
	C390.409149,167.177200 395.391998,170.153687 401.340393,169.400269 
	C407.628174,168.603867 411.735535,164.609879 413.556305,158.380035 
	C414.841736,153.981781 414.788208,149.516464 414.537903,144.157303 
z"/>
<path fill="#000000" opacity="1.000000" stroke="none" 
	d="
M215.728027,199.737076 
	C223.662750,197.776291 230.436569,197.619858 235.703781,205.750565 
	C241.348969,214.464752 248.471771,222.221710 255.691864,231.332977 
	C255.691864,222.217484 255.718994,214.306870 255.674942,206.396652 
	C255.662140,204.097336 254.411072,202.697006 252.124313,202.256668 
	C250.815811,202.004700 249.434875,201.834305 249.012405,199.185440 
	C255.053741,198.429977 260.940582,198.250671 267.158844,199.878738 
	C258.428894,203.486755 260.502625,210.900757 260.388824,217.319565 
	C260.206787,227.587799 260.340118,237.861633 260.340118,247.974503 
	C256.680389,249.307175 255.665039,246.655487 254.317841,244.992111 
	C245.940094,234.648041 237.660553,224.224472 229.335815,213.837402 
	C228.647919,212.979111 227.866318,212.195938 226.521088,210.704834 
	C226.521088,220.532028 226.609283,229.450577 226.485336,238.366165 
	C226.419540,243.098785 230.619537,243.607574 234.821747,246.268295 
	C227.246765,247.783081 221.257248,247.702484 215.173248,246.626099 
	C215.385742,244.618958 216.332169,244.232285 217.320602,244.038895 
	C220.499985,243.416885 221.718201,241.333359 221.722198,238.308289 
	C221.735855,227.988556 221.719299,217.668716 221.766571,207.349167 
	C221.777878,204.882111 220.850845,203.182541 218.434647,202.426987 
	C217.171539,202.032013 215.770309,201.812027 215.728027,199.737076 
z"/>
<path fill="#000000" opacity="1.000000" stroke="none" 
	d="
M470.792328,142.017624 
	C470.791168,139.358994 470.699677,137.191299 470.808411,135.033676 
	C471.012177,130.989777 470.853180,127.276428 465.619720,126.531395 
	C465.021484,126.446220 464.707794,125.625328 465.091644,124.092010 
	C470.239990,123.337975 475.624634,123.613197 480.954346,123.938499 
	C481.070923,124.907845 481.208221,125.485435 481.134186,125.513924 
	C474.983948,127.880524 476.310303,133.188705 476.185791,137.944977 
	C475.994598,145.248764 476.689819,152.572510 475.380890,159.853165 
	C474.386139,165.386246 471.510101,169.279724 466.350983,171.497192 
	C460.779114,173.892075 454.953186,173.890610 449.181427,172.826782 
	C440.905640,171.301437 436.048309,165.339722 435.767334,156.621140 
	C435.579834,150.803085 435.798981,144.972916 435.677551,139.151474 
	C435.567322,133.869522 437.899384,127.531761 429.597198,124.970055 
	C437.064362,123.255470 444.047211,123.823402 450.970581,123.869621 
	C451.082001,124.965683 451.200256,125.548492 451.135010,125.569801 
	C444.933777,127.596085 446.132812,132.755402 446.129028,137.378616 
	C446.123535,144.034225 446.024200,150.693817 446.216370,157.344437 
	C446.431458,164.786957 450.267242,168.664459 457.175140,168.836288 
	C465.199432,169.035889 469.989380,165.376556 470.601166,157.978729 
	C471.025055,152.853317 470.753296,147.670349 470.792328,142.017624 
z"/>
<path fill="#000000" opacity="1.000000" stroke="none" 
	d="
M255.761139,156.327484 
	C258.079681,162.060745 258.359344,168.681305 265.842651,170.913895 
	C258.268616,172.612350 251.225723,172.639954 243.781143,171.241531 
	C247.823288,169.034698 249.422165,166.699936 247.567993,162.132614 
	C245.818893,157.824127 243.747894,155.356308 238.875107,156.189529 
	C237.905426,156.355362 236.882568,156.209686 235.884232,156.208405 
	C229.148331,156.199783 225.751480,159.606049 225.578323,166.210632 
	C225.481537,169.902710 229.914734,168.177475 230.857635,171.553894 
	C225.176697,173.130890 219.593613,171.992584 213.391693,172.314896 
	C214.022568,170.775711 214.141464,169.810654 214.500076,169.711334 
	C220.466644,168.059113 221.642548,162.864182 223.385315,158.017838 
	C226.816452,148.476501 230.316498,138.959732 233.837479,129.451126 
	C234.576126,127.456345 235.217606,125.466919 237.438019,124.315224 
	C242.408829,121.736916 243.419189,121.990700 245.361130,127.341690 
	C248.818329,136.867935 252.201309,146.421112 255.761139,156.327484 
M234.238983,150.685181 
	C236.936722,150.492493 239.791870,151.465225 242.590485,149.737335 
	C241.369125,144.456253 239.371185,139.735687 236.732727,134.199814 
	C234.947433,139.336624 233.485489,143.536591 232.028656,147.738342 
	C231.524719,149.191849 231.556091,150.385956 234.238983,150.685181 
z"/>
<path fill="#000000" opacity="1.000000" stroke="none" 
	d="
M580.410156,142.980515 
	C580.003174,147.053665 580.982361,150.862396 579.039062,155.039780 
	C577.552734,149.582962 573.884033,148.982895 569.401978,149.188293 
	C566.049805,149.341904 564.998108,150.707886 565.174011,153.785248 
	C565.306946,156.109543 565.199768,158.447021 565.217590,160.778503 
	C565.270874,167.727737 566.109253,168.579254 572.928345,168.584122 
	C578.653076,168.588226 584.031677,167.918472 586.468933,161.557404 
	C586.572021,161.288284 586.923035,161.050461 587.213074,160.934723 
	C587.497009,160.821442 587.850769,160.883102 588.174194,160.874115 
	C590.487305,167.103668 587.179016,172.423355 581.056091,172.402557 
	C572.062988,172.372025 563.069458,172.424591 554.076721,172.361343 
	C552.517822,172.350388 550.732971,173.098557 549.446960,171.546951 
	C549.419861,171.155167 549.317932,170.567825 549.386658,170.547165 
	C555.171753,168.805756 555.043640,164.316727 554.913086,159.486526 
	C554.683594,150.999084 554.801147,142.500641 554.870605,134.007584 
	C554.898987,130.536224 555.045959,127.178940 550.384338,126.535255 
	C549.990173,126.480827 549.714294,125.570099 549.386353,125.061691 
	C550.887634,122.996857 552.873962,123.737434 554.565063,123.720528 
	C562.558289,123.640533 570.553833,123.609749 578.545898,123.734489 
	C580.705627,123.768196 583.787415,122.568047 584.692078,125.490952 
	C585.617554,128.481308 586.169678,131.868576 582.974304,135.892349 
	C581.543396,127.329819 575.697144,127.398880 569.721680,127.295830 
	C566.117554,127.233673 564.957825,128.756119 565.200989,132.077423 
	C565.334351,133.899200 564.984070,135.775970 565.266235,137.562515 
	C565.657166,140.038116 563.505615,143.882446 567.790283,144.519028 
	C571.869934,145.125153 576.381165,145.460037 577.974304,139.940613 
	C578.050903,139.675232 578.429626,139.497055 578.714172,139.235352 
	C581.071289,139.408920 580.325745,141.218613 580.410156,142.980515 
z"/>
<path fill="#000000" opacity="1.000000" stroke="none" 
	d="
M199.849091,232.564514 
	C199.910690,225.616852 199.984863,219.119888 199.956299,212.623367 
	C199.934387,207.645889 201.435486,201.904724 193.488708,200.110504 
	C199.478195,198.228836 204.824585,198.641464 210.139114,198.951920 
	C210.238129,199.862564 210.371933,200.435181 210.293533,200.465881 
	C204.455246,202.751846 205.214417,207.747665 205.266068,212.496033 
	C205.320435,217.493240 205.289291,222.491669 205.264832,227.489395 
	C205.191971,242.378525 198.723999,248.592407 183.683105,248.245468 
	C171.916656,247.974060 165.988281,242.051926 165.759644,230.196884 
	C165.653656,224.701309 165.822433,219.200439 165.715805,213.704880 
	C165.615921,208.556534 167.823639,202.378616 159.619003,200.160675 
	C167.049286,198.154572 173.923370,198.471863 181.434158,199.910645 
	C172.673843,203.139893 175.898743,209.947906 175.735504,215.664902 
	C175.564636,221.649353 174.899094,227.643463 176.005005,233.604324 
	C177.374466,240.985672 180.776016,243.888000 187.835220,243.764114 
	C194.906845,243.639999 198.807129,240.141235 199.849091,232.564514 
z"/>
<path fill="#000000" opacity="1.000000" stroke="none" 
	d="
M347.390808,247.308624 
	C345.849121,247.125290 344.519440,247.423599 343.949066,245.191910 
	C351.330566,243.680939 349.512756,237.740067 349.569702,232.639786 
	C349.642151,226.147842 349.651276,219.653275 349.551147,213.161942 
	C349.475098,208.232590 351.000977,202.630219 344.466034,200.676163 
	C345.017273,198.709625 346.114868,198.733490 347.076447,198.729828 
	C356.399139,198.694260 365.722015,198.684204 375.044739,198.703064 
	C376.524323,198.706055 378.445129,198.577927 378.698700,200.485275 
	C379.110565,203.583755 380.136658,206.902145 376.864105,210.681107 
	C375.144806,202.050354 368.828735,201.444534 362.976074,202.640488 
	C355.427612,204.183029 360.688538,210.864410 359.422058,215.050903 
	C358.605438,217.750214 359.722015,219.598190 363.286072,219.785904 
	C367.994080,220.033859 371.311218,218.669388 373.351349,213.703140 
	C374.290649,219.298386 374.654907,224.384003 373.740570,229.986099 
	C370.875702,228.442642 371.272858,225.367706 368.726074,224.452301 
	C362.736572,222.299484 358.873779,224.596710 359.470459,230.914307 
	C359.847809,234.909592 356.387390,240.575089 362.419617,242.704803 
	C369.656403,245.259796 376.196869,242.546844 380.327911,236.388885 
	C380.561249,236.041031 381.151428,235.932526 381.575256,235.712769 
	C384.319824,240.933472 381.139374,247.314301 375.810730,247.333481 
	C366.487885,247.367035 357.164764,247.328094 347.390808,247.308624 
z"/>
<path fill="#000000" opacity="1.000000" stroke="none" 
	d="
M560.788818,225.730713 
	C555.991028,216.274506 551.569824,207.019180 543.609802,200.165024 
	C546.953125,198.132797 559.382996,198.012512 563.419922,199.960327 
	C563.394897,202.293930 560.802490,201.616547 559.531555,203.512527 
	C562.233704,208.155304 565.091064,213.064743 568.409790,218.766891 
	C571.797485,213.257553 574.705811,208.527832 577.385498,204.169968 
	C576.377441,201.661163 573.338562,202.561203 573.168762,199.156891 
	C577.956787,198.401825 582.765747,198.406937 588.131226,199.916428 
	C582.463867,203.571732 580.163025,209.537018 576.420593,214.404495 
	C572.331787,219.722443 570.639099,225.391693 571.259888,232.032303 
	C571.753967,237.316895 569.164734,243.761917 577.793335,245.812286 
	C569.936401,247.996399 562.594421,247.208038 555.274170,247.010834 
	C555.203918,244.663483 556.202759,244.253464 557.166260,244.110901 
	C560.442932,243.626053 560.954285,241.396301 560.907104,238.647552 
	C560.835693,234.484146 560.855591,230.319168 560.788818,225.730713 
z"/>
<path fill="#000000" opacity="1.000000" stroke="none" 
	d="
M311.865875,207.174393 
	C315.010651,215.793198 318.008911,224.054779 321.535309,233.771606 
	C325.220154,223.518448 328.499451,214.618256 331.602051,205.656876 
	C332.956818,201.743866 327.721375,202.779282 326.786987,199.232635 
	C331.918274,198.348022 336.743561,198.509949 341.979797,199.120148 
	C331.791046,212.988922 328.663971,229.304230 321.990509,244.054916 
	C321.268097,245.651657 320.992462,247.952972 318.672852,247.925507 
	C316.621948,247.901245 316.325653,245.783752 315.735596,244.316238 
	C312.201294,235.526672 308.840698,226.666428 305.237427,217.905731 
	C302.606598,211.509369 302.124939,203.797180 294.496094,199.952881 
	C301.512543,198.265045 308.217224,198.250961 315.664490,199.447098 
	C313.697906,202.272537 309.691559,203.102798 311.865875,207.174393 
z"/>
<path fill="#000000" opacity="1.000000" stroke="none" 
	d="
M489.602112,160.509811 
	C490.877991,163.837341 492.209686,166.678635 495.138794,168.393143 
	C499.086334,170.703812 503.773956,169.716980 506.151520,166.071350 
	C508.549896,162.393768 507.860321,158.278503 504.058014,155.556381 
	C501.361847,153.626144 498.340698,152.156799 495.535675,150.370163 
	C488.805634,146.083511 486.368652,139.996414 488.447510,132.896301 
	C490.434082,126.111465 495.540894,122.687431 503.686890,122.700668 
	C505.017151,122.702827 506.355621,122.698120 507.676117,122.834099 
	C513.990051,123.484245 516.086853,128.169647 512.740845,134.127182 
	C510.376038,134.052155 510.699066,131.806900 509.942749,130.510178 
	C508.235809,127.583786 505.597839,126.262283 502.464874,126.524284 
	C499.765167,126.750053 497.471313,128.115616 496.305206,130.936050 
	C494.993591,134.108337 495.747467,136.748108 497.901947,139.192291 
	C500.531769,142.175659 504.323273,143.272247 507.606812,145.191498 
	C514.619873,149.290680 517.377258,155.003448 515.773254,161.697968 
	C512.958496,173.445602 498.728790,176.112610 489.233185,170.739349 
	C487.258606,169.622009 485.677948,161.195618 487.041504,159.601517 
	C487.919739,158.574768 488.802063,159.254974 489.602112,160.509811 
z"/>
<path fill="#000000" opacity="1.000000" stroke="none" 
	d="
M514.709106,209.218765 
	C514.371521,206.779816 515.532043,204.272461 512.606628,203.248947 
	C508.614502,201.852188 503.798706,203.755997 498.651489,209.218765 
	C496.932953,204.955902 498.000977,201.336899 499.051666,197.920578 
	C512.846313,199.087967 526.307312,199.104126 540.505432,197.864075 
	C542.034241,201.433182 540.339844,205.052917 538.882263,209.457001 
	C537.254456,202.984436 532.933411,202.612961 528.022949,203.077560 
	C525.642517,203.302795 524.328003,204.063141 524.340149,206.661987 
	C524.390625,217.470322 524.363220,228.278992 524.371826,239.087540 
	C524.373779,241.524170 525.351746,243.228546 527.890320,243.819153 
	C529.130249,244.107651 530.629272,244.150101 530.828003,246.709259 
	C523.463623,247.738724 516.146240,247.338699 508.830872,246.939590 
	C508.830872,245.925232 508.763336,245.344299 508.840485,245.324387 
	C514.941833,243.750885 514.922546,239.164642 514.767151,234.128891 
	C514.515930,225.988708 514.707642,217.834854 514.709106,209.218765 
z"/>
<path fill="#000000" opacity="1.000000" stroke="none" 
	d="
M297.657959,167.951813 
	C302.884308,167.705612 304.849274,163.852631 307.414368,159.711990 
	C310.212799,163.856781 307.475800,166.925766 307.111450,170.026810 
	C306.901093,171.816940 305.579651,172.435852 303.868286,172.435883 
	C292.871429,172.436066 281.874542,172.464508 270.877716,172.452438 
	C269.891235,172.451355 268.856262,172.344833 268.236908,171.358978 
	C268.240662,171.037872 268.174164,170.450836 268.250122,170.431778 
	C274.614105,168.835403 273.961334,163.813110 273.920135,159.022903 
	C273.858490,151.856918 273.895294,144.690125 273.887299,137.523666 
	C273.879395,130.404358 273.877838,130.404358 267.623657,124.588699 
	C275.224152,122.977097 282.232635,123.802605 289.221619,123.881538 
	C289.272644,125.016014 289.364532,125.597763 289.290466,125.619698 
	C282.709045,127.570000 283.980194,132.970657 283.961334,137.763794 
	C283.931152,145.430084 283.920929,153.096924 283.978638,160.762955 
	C284.031281,167.751450 285.374390,168.965469 292.270416,168.474823 
	C293.932190,168.356583 295.588684,168.164230 297.657959,167.951813 
z"/>
<path fill="#000000" opacity="1.000000" stroke="none" 
	d="
M452.752808,201.751221 
	C446.159393,205.331528 445.475250,210.982773 450.980133,215.326248 
	C453.174438,217.057587 455.803986,218.252716 458.282379,219.605896 
	C468.018799,224.921936 469.552216,233.031738 465.679230,240.472092 
	C461.604126,248.300705 448.687347,251.128067 441.443939,245.903763 
	C437.356812,242.955963 438.797546,238.408401 438.622681,233.724136 
	C442.225128,235.151367 441.941223,238.146179 443.300323,240.017319 
	C445.899597,243.595947 449.102753,245.531967 453.581635,244.061874 
	C457.662109,242.722519 459.259705,239.709808 458.852692,235.527679 
	C458.603241,232.964523 457.015320,231.265228 455.014435,229.968094 
	C451.946106,227.978943 448.656311,226.313828 445.685730,224.195374 
	C440.292969,220.349533 438.310577,213.675308 440.378265,207.306122 
	C442.328156,201.299835 447.247986,197.832077 454.060913,197.694977 
	C455.558960,197.664856 457.065369,197.641129 458.556671,197.758209 
	C465.270233,198.285324 467.393097,202.531738 463.912903,209.981903 
	C461.288300,205.577682 459.524780,200.145294 452.752808,201.751221 
z"/>
<path fill="#000000" opacity="1.000000" stroke="none" 
	d="
M473.903015,246.196167 
	C479.518066,243.009003 479.319275,237.924652 479.118652,232.602020 
	C478.862274,225.800415 479.103088,218.981552 479.020050,212.171463 
	C478.962463,207.451813 480.856354,201.796371 472.942413,200.134735 
	C480.776001,198.290909 487.802643,198.278595 494.900085,199.344162 
	C494.713013,201.604645 493.519470,201.930054 492.394165,202.117645 
	C489.877502,202.537125 489.240509,204.202621 489.242950,206.425598 
	C489.255310,217.555588 489.255981,228.685577 489.255768,239.815567 
	C489.255737,241.829086 489.812500,243.384171 492.088440,243.846069 
	C493.331757,244.098404 494.820312,244.241653 494.753021,246.859467 
	C487.855988,247.250351 480.959412,248.010422 473.903015,246.196167 
z"/>
<path fill="#000000" opacity="1.000000" stroke="none" 
	d="
M276.881348,237.696228 
	C276.878601,228.911041 276.915985,220.589951 276.857971,212.269531 
	C276.824707,207.503220 278.400574,201.973816 270.863464,200.029709 
	C278.380066,198.162048 285.222412,198.748688 292.027954,198.840302 
	C292.107025,199.896454 292.213165,200.479553 292.143433,200.501404 
	C286.105255,202.393036 287.205841,207.372620 287.203552,211.864990 
	C287.199799,219.187302 287.172882,226.509857 287.222229,233.831863 
	C287.254395,238.602509 285.521667,244.247116 293.478516,245.754440 
	C285.747803,247.728958 278.747162,247.594543 270.334167,246.536148 
	C273.913910,243.623520 278.168518,242.737427 276.881348,237.696228 
z"/>
<path fill="#000000" opacity="1.000000" stroke="none" 
	d="
M528.576599,156.682831 
	C528.582275,150.069077 528.645691,143.915421 528.576477,137.763245 
	C528.520935,132.827896 530.263489,127.043449 522.284546,125.184784 
	C530.060303,123.025894 537.092285,123.877815 543.833740,123.762848 
	C544.447571,125.430161 544.238159,126.523270 543.405518,126.602959 
	C537.914734,127.128487 538.203552,130.936050 538.272705,134.924194 
	C538.408325,142.737869 538.269104,150.555878 538.331970,158.371384 
	C538.372681,163.419052 536.378601,169.489731 545.128601,170.878784 
	C537.138550,172.556702 530.072815,172.579788 522.401489,171.212204 
	C530.283691,168.626328 528.468567,162.500656 528.576599,156.682831 
z"/>
<path fill="#000000" opacity="1.000000" stroke="none" 
	d="
M665.745239,973.277222 
	C660.388123,978.530334 654.450439,975.384277 648.217712,976.180664 
	C649.911438,969.814575 648.931091,964.194397 649.941772,958.344910 
	C653.975403,959.140320 657.643005,960.230042 661.655762,958.748169 
	C664.608459,957.657715 665.577820,960.725281 665.807434,962.983154 
	C666.139587,966.248840 665.907898,969.571838 665.745239,973.277222 
M658.518005,962.284363 
	C655.455078,961.913086 652.546997,962.103760 652.657837,966.155518 
	C652.731262,968.838623 651.283936,972.645203 655.552246,973.456116 
	C658.566650,974.028748 661.789551,973.800354 662.935547,969.721985 
	C660.188904,969.383362 657.361023,970.346741 655.641907,967.422119 
	C657.678833,965.375854 663.005127,968.188660 662.105225,962.733032 
	C661.127991,962.610962 660.155090,962.489380 658.518005,962.284363 
z"/>
<path fill="#000000" opacity="1.000000" stroke="none" 
	d="
M682.991943,964.011719 
	C684.996277,958.335754 690.644226,959.765503 694.654724,958.573486 
	C697.469910,957.736816 700.903259,966.565491 699.392761,970.298401 
	C697.370728,975.295471 691.496826,977.738770 686.529358,975.539795 
	C684.492737,974.638245 682.843933,973.518677 683.425415,970.624512 
	C683.803406,968.743225 683.275085,966.679871 683.081360,964.337097 
	C683.009888,963.976135 682.991943,964.011719 682.991943,964.011719 
M692.629456,963.372620 
	C686.731445,962.535706 685.711121,965.171936 688.876099,973.472412 
	C692.607300,973.370056 695.011780,971.767212 695.845337,967.862549 
	C696.375305,965.379822 695.498535,964.110352 692.629456,963.372620 
z"/>
<path fill="#000000" opacity="1.000000" stroke="none" 
	d="
M676.989380,959.999329 
	C677.642761,958.354858 678.680054,957.923462 679.883850,959.364868 
	C680.931396,960.619080 681.736267,962.075928 682.820190,963.727478 
	C682.991943,964.011719 683.009888,963.976135 683.017578,963.956604 
	C681.696350,966.878174 678.305481,969.382568 681.278625,973.219910 
	C681.885620,974.003296 681.469360,975.175171 680.398193,975.713623 
	C679.032593,976.400085 677.839478,975.985596 676.775513,975.019165 
	C675.499695,973.860168 675.063049,971.684937 672.957886,971.694824 
	C670.598938,972.248291 671.696411,977.258911 667.392334,975.332458 
	C669.389587,970.533020 668.287415,965.437805 668.695068,960.522949 
	C671.256226,959.035095 673.732178,959.710754 676.641968,960.210388 
	C677.199585,962.256348 676.205444,962.493103 674.869385,962.456909 
	C671.906433,962.376465 671.359924,964.295410 671.394958,966.708008 
	C673.947571,968.269287 675.862366,967.303772 677.521362,965.336182 
	C679.159912,963.392639 678.389343,961.656860 676.989380,959.999329 
z"/>
<path fill="#000000" opacity="1.000000" stroke="none" 
	d="
M700.886780,963.858276 
	C701.152588,961.769836 700.227295,959.695496 702.900757,958.397400 
	C705.572571,963.055969 703.022827,968.648193 705.731323,973.544373 
	C714.729614,971.704346 709.969971,963.463928 712.364136,958.666748 
	C715.843750,960.949341 716.426270,969.173035 713.537598,973.231262 
	C711.411743,976.217834 705.185547,977.255554 702.228455,975.112000 
	C701.394043,974.507202 700.518799,973.762939 700.923523,972.662903 
	C701.966003,969.829590 700.499634,967.058533 700.886780,963.858276 
z"/>
<path fill="#000000" opacity="1.000000" stroke="none" 
	d="
M640.752319,960.528076 
	C641.929321,963.435486 642.313477,966.297363 644.457825,968.838928 
	C645.462952,966.491577 646.333862,964.457764 647.545898,961.627258 
	C649.040771,966.437561 647.994507,970.029175 646.495972,973.535889 
	C645.884338,974.967346 644.874268,976.071533 643.055176,975.865356 
	C640.645996,975.592224 642.241699,973.514160 641.679810,972.558228 
	C638.623962,971.560364 639.415405,977.594299 635.499390,975.267090 
	C637.811829,970.036255 635.216980,963.932922 638.291687,958.703003 
	C639.668457,958.372498 640.100159,959.328491 640.752319,960.528076 
z"/>
<path fill="#000000" opacity="1.000000" stroke="none" 
	d="
M716.482727,974.264404 
	C717.731079,970.579773 717.636658,967.080627 717.301025,963.654724 
	C717.004578,960.627686 717.843994,959.174927 721.015808,959.506226 
	C723.483704,959.764038 725.900757,959.517456 728.234924,958.129089 
	C729.772156,961.471375 727.974365,962.014221 725.822693,962.323608 
	C724.051575,962.578186 722.165222,962.599121 721.066406,964.480347 
	C722.252930,966.611450 723.955750,965.808533 725.458801,965.457947 
	C726.719177,965.163940 727.867920,965.037964 728.302551,966.501038 
	C728.755493,968.026001 727.501709,968.875793 726.416016,968.843140 
	C722.484863,968.724915 721.017822,970.811401 720.138245,974.330322 
	C719.696655,976.096863 717.853027,976.766602 716.482727,974.264404 
z"/>
</svg>