<svg version="1.1" id="Layer_1" xmlns="http://www.w3.org/2000/svg" xmlns:xlink="http://www.w3.org/1999/xlink" x="0px" y="0px"
	 width="100%" viewBox="0 0 373 482" enable-background="new 0 0 373 482" xml:space="preserve">
<path fill="#FEFDFD" opacity="1.000000" stroke="none" 
	d="
M374.000000,127.000000 
	C374.000000,245.999985 374.000000,364.499969 374.000000,483.000000 
	C249.666702,483.000000 125.333389,483.000000 1.000065,483.000000 
	C1.000043,322.333374 1.000043,161.666763 1.000022,1.000108 
	C125.333275,1.000072 249.666550,1.000072 373.999908,1.000036 
	C374.000000,42.833332 374.000000,84.666664 374.000000,127.000000 
M60.381668,109.667267 
	C56.196522,108.150444 55.361618,104.670334 55.323818,100.823898 
	C55.262585,94.593071 55.307327,88.361191 55.307327,82.130966 
	C53.079277,82.130966 51.147789,82.130966 49.772816,82.130966 
	C49.772816,88.624512 49.663612,94.880714 49.800892,101.131516 
	C49.966637,108.678490 53.339779,111.825134 61.812454,112.116173 
	C71.064400,111.818230 74.271255,108.572800 74.435478,99.251022 
	C74.500031,95.586655 74.185379,91.893127 74.552162,88.264297 
	C74.806633,85.746681 75.930435,83.316933 76.569580,81.171082 
	C74.397659,81.171082 71.244186,81.171082 69.247688,81.171082 
	C70.149620,83.331825 71.522652,85.326111 71.746887,87.442139 
	C72.148445,91.231544 71.870689,95.094284 71.854973,98.926285 
	C71.819267,107.633087 69.737648,109.753212 60.381668,109.667267 
M148.988632,102.130463 
	C147.161148,96.980576 145.174652,91.878563 143.601212,86.652199 
	C143.117371,85.045044 143.762650,83.097961 143.900925,81.166641 
	C141.175903,81.166641 137.224564,81.166641 133.945892,81.166641 
	C135.280701,83.505341 136.860397,85.694489 137.855759,88.123116 
	C141.136383,96.127617 144.205536,104.218788 147.355896,112.276672 
	C147.801819,112.252190 148.247726,112.227699 148.693649,112.203217 
	C149.724426,109.501389 150.755203,106.799561 152.156387,103.575974 
	C155.300034,95.982887 158.443695,88.389793 161.492828,81.025009 
	C159.558044,81.025009 156.685516,81.025009 153.101257,81.025009 
	C154.857285,82.140770 155.974503,82.850647 157.253113,83.663063 
	C155.170502,89.376968 153.249573,94.817482 151.171951,100.197472 
	C150.777679,101.218407 149.762283,101.999458 148.988632,102.130463 
M233.147888,80.412712 
	C227.432220,82.838982 224.637695,86.806229 226.813980,91.424400 
	C228.285202,94.546402 231.942917,96.592667 234.430389,99.296921 
	C236.115051,101.128403 238.501068,103.191086 238.654984,105.290970 
	C238.790344,107.138062 236.260956,109.180466 234.995331,111.010910 
	C238.427490,111.856033 241.371384,110.403679 243.008545,106.482605 
	C244.766846,102.271385 243.875473,98.614288 240.197357,95.877342 
	C238.481293,94.600372 236.469788,93.727318 234.633453,92.603752 
	C229.598190,89.522919 229.404129,86.032768 234.793610,82.074959 
	C237.350128,83.394997 239.906647,84.715034 242.415710,86.010559 
	C242.300674,84.714188 242.132111,82.814529 241.913452,80.350250 
	C239.052002,80.350250 236.482391,80.350250 233.147888,80.412712 
M47.533569,32.139534 
	C46.853905,32.549320 46.174240,32.959110 45.494579,33.368900 
	C46.338562,33.560081 47.182549,33.751266 48.803722,34.387997 
	C49.060993,41.823853 49.512314,49.261261 49.452625,56.694572 
	C49.435593,58.815872 47.935703,60.925266 47.133648,62.994049 
	C52.113823,62.994049 58.056591,62.994049 64.765907,63.099861 
	C73.616905,60.855774 78.455070,55.048565 78.087967,47.109531 
	C77.714859,39.040680 72.418938,33.679989 63.308224,32.531536 
	C60.572525,32.186684 57.745178,32.568886 54.132046,32.402527 
	C52.139915,32.432693 50.147781,32.462860 47.533569,32.139534 
M201.455917,32.754959 
	C199.384140,32.619827 197.177246,31.953407 195.263611,32.440098 
	C186.222778,34.739449 181.286148,43.994209 183.934250,53.167522 
	C186.343323,61.512825 195.211426,65.618271 205.688599,62.911667 
	C207.017624,62.248386 208.439575,61.722691 209.659912,60.898487 
	C215.594116,56.890591 218.123032,48.834606 215.727463,41.855328 
	C213.653519,35.813084 208.807892,32.690083 201.455917,32.754959 
M110.073936,102.085258 
	C110.082993,97.601921 109.787125,93.089020 110.217705,88.646538 
	C110.468132,86.062843 111.883759,83.592087 112.722977,81.217926 
	C110.452477,81.217926 106.888252,81.217926 103.324036,81.217926 
	C107.455338,81.895302 107.995285,84.606781 107.918282,87.995453 
	C107.812706,92.641258 107.944191,97.292450 107.299438,101.859520 
	C102.930237,96.416122 98.134193,91.252823 94.322159,85.443802 
	C91.068130,80.485107 87.062622,80.188362 81.970078,81.206459 
	C87.934692,85.305809 87.681480,107.603554 81.425278,111.223160 
	C85.399269,111.223160 88.954666,111.223160 91.953003,111.223160 
	C90.669083,109.675072 88.513130,108.276649 88.413551,106.744560 
	C88.012756,100.578270 88.247597,94.370651 88.247597,87.067368 
	C95.584465,96.220016 102.153877,104.415283 108.723297,112.610550 
	C109.107742,112.451660 109.492180,112.292763 109.876617,112.133873 
	C109.876617,109.090240 109.876617,106.046600 110.073936,102.085258 
M47.192448,132.529831 
	C46.539906,134.189621 45.321293,135.850204 45.323647,137.509064 
	C45.343967,151.828430 45.231144,166.162399 45.835575,180.463394 
	C46.949818,206.826599 47.876953,233.224777 50.087490,259.506989 
	C52.312233,285.958130 58.160427,311.758392 68.591866,336.347687 
	C89.255478,385.056610 124.316772,420.260193 169.907104,446.163940 
	C179.661728,451.706390 186.665527,451.257080 195.976044,445.745117 
	C220.652405,431.136383 243.539886,414.539734 262.164185,392.555115 
	C281.235687,370.042603 295.207397,344.684174 304.057739,316.509674 
	C315.683258,279.500610 317.873505,241.156433 319.624756,202.840195 
	C320.604584,181.401733 319.917877,159.887085 319.980835,138.406769 
	C319.986053,136.629883 319.981506,134.852951 319.981506,132.474579 
	C228.933670,132.474579 138.507568,132.474579 47.192448,132.529831 
M172.456635,32.432896 
	C170.330673,32.432896 168.204712,32.432896 166.078751,32.432896 
	C172.728867,35.988026 168.320145,41.430538 169.957962,45.571774 
	C164.183121,45.571774 159.110443,45.571774 153.426590,45.571774 
	C155.103775,41.066666 150.716843,35.423878 158.757751,32.665226 
	C152.876862,32.665226 148.405792,32.665226 143.996521,32.665226 
	C145.439331,34.146152 147.729950,35.394680 147.780411,36.727985 
	C148.108063,45.386150 147.948517,54.062756 147.948517,62.869682 
	C149.407364,62.869682 151.626740,62.869682 154.163528,62.869682 
	C154.163528,57.893112 154.163528,53.184235 154.163528,48.646873 
	C159.450745,48.646873 164.367310,48.646873 169.939880,48.646873 
	C168.374054,53.606773 172.780884,59.375614 165.568726,63.005951 
	C170.575562,63.005951 174.840393,63.005951 179.398392,63.005951 
	C173.674667,59.561039 173.661896,36.484177 179.629730,32.435974 
	C177.197983,32.435974 175.271515,32.435974 172.456635,32.432896 
M204.697144,80.773972 
	C201.026062,80.773972 197.354965,80.773972 194.296066,80.773972 
	C199.803604,88.366318 195.928543,96.731544 196.996292,104.371567 
	C197.372345,107.062271 197.843506,110.349869 193.574020,111.454979 
	C197.306396,111.454979 201.038773,111.454979 203.609406,111.454979 
	C203.262863,106.891083 202.921860,102.400101 202.580841,97.909126 
	C203.078964,97.617249 203.577087,97.325371 204.075211,97.033493 
	C205.275497,98.014847 206.745773,98.802055 207.619980,100.017868 
	C209.455460,102.570557 211.236389,105.227028 212.567719,108.062500 
	C214.553162,112.291161 217.560913,111.999245 221.324310,110.831825 
	C218.004700,105.960831 214.876068,101.370064 211.659546,96.650337 
	C215.862289,94.408409 218.917450,91.674393 217.699890,87.008377 
	C216.386292,81.974365 212.128922,80.885201 207.527817,80.758865 
	C206.864105,80.740646 206.199783,80.745422 204.697144,80.773972 
M251.858627,33.910885 
	C252.093979,33.715012 252.359070,33.543488 252.549545,33.310894 
	C252.622330,33.222012 252.534134,32.850708 252.502869,32.848572 
	C249.290558,32.628952 246.076660,32.432362 242.262009,32.197365 
	C244.169846,34.177704 246.228867,35.316559 246.270432,36.524830 
	C246.492523,42.979660 246.580261,49.486698 245.974823,55.905918 
	C245.561981,60.283146 241.795441,61.592236 237.843842,61.646629 
	C233.940765,61.700356 230.507233,60.010857 230.246811,55.972294 
	C229.763062,48.470139 230.108154,40.914536 230.108154,33.097504 
	C227.210541,33.097504 223.764465,33.097504 221.525284,33.097504 
	C222.343369,34.913120 223.679001,36.598267 223.787125,38.358807 
	C224.102448,43.492569 223.692673,48.670582 224.001816,53.805077 
	C224.416260,60.688152 228.518814,63.907871 236.229446,63.912411 
	C244.217270,63.917114 248.591125,60.596287 249.027695,53.753021 
	C249.344620,48.785282 249.031128,43.778786 249.296494,38.805458 
	C249.381714,37.207989 250.417007,35.661209 251.858627,33.910885 
M168.051178,98.465996 
	C166.971588,102.750282 171.148193,108.432304 162.998886,111.483582 
	C172.316086,111.483582 179.985016,111.483582 188.237656,111.483582 
	C187.953674,109.533012 187.720093,107.981003 187.522141,106.424454 
	C187.511551,106.341095 187.800766,106.219620 188.128357,105.992531 
	C184.693970,110.388695 179.153885,111.341011 176.032639,108.853920 
	C173.549362,106.875183 174.115524,101.069496 173.327896,96.962784 
	C173.874695,96.592674 174.421509,96.222565 174.968307,95.852463 
	C177.862823,96.883659 180.757355,97.914864 183.560120,98.913383 
	C183.560120,96.952332 183.560120,93.969696 183.560120,92.176109 
	C180.622620,93.035774 177.608322,93.917915 174.206543,94.913452 
	C174.206543,90.091606 174.206543,86.496109 174.206543,82.145546 
	C178.321533,82.822243 182.067963,83.438324 185.876633,84.064636 
	C185.876633,83.565849 185.876633,82.296539 185.876633,81.028397 
	C178.788849,81.028397 171.893372,81.028397 165.916168,81.028397 
	C166.642654,83.056053 167.763214,84.980324 167.957809,86.994072 
	C168.292694,90.459526 168.050690,93.980736 168.051178,98.465996 
M306.743866,38.394035 
	C306.826904,37.089615 306.909943,35.785191 307.001770,34.342903 
	C311.799957,34.346069 316.847443,32.723221 319.425842,40.174084 
	C319.425842,36.826374 319.425842,35.076019 319.425842,33.140709 
	C311.978058,33.140709 304.761505,33.140709 298.473053,33.140709 
	C299.214386,34.569595 300.891968,36.254486 300.705322,37.698368 
	C299.620972,46.085949 303.883331,55.227070 298.151550,62.981880 
	C305.181610,62.981880 313.032776,62.981880 321.013855,62.981880 
	C321.013855,60.990219 321.013855,59.336166 321.013855,58.151646 
	C317.897003,60.818031 309.650513,63.029690 308.463287,60.656487 
	C306.704987,57.141708 306.873901,52.662819 305.964142,46.982033 
	C310.652924,48.554092 313.707794,49.578335 316.601166,50.548428 
	C316.601166,48.636692 316.601166,45.617081 316.601166,42.597469 
	C314.491943,47.796761 310.509003,45.760632 306.743652,45.705658 
	C306.743652,43.350548 306.743652,41.369156 306.743866,38.394035 
M92.784760,38.202389 
	C89.703766,46.313354 86.622772,54.424320 83.471878,62.719299 
	C84.301704,62.719299 85.733131,62.719299 87.164566,62.719299 
	C86.789894,62.398602 86.415230,62.077900 86.040558,61.757202 
	C88.000015,58.749004 89.380219,54.196510 92.087181,53.181137 
	C94.628151,52.228020 100.209709,49.916397 101.960632,55.945381 
	C102.708519,58.520596 105.061836,61.473423 98.771133,62.844345 
	C104.576157,62.844345 108.704071,62.844345 112.131561,62.844345 
	C110.780151,60.578281 109.088364,58.460701 108.157516,56.049366 
	C105.023743,47.931484 102.160713,39.709084 99.194115,31.526665 
	C98.631706,31.404457 98.069290,31.282249 97.506874,31.160042 
	C96.011314,33.263401 94.515762,35.366764 92.784760,38.202389 
M297.641968,80.800690 
	C296.282318,80.896233 294.922668,80.991783 294.291718,81.036118 
	C297.774963,86.480637 302.322693,91.482353 304.275726,97.347992 
	C305.686798,101.585991 307.559296,107.886734 301.124573,111.132561 
	C305.757690,111.132561 310.164093,111.132561 314.355804,111.132561 
	C313.060455,109.930328 311.216522,109.058731 310.968140,107.857269 
	C308.710846,96.938362 313.866455,88.620857 321.425385,81.004288 
	C318.096344,81.004288 315.341431,81.004288 311.861694,81.004288 
	C313.456543,82.120338 314.487305,82.841660 315.688141,83.681992 
	C313.505859,87.141510 311.511169,90.303635 309.169708,94.015533 
	C306.870392,90.117416 304.888702,86.757713 302.805786,83.226471 
	C303.934418,82.516983 304.834900,81.950920 306.652252,80.808487 
	C303.076080,80.808487 300.763916,80.808487 297.641968,80.800690 
M274.841919,84.827293 
	C274.844391,91.641907 275.017914,98.463448 274.742523,105.266808 
	C274.662415,107.245293 273.298920,109.171806 272.382996,111.476166 
	C275.461578,111.476166 279.138123,111.476166 281.871857,111.476166 
	C279.393829,101.986526 281.327667,92.534447 280.474243,81.693748 
	C284.605377,83.250824 287.668762,84.405472 290.831055,85.597389 
	C290.891144,84.390091 290.992584,82.351952 291.074646,80.703484 
	C281.838562,80.703484 272.975647,80.703484 264.004059,80.703484 
	C264.005066,83.366562 263.355072,85.299561 267.005066,83.694832 
	C269.155457,82.749435 272.167725,83.764435 274.841919,84.827293 
M126.958717,60.947834 
	C126.349449,59.353615 125.279015,57.777702 125.214859,56.161835 
	C124.996933,50.673073 124.905861,45.156151 125.242271,39.679218 
	C125.388664,37.295918 126.691742,34.983662 127.465668,32.650658 
	C124.466721,32.650658 120.231339,32.650658 117.125557,32.650658 
	C117.971428,34.914734 119.677307,37.188217 119.429596,39.223988 
	C118.478310,47.041946 122.578690,55.630039 116.642563,62.940788 
	C123.961761,62.940788 131.827148,62.940788 139.961304,62.940788 
	C139.961304,61.689503 139.961304,60.435257 139.961304,60.082794 
	C135.828476,60.447292 131.834839,60.799515 126.958717,60.947834 
M272.790405,38.468941 
	C272.594696,36.403969 273.182281,33.408264 272.050415,32.455654 
	C269.129852,29.997696 261.353729,32.219662 259.003693,35.561764 
	C256.135071,39.641361 257.078461,45.219585 261.323700,48.339684 
	C263.185730,49.708202 265.302094,50.725887 267.265503,51.962296 
	C270.303467,53.875340 271.206879,56.697937 269.303070,59.628613 
	C267.214813,62.843273 264.064728,62.659687 260.985260,60.809250 
	C259.858307,60.132053 258.811523,59.321476 257.234985,58.230446 
	C257.551208,62.290371 258.378540,63.008369 262.546204,63.733406 
	C267.836639,64.653763 272.733887,62.224911 274.488892,57.810265 
	C276.316528,53.212959 274.685638,49.332634 269.551392,46.203384 
	C268.278748,45.427723 266.534119,45.093071 265.691406,44.018524 
	C264.191559,42.105995 262.485199,39.842129 262.305542,37.609333 
	C262.205536,36.366356 265.322205,33.547131 266.442932,33.805733 
	C268.581665,34.299248 270.329346,36.487278 272.790405,38.468941 
M258.597168,82.756836 
	C259.548737,82.398361 260.500305,82.039886 261.451874,81.681419 
	C261.390594,81.484604 261.329315,81.287781 261.268036,81.090965 
	C256.968964,81.090965 252.669861,81.090965 249.415894,81.090965 
	C250.272324,83.087624 251.831238,85.065201 251.873337,87.074570 
	C252.330887,108.909584 252.266083,108.910942 248.616806,110.786743 
	C252.013443,110.786743 255.440598,110.786743 258.065033,110.786743 
	C258.065033,101.480255 258.065033,92.430450 258.597168,82.756836 
M119.910553,80.811424 
	C119.349182,80.930450 118.787804,81.049469 117.959717,81.225044 
	C122.963547,84.050888 123.117546,107.127449 118.063858,111.693314 
	C121.929939,111.403198 125.357292,111.146011 128.240097,110.929680 
	C127.851036,108.973785 127.255760,107.283867 127.223099,105.583130 
	C127.104988,99.432335 126.979622,93.268196 127.283089,87.130157 
	C127.387939,85.009415 128.736908,82.950188 129.530716,80.827728 
	C127.111931,80.827728 123.965096,80.827728 119.910553,80.811424 
M290.784973,61.504448 
	C287.790283,52.117332 289.651550,42.651402 289.890442,33.096249 
	C287.360779,33.096249 284.395752,33.096249 282.125610,33.096249 
	C282.677887,34.794121 283.675964,36.527336 283.736877,38.292896 
	C283.942810,44.260998 284.039124,50.252991 283.706818,56.209610 
	C283.574860,58.574886 282.210785,60.871422 281.421448,63.159386 
	C284.210480,63.159386 288.012909,63.159386 291.815399,63.159382 
	C291.756866,62.718586 291.698334,62.277786 290.784973,61.504448 
z"/>
<path fill="#E6A726" opacity="1.000000" stroke="none" 
	d="
M47.636963,132.502197 
	C138.507568,132.474579 228.933670,132.474579 319.981506,132.474579 
	C319.981506,134.852951 319.986053,136.629883 319.980835,138.406769 
	C319.917877,159.887085 320.604584,181.401733 319.624756,202.840195 
	C317.873505,241.156433 315.683258,279.500610 304.057739,316.509674 
	C295.207397,344.684174 281.235687,370.042603 262.164185,392.555115 
	C243.539886,414.539734 220.652405,431.136383 195.976044,445.745117 
	C186.665527,451.257080 179.661728,451.706390 169.907104,446.163940 
	C124.316772,420.260193 89.255478,385.056610 68.591866,336.347687 
	C58.160427,311.758392 52.312233,285.958130 50.087490,259.506989 
	C47.876953,233.224777 46.949818,206.826599 45.835575,180.463394 
	C45.231144,166.162399 45.343967,151.828430 45.323647,137.509064 
	C45.321293,135.850204 46.539906,134.189621 47.636963,132.502197 
M61.133358,232.280441 
	C63.261257,258.347870 66.401405,284.254700 73.993561,309.402008 
	C82.618340,337.969666 95.965096,363.945618 115.967278,386.368317 
	C134.385742,407.015747 157.073364,422.094757 180.334839,436.449188 
	C181.559753,437.205078 184.151321,436.901733 185.510056,436.091278 
	C192.511963,431.914795 199.430878,427.576080 206.172516,422.990753 
	C224.263535,410.686066 241.299118,397.158142 255.050690,379.906311 
	C279.228516,349.574341 292.672302,314.655304 298.940826,276.740082 
	C302.980713,252.304932 305.257233,227.698929 305.359528,202.897003 
	C305.431580,185.420670 305.881958,167.945969 306.129333,150.470078 
	C306.149719,149.030121 305.908051,147.586472 305.773010,145.962677 
	C223.500397,145.962677 141.611725,145.962677 58.405773,145.962677 
	C59.282673,174.648331 60.149353,202.999817 61.133358,232.280441 
z"/>
<path fill="#141414" opacity="1.000000" stroke="none" 
	d="
M172.900848,32.434433 
	C175.271515,32.435974 177.197983,32.435974 179.629730,32.435974 
	C173.661896,36.484177 173.674667,59.561039 179.398392,63.005951 
	C174.840393,63.005951 170.575562,63.005951 165.568726,63.005951 
	C172.780884,59.375614 168.374054,53.606773 169.939880,48.646873 
	C164.367310,48.646873 159.450745,48.646873 154.163528,48.646873 
	C154.163528,53.184235 154.163528,57.893112 154.163528,62.869682 
	C151.626740,62.869682 149.407364,62.869682 147.948517,62.869682 
	C147.948517,54.062756 148.108063,45.386150 147.780411,36.727985 
	C147.729950,35.394680 145.439331,34.146152 143.996521,32.665226 
	C148.405792,32.665226 152.876862,32.665226 158.757751,32.665226 
	C150.716843,35.423878 155.103775,41.066666 153.426590,45.571774 
	C159.110443,45.571774 164.183121,45.571774 169.957962,45.571774 
	C168.320145,41.430538 172.728867,35.988026 166.078751,32.432896 
	C168.204712,32.432896 170.330673,32.432896 172.900848,32.434433 
z"/>
<path fill="#141414" opacity="1.000000" stroke="none" 
	d="
M205.116440,80.756760 
	C206.199783,80.745422 206.864105,80.740646 207.527817,80.758865 
	C212.128922,80.885201 216.386292,81.974365 217.699890,87.008377 
	C218.917450,91.674393 215.862289,94.408409 211.659546,96.650337 
	C214.876068,101.370064 218.004700,105.960831 221.324310,110.831825 
	C217.560913,111.999245 214.553162,112.291161 212.567719,108.062500 
	C211.236389,105.227028 209.455460,102.570557 207.619980,100.017868 
	C206.745773,98.802055 205.275497,98.014847 204.075211,97.033493 
	C203.577087,97.325371 203.078964,97.617249 202.580841,97.909126 
	C202.921860,102.400101 203.262863,106.891083 203.609406,111.454979 
	C201.038773,111.454979 197.306396,111.454979 193.574020,111.454979 
	C197.843506,110.349869 197.372345,107.062271 196.996292,104.371567 
	C195.928543,96.731544 199.803604,88.366318 194.296066,80.773972 
	C197.354965,80.773972 201.026062,80.773972 205.116440,80.756760 
M203.442444,82.452812 
	C203.157669,86.799263 202.872879,91.145706 202.590012,95.462875 
	C208.954666,96.015938 211.427231,94.499413 211.897675,90.225830 
	C212.443176,85.270142 210.275757,83.021881 203.442444,82.452812 
z"/>
<path fill="#191919" opacity="1.000000" stroke="none" 
	d="
M251.438141,34.001064 
	C250.417007,35.661209 249.381714,37.207989 249.296494,38.805458 
	C249.031128,43.778786 249.344620,48.785282 249.027695,53.753021 
	C248.591125,60.596287 244.217270,63.917114 236.229446,63.912411 
	C228.518814,63.907871 224.416260,60.688152 224.001816,53.805077 
	C223.692673,48.670582 224.102448,43.492569 223.787125,38.358807 
	C223.679001,36.598267 222.343369,34.913120 221.525284,33.097504 
	C223.764465,33.097504 227.210541,33.097504 230.108154,33.097504 
	C230.108154,40.914536 229.763062,48.470139 230.246811,55.972294 
	C230.507233,60.010857 233.940765,61.700356 237.843842,61.646629 
	C241.795441,61.592236 245.561981,60.283146 245.974823,55.905918 
	C246.580261,49.486698 246.492523,42.979660 246.270432,36.524830 
	C246.228867,35.316559 244.169846,34.177704 242.262009,32.197365 
	C246.076660,32.432362 249.290558,32.628952 252.502869,32.848572 
	C252.534134,32.850708 252.622330,33.222012 252.549545,33.310894 
	C252.359070,33.543488 252.093979,33.715012 251.438141,34.001064 
z"/>
<path fill="#202020" opacity="1.000000" stroke="none" 
	d="
M168.050995,97.972267 
	C168.050690,93.980736 168.292694,90.459526 167.957809,86.994072 
	C167.763214,84.980324 166.642654,83.056053 165.916168,81.028397 
	C171.893372,81.028397 178.788849,81.028397 185.876633,81.028397 
	C185.876633,82.296539 185.876633,83.565849 185.876633,84.064636 
	C182.067963,83.438324 178.321533,82.822243 174.206543,82.145546 
	C174.206543,86.496109 174.206543,90.091606 174.206543,94.913452 
	C177.608322,93.917915 180.622620,93.035774 183.560120,92.176109 
	C183.560120,93.969696 183.560120,96.952332 183.560120,98.913383 
	C180.757355,97.914864 177.862823,96.883659 174.968307,95.852463 
	C174.421509,96.222565 173.874695,96.592674 173.327896,96.962784 
	C174.115524,101.069496 173.549362,106.875183 176.032639,108.853920 
	C179.153885,111.341011 184.693970,110.388695 188.128357,105.992531 
	C187.800766,106.219620 187.511551,106.341095 187.522141,106.424454 
	C187.720093,107.981003 187.953674,109.533012 188.237656,111.483582 
	C179.985016,111.483582 172.316086,111.483582 162.998886,111.483582 
	C171.148193,108.432304 166.971588,102.750282 168.050995,97.972267 
z"/>
<path fill="#1A1A1A" opacity="1.000000" stroke="none" 
	d="
M306.743774,38.890900 
	C306.743652,41.369156 306.743652,43.350548 306.743652,45.705658 
	C310.509003,45.760632 314.491943,47.796761 316.601166,42.597469 
	C316.601166,45.617081 316.601166,48.636692 316.601166,50.548428 
	C313.707794,49.578335 310.652924,48.554092 305.964142,46.982033 
	C306.873901,52.662819 306.704987,57.141708 308.463287,60.656487 
	C309.650513,63.029690 317.897003,60.818031 321.013855,58.151646 
	C321.013855,59.336166 321.013855,60.990219 321.013855,62.981880 
	C313.032776,62.981880 305.181610,62.981880 298.151550,62.981880 
	C303.883331,55.227070 299.620972,46.085949 300.705322,37.698368 
	C300.891968,36.254486 299.214386,34.569595 298.473053,33.140709 
	C304.761505,33.140709 311.978058,33.140709 319.425842,33.140709 
	C319.425842,35.076019 319.425842,36.826374 319.425842,40.174084 
	C316.847443,32.723221 311.799957,34.346069 307.001770,34.342903 
	C306.909943,35.785191 306.826904,37.089615 306.743774,38.890900 
z"/>
<path fill="#171717" opacity="1.000000" stroke="none" 
	d="
M92.902481,37.836258 
	C94.515762,35.366764 96.011314,33.263401 97.506874,31.160042 
	C98.069290,31.282249 98.631706,31.404457 99.194115,31.526665 
	C102.160713,39.709084 105.023743,47.931484 108.157516,56.049366 
	C109.088364,58.460701 110.780151,60.578281 112.131561,62.844345 
	C108.704071,62.844345 104.576157,62.844345 98.771133,62.844345 
	C105.061836,61.473423 102.708519,58.520596 101.960632,55.945381 
	C100.209709,49.916397 94.628151,52.228020 92.087181,53.181137 
	C89.380219,54.196510 88.000015,58.749004 86.040558,61.757202 
	C86.415230,62.077900 86.789894,62.398602 87.164566,62.719299 
	C85.733131,62.719299 84.301704,62.719299 83.471878,62.719299 
	C86.622772,54.424320 89.703766,46.313354 92.902481,37.836258 
M98.323776,49.993298 
	C97.663750,46.053509 97.003731,42.113724 96.343704,38.173935 
	C95.883659,38.214710 95.423615,38.255486 94.963562,38.296261 
	C93.609406,42.058369 92.255241,45.820477 90.742638,50.022774 
	C93.464241,50.022774 95.442215,50.022774 98.323776,49.993298 
z"/>
<path fill="#121212" opacity="1.000000" stroke="none" 
	d="
M109.876617,103.002968 
	C109.876617,106.046600 109.876617,109.090240 109.876617,112.133873 
	C109.492180,112.292763 109.107742,112.451660 108.723297,112.610550 
	C102.153877,104.415283 95.584465,96.220016 88.247597,87.067368 
	C88.247597,94.370651 88.012756,100.578270 88.413551,106.744560 
	C88.513130,108.276649 90.669083,109.675072 91.953003,111.223160 
	C88.954666,111.223160 85.399269,111.223160 81.425278,111.223160 
	C87.681480,107.603554 87.934692,85.305809 81.970078,81.206459 
	C87.062622,80.188362 91.068130,80.485107 94.322159,85.443802 
	C98.134193,91.252823 102.930237,96.416122 107.785309,102.150314 
	C108.806320,102.628395 109.341469,102.815681 109.876617,103.002968 
z"/>
<path fill="#161616" opacity="1.000000" stroke="none" 
	d="
M298.046844,80.804588 
	C300.763916,80.808487 303.076080,80.808487 306.652252,80.808487 
	C304.834900,81.950920 303.934418,82.516983 302.805786,83.226471 
	C304.888702,86.757713 306.870392,90.117416 309.169708,94.015533 
	C311.511169,90.303635 313.505859,87.141510 315.688141,83.681992 
	C314.487305,82.841660 313.456543,82.120338 311.861694,81.004288 
	C315.341431,81.004288 318.096344,81.004288 321.425385,81.004288 
	C313.866455,88.620857 308.710846,96.938362 310.968140,107.857269 
	C311.216522,109.058731 313.060455,109.930328 314.355804,111.132561 
	C310.164093,111.132561 305.757690,111.132561 301.124573,111.132561 
	C307.559296,107.886734 305.686798,101.585991 304.275726,97.347992 
	C302.322693,91.482353 297.774963,86.480637 294.291718,81.036118 
	C294.922668,80.991783 296.282318,80.896233 298.046844,80.804588 
z"/>
<path fill="#181818" opacity="1.000000" stroke="none" 
	d="
M274.817139,84.362518 
	C272.167725,83.764435 269.155457,82.749435 267.005066,83.694832 
	C263.355072,85.299561 264.005066,83.366562 264.004059,80.703484 
	C272.975647,80.703484 281.838562,80.703484 291.074646,80.703484 
	C290.992584,82.351952 290.891144,84.390091 290.831055,85.597389 
	C287.668762,84.405472 284.605377,83.250824 280.474243,81.693748 
	C281.327667,92.534447 279.393829,101.986526 281.871857,111.476166 
	C279.138123,111.476166 275.461578,111.476166 272.382996,111.476166 
	C273.298920,109.171806 274.662415,107.245293 274.742523,105.266808 
	C275.017914,98.463448 274.844391,91.641907 274.817139,84.362518 
z"/>
<path fill="#111111" opacity="1.000000" stroke="none" 
	d="
M127.399956,61.049786 
	C131.834839,60.799515 135.828476,60.447292 139.961304,60.082794 
	C139.961304,60.435257 139.961304,61.689503 139.961304,62.940788 
	C131.827148,62.940788 123.961761,62.940788 116.642563,62.940788 
	C122.578690,55.630039 118.478310,47.041946 119.429596,39.223988 
	C119.677307,37.188217 117.971428,34.914734 117.125557,32.650658 
	C120.231339,32.650658 124.466721,32.650658 127.465668,32.650658 
	C126.691742,34.983662 125.388664,37.295918 125.242271,39.679218 
	C124.905861,45.156151 124.996933,50.673073 125.214859,56.161835 
	C125.279015,57.777702 126.349449,59.353615 127.399956,61.049786 
z"/>
<path fill="#191919" opacity="1.000000" stroke="none" 
	d="
M272.514893,38.220421 
	C270.329346,36.487278 268.581665,34.299248 266.442932,33.805733 
	C265.322205,33.547131 262.205536,36.366356 262.305542,37.609333 
	C262.485199,39.842129 264.191559,42.105995 265.691406,44.018524 
	C266.534119,45.093071 268.278748,45.427723 269.551392,46.203384 
	C274.685638,49.332634 276.316528,53.212959 274.488892,57.810265 
	C272.733887,62.224911 267.836639,64.653763 262.546204,63.733406 
	C258.378540,63.008369 257.551208,62.290371 257.234985,58.230446 
	C258.811523,59.321476 259.858307,60.132053 260.985260,60.809250 
	C264.064728,62.659687 267.214813,62.843273 269.303070,59.628613 
	C271.206879,56.697937 270.303467,53.875340 267.265503,51.962296 
	C265.302094,50.725887 263.185730,49.708202 261.323700,48.339684 
	C257.078461,45.219585 256.135071,39.641361 259.003693,35.561764 
	C261.353729,32.219662 269.129852,29.997696 272.050415,32.455654 
	C273.182281,33.408264 272.594696,36.403969 272.514893,38.220421 
z"/>
<path fill="#191919" opacity="1.000000" stroke="none" 
	d="
M204.974457,62.907990 
	C195.211426,65.618271 186.343323,61.512825 183.934250,53.167522 
	C181.286148,43.994209 186.222778,34.739449 195.263611,32.440098 
	C197.177246,31.953407 199.384140,32.619827 201.545212,32.963535 
	C201.397690,33.295624 201.190155,33.456837 200.601166,33.577660 
	C195.015594,33.508327 191.404938,36.020187 190.429153,41.002918 
	C189.713135,44.659245 189.554886,48.663982 190.242813,52.306702 
	C191.714996,60.102173 197.272797,63.135208 205.013992,61.374996 
	C204.997818,62.090443 204.986145,62.499218 204.974457,62.907990 
z"/>
<path fill="#080808" opacity="1.000000" stroke="none" 
	d="
M63.999363,62.994049 
	C58.056591,62.994049 52.113823,62.994049 47.133648,62.994049 
	C47.935703,60.925266 49.435593,58.815872 49.452625,56.694572 
	C49.512314,49.261261 49.060993,41.823853 48.417343,33.917259 
	C48.240753,33.150726 48.282318,32.832893 48.155651,32.493027 
	C50.147781,32.462860 52.139915,32.432693 54.554199,32.787788 
	C55.027771,33.539505 55.079189,33.905952 55.137047,34.723663 
	C55.135273,41.435352 55.118282,47.695786 55.121086,53.956207 
	C55.124542,61.670391 56.035530,62.439724 63.854820,61.760647 
	C63.936096,62.445755 63.967728,62.719902 63.999363,62.994049 
z"/>
<path fill="#171717" opacity="1.000000" stroke="none" 
	d="
M258.331116,83.068741 
	C258.065033,92.430450 258.065033,101.480255 258.065033,110.786743 
	C255.440598,110.786743 252.013443,110.786743 248.616806,110.786743 
	C252.266083,108.910942 252.330887,108.909584 251.873337,87.074570 
	C251.831238,85.065201 250.272324,83.087624 249.415894,81.090965 
	C252.669861,81.090965 256.968964,81.090965 261.268036,81.090965 
	C261.329315,81.287781 261.390594,81.484604 261.451874,81.681419 
	C260.500305,82.039886 259.548737,82.398361 258.331116,83.068741 
z"/>
<path fill="#090909" opacity="1.000000" stroke="none" 
	d="
M120.364410,80.819580 
	C123.965096,80.827728 127.111931,80.827728 129.530716,80.827728 
	C128.736908,82.950188 127.387939,85.009415 127.283089,87.130157 
	C126.979622,93.268196 127.104988,99.432335 127.223099,105.583130 
	C127.255760,107.283867 127.851036,108.973785 128.240097,110.929680 
	C125.357292,111.146011 121.929939,111.403198 118.063858,111.693314 
	C123.117546,107.127449 122.963547,84.050888 117.959717,81.225044 
	C118.787804,81.049469 119.349182,80.930450 120.364410,80.819580 
z"/>
<path fill="#151515" opacity="1.000000" stroke="none" 
	d="
M55.130608,34.272404 
	C55.079189,33.905952 55.027771,33.539505 54.968086,32.895531 
	C57.745178,32.568886 60.572525,32.186684 63.308224,32.531536 
	C72.418938,33.679989 77.714859,39.040680 78.087967,47.109531 
	C78.455070,55.048565 73.616905,60.855774 64.382637,63.046955 
	C63.967728,62.719902 63.936096,62.445755 64.122353,61.583710 
	C71.116165,57.031013 73.510956,50.569847 71.134415,42.665096 
	C69.172935,36.140923 64.139679,33.501385 55.130608,34.272404 
z"/>
<path fill="#151515" opacity="1.000000" stroke="none" 
	d="
M234.011597,82.026337 
	C229.404129,86.032768 229.598190,89.522919 234.633453,92.603752 
	C236.469788,93.727318 238.481293,94.600372 240.197357,95.877342 
	C243.875473,98.614288 244.766846,102.271385 243.008545,106.482605 
	C241.371384,110.403679 238.427490,111.856033 234.995331,111.010910 
	C236.260956,109.180466 238.790344,107.138062 238.654984,105.290970 
	C238.501068,103.191086 236.115051,101.128403 234.430389,99.296921 
	C231.942917,96.592667 228.285202,94.546402 226.813980,91.424400 
	C224.637695,86.806229 227.432220,82.838982 233.555420,80.800476 
	C233.979187,81.467613 233.995392,81.746971 234.011597,82.026337 
z"/>
<path fill="#121212" opacity="1.000000" stroke="none" 
	d="
M151.785980,104.097740 
	C150.755203,106.799561 149.724426,109.501389 148.693649,112.203217 
	C148.247726,112.227699 147.801819,112.252190 147.355896,112.276672 
	C144.205536,104.218788 141.136383,96.127617 137.855759,88.123116 
	C136.860397,85.694489 135.280701,83.505341 133.945892,81.166641 
	C137.224564,81.166641 141.175903,81.166641 143.900925,81.166641 
	C143.762650,83.097961 143.117371,85.045044 143.601212,86.652199 
	C145.174652,91.878563 147.161148,96.980576 149.211990,102.862640 
	C150.218887,103.762459 151.002441,103.930099 151.785980,104.097740 
z"/>
<path fill="#080808" opacity="1.000000" stroke="none" 
	d="
M291.212402,61.670719 
	C291.698334,62.277786 291.756866,62.718586 291.815369,63.159386 
	C288.012909,63.159386 284.210480,63.159386 281.421448,63.159386 
	C282.210785,60.871422 283.574860,58.574886 283.706818,56.209610 
	C284.039124,50.252991 283.942810,44.260998 283.736877,38.292896 
	C283.675964,36.527336 282.677887,34.794121 282.125610,33.096249 
	C284.395752,33.096249 287.360779,33.096249 289.890442,33.096249 
	C289.651550,42.651402 287.790283,52.117332 291.212402,61.670719 
z"/>
<path fill="#111111" opacity="1.000000" stroke="none" 
	d="
M201.011902,33.655743 
	C201.190155,33.456837 201.397690,33.295624 201.813583,33.087677 
	C208.807892,32.690083 213.653519,35.813084 215.727463,41.855328 
	C218.123032,48.834606 215.594116,56.890591 209.659912,60.898487 
	C208.439575,61.722691 207.017624,62.248386 205.331543,62.909828 
	C204.986145,62.499218 204.997818,62.090443 205.255859,61.127899 
	C213.925919,52.319870 211.475708,37.631413 201.011902,33.655743 
z"/>
<path fill="#060606" opacity="1.000000" stroke="none" 
	d="
M60.988686,111.889923 
	C53.339779,111.825134 49.966637,108.678490 49.800892,101.131516 
	C49.663612,94.880714 49.772816,88.624512 49.772816,82.130966 
	C51.147789,82.130966 53.079277,82.130966 55.307327,82.130966 
	C55.307327,88.361191 55.262585,94.593071 55.323818,100.823898 
	C55.361618,104.670334 56.196522,108.150444 60.688091,110.153717 
	C60.992573,111.056755 60.990631,111.473343 60.988686,111.889923 
z"/>
<path fill="#191919" opacity="1.000000" stroke="none" 
	d="
M61.400574,112.003052 
	C60.990631,111.473343 60.992573,111.056755 60.996368,110.327721 
	C69.737648,109.753212 71.819267,107.633087 71.854973,98.926285 
	C71.870689,95.094284 72.148445,91.231544 71.746887,87.442139 
	C71.522652,85.326111 70.149620,83.331825 69.247688,81.171082 
	C71.244186,81.171082 74.397659,81.171082 76.569580,81.171082 
	C75.930435,83.316933 74.806633,85.746681 74.552162,88.264297 
	C74.185379,91.893127 74.500031,95.586655 74.435478,99.251022 
	C74.271255,108.572800 71.064400,111.818230 61.400574,112.003052 
z"/>
<path fill="#272727" opacity="1.000000" stroke="none" 
	d="
M151.971191,103.836853 
	C151.002441,103.930099 150.218887,103.762459 149.234406,103.243004 
	C149.762283,101.999458 150.777679,101.218407 151.171951,100.197472 
	C153.249573,94.817482 155.170502,89.376968 157.253113,83.663063 
	C155.974503,82.850647 154.857285,82.140770 153.101257,81.025009 
	C156.685516,81.025009 159.558044,81.025009 161.492828,81.025009 
	C158.443695,88.389793 155.300034,95.982887 151.971191,103.836853 
z"/>
<path fill="#171717" opacity="1.000000" stroke="none" 
	d="
M109.975281,102.544113 
	C109.341469,102.815681 108.806320,102.628395 108.122620,102.191223 
	C107.944191,97.292450 107.812706,92.641258 107.918282,87.995453 
	C107.995285,84.606781 107.455338,81.895302 103.324036,81.217926 
	C106.888252,81.217926 110.452477,81.217926 112.722977,81.217926 
	C111.883759,83.592087 110.468132,86.062843 110.217705,88.646538 
	C109.787125,93.089020 110.082993,97.601921 109.975281,102.544113 
z"/>
<path fill="#333333" opacity="1.000000" stroke="none" 
	d="
M234.402603,82.050644 
	C233.995392,81.746971 233.979187,81.467613 233.937866,80.769249 
	C236.482391,80.350250 239.052002,80.350250 241.913452,80.350250 
	C242.132111,82.814529 242.300674,84.714188 242.415710,86.010559 
	C239.906647,84.715034 237.350128,83.394997 234.402603,82.050644 
z"/>
<path fill="#515151" opacity="1.000000" stroke="none" 
	d="
M47.844612,32.316277 
	C48.282318,32.832893 48.240753,33.150726 48.028748,33.694489 
	C47.182549,33.751266 46.338562,33.560081 45.494579,33.368900 
	C46.174240,32.959110 46.853905,32.549320 47.844612,32.316277 
z"/>
<path fill="#FBFBFA" opacity="1.000000" stroke="none" 
	d="
M61.074699,231.815857 
	C60.149353,202.999817 59.282673,174.648331 58.405773,145.962677 
	C141.611725,145.962677 223.500397,145.962677 305.773010,145.962677 
	C305.908051,147.586472 306.149719,149.030121 306.129333,150.470078 
	C305.881958,167.945969 305.431580,185.420670 305.359528,202.897003 
	C305.257233,227.698929 302.980713,252.304932 298.940826,276.740082 
	C292.672302,314.655304 279.228516,349.574341 255.050690,379.906311 
	C241.299118,397.158142 224.263535,410.686066 206.172516,422.990753 
	C199.430878,427.576080 192.511963,431.914795 185.510056,436.091278 
	C184.151321,436.901733 181.559753,437.205078 180.334839,436.449188 
	C157.073364,422.094757 134.385742,407.015747 115.967278,386.368317 
	C95.965096,363.945618 82.618340,337.969666 73.993561,309.402008 
	C66.401405,284.254700 63.261257,258.347870 61.074699,231.815857 
M201.548386,241.654236 
	C198.447220,241.864243 195.346054,242.074265 193.196457,242.219833 
	C190.541534,245.795654 188.299988,249.028564 185.828934,252.075348 
	C183.842758,254.524246 181.418137,254.403351 179.505493,252.043259 
	C176.944580,248.883194 174.678894,245.483917 172.144867,241.992294 
	C165.772232,242.574524 165.774612,242.571243 159.186966,237.786377 
	C158.801865,237.506683 158.349564,237.225662 157.894470,237.149902 
	C147.523438,235.423447 144.107498,227.535172 142.093460,218.794052 
	C139.799683,208.838760 140.934662,198.973999 143.834869,189.221848 
	C147.512665,176.855042 144.281570,173.268280 131.716705,175.456116 
	C131.553711,175.484497 131.400223,175.569199 131.237122,175.595078 
	C112.019577,178.645721 93.306000,178.967621 77.101334,165.622864 
	C76.924461,165.477219 76.487984,165.646820 76.173378,165.678665 
	C75.576263,182.359818 82.382729,191.509445 98.538147,194.845169 
	C105.409180,196.263901 112.481079,196.709808 120.063438,197.674377 
	C114.016434,202.871841 107.144173,204.162598 100.201759,203.617172 
	C93.445190,203.086304 86.792542,201.232712 79.432350,199.834122 
	C86.442574,222.140701 106.010300,220.487167 124.862198,222.685196 
	C110.568268,231.553574 97.461220,229.743759 82.607468,223.576584 
	C84.677704,228.136581 85.531685,232.066864 87.838478,234.746475 
	C98.219849,246.805679 112.968460,246.543152 127.183876,248.032181 
	C114.464401,256.798462 101.333717,254.887512 87.791046,249.264679 
	C87.947136,255.475937 90.409225,260.348511 95.262383,262.995026 
	C100.724571,265.973694 106.686501,268.458374 112.732292,269.833435 
	C119.698257,271.417847 126.993622,271.553955 134.145935,272.319031 
	C132.256073,274.497314 130.129593,275.998749 127.776939,276.926880 
	C118.866470,280.442017 109.793808,279.287201 100.716560,277.575317 
	C98.574944,277.171417 96.376915,277.066681 93.587334,276.755402 
	C96.504066,283.682526 101.210068,287.434998 106.966736,289.909851 
	C115.002716,293.364624 123.440399,293.525208 131.986923,292.447632 
	C134.290146,292.157196 136.631500,292.169159 140.348389,291.966248 
	C131.916000,301.223083 122.197769,302.180939 112.087959,302.597382 
	C123.890236,313.556061 136.699188,314.745819 151.383865,305.698242 
	C148.517899,313.107269 145.811142,319.161163 138.901428,321.136017 
	C136.549698,321.808167 133.520065,320.108459 130.310898,319.381744 
	C127.218468,323.988251 129.764893,330.166138 136.448792,331.375824 
	C142.472717,332.466064 147.967133,330.756836 151.890060,326.238831 
	C155.811142,321.722992 158.892303,316.477814 163.010941,310.596680 
	C161.823654,317.841125 160.761230,324.323700 159.654999,331.073578 
	C163.818893,331.223206 166.038864,327.920746 168.220871,325.000977 
	C170.495956,321.956696 172.255951,318.527405 174.241135,315.266449 
	C174.656067,315.372223 175.070999,315.477997 175.485931,315.583771 
	C174.254501,322.529266 173.751572,329.706757 171.629990,336.368774 
	C167.957687,347.900269 157.351013,351.902069 146.368057,346.741302 
	C145.369553,346.272125 144.377228,345.789734 143.022827,345.141632 
	C143.622406,352.745117 144.714722,359.844177 152.154358,363.150665 
	C161.260483,367.197845 168.372452,363.107117 174.641632,355.403290 
	C174.686981,362.774506 173.371536,368.708679 168.288437,372.990845 
	C162.835434,377.584534 156.489487,377.261047 149.772675,374.911682 
	C149.895340,380.404907 151.619400,384.647949 156.010712,387.135986 
	C164.253860,391.806549 170.757416,387.662354 177.123642,381.930328 
	C175.173996,393.206696 175.294464,403.640015 183.565384,414.262329 
	C185.628403,408.008301 188.189285,402.875671 188.847092,397.509705 
	C189.502731,392.161682 188.249725,386.579651 187.782028,380.421753 
	C193.911118,387.218323 200.649963,392.350616 209.848602,386.810913 
	C214.092682,384.255005 215.588852,380.008575 215.605988,374.920898 
	C200.137436,379.620392 188.615601,370.433441 191.418777,356.249176 
	C198.416733,364.115967 205.459839,366.506683 212.740341,363.486572 
	C218.886993,360.936859 222.447113,353.966309 221.799606,345.495514 
	C220.238403,346.189026 218.769989,346.922791 217.243942,347.505615 
	C209.249481,350.558746 201.192780,348.472504 196.622528,342.206940 
	C192.190079,336.130310 189.662109,322.917053 191.565796,314.983765 
	C194.451187,322.473785 198.715912,328.485901 205.974319,332.489807 
	C204.758652,325.099823 203.630310,318.240784 202.408157,310.811401 
	C206.552765,316.600067 209.776703,321.958740 213.856857,326.557831 
	C217.841095,331.048798 223.537125,332.885254 229.345490,331.108978 
	C231.943054,330.314575 234.509781,327.604858 235.837021,325.100159 
	C236.742737,323.390930 235.478043,320.531647 235.183746,318.186554 
	C234.740906,318.184845 234.298065,318.183136 233.855225,318.181427 
	C232.122360,321.925934 229.235001,322.268677 225.874527,321.126190 
	C220.598419,319.332489 215.543396,312.265381 215.219284,306.269562 
	C229.438156,314.595184 245.917892,312.899780 253.499161,301.979797 
	C242.507736,302.172180 232.122299,301.122467 224.934204,291.617371 
	C232.132553,292.034943 239.035873,292.828491 245.926636,292.731445 
	C253.794037,292.620636 261.054932,290.019653 266.742584,284.372894 
	C268.825775,282.304688 270.044952,279.366211 271.658295,276.824738 
	C250.763077,281.237091 236.208176,279.756653 231.265442,272.098267 
	C236.571335,271.685699 241.880402,271.440704 247.146057,270.824707 
	C255.296478,269.871155 263.283722,268.217133 270.109650,263.234528 
	C274.773804,259.829956 277.560974,255.378220 277.554413,249.283279 
	C259.712952,256.083588 244.406036,255.411880 237.826248,247.059769 
	C240.686646,247.059769 243.110687,247.180374 245.519257,247.038467 
	C254.902847,246.485611 264.141510,245.198166 272.163330,239.778992 
	C277.581604,236.118637 281.457184,231.391296 281.389221,224.155670 
	C264.301910,230.984116 247.649826,230.180740 241.827789,221.876389 
	C244.960159,221.876389 247.746277,222.056259 250.502197,221.843903 
	C260.207855,221.096024 269.759369,219.677567 277.722626,213.375595 
	C282.264130,209.781555 285.348419,205.355927 285.311157,198.933929 
	C268.207062,205.826309 252.064545,205.114914 245.844055,197.023285 
	C247.267014,197.023285 248.361481,197.085190 249.447144,197.013596 
	C259.095306,196.377411 268.770172,195.807175 277.513550,190.995010 
	C286.205536,186.211105 291.217163,174.525146 288.272766,165.383194 
	C275.844360,175.987808 261.262543,178.520798 245.645782,176.936478 
	C240.190491,176.383011 234.775436,175.439514 229.323013,174.849731 
	C222.271774,174.087006 218.890671,177.839325 220.329193,184.727905 
	C220.736511,186.678467 221.687439,188.546448 221.888550,190.503723 
	C222.715897,198.555893 224.165985,206.661499 223.835007,214.683426 
	C223.477768,223.341583 220.373672,231.352524 211.980774,235.962418 
	C208.748154,237.737976 205.513977,239.510712 201.548386,241.654236 
M199.130157,218.248779 
	C199.003418,217.425232 198.628387,216.547302 198.794693,215.787933 
	C199.383987,213.097061 199.576263,209.985703 201.145233,208.005112 
	C201.783737,207.199112 205.565125,208.882797 209.228699,209.741135 
	C209.734558,207.461533 211.142136,204.367783 210.940567,201.382690 
	C210.448074,194.089111 203.982162,193.389603 198.409760,191.926636 
	C208.950180,189.635971 210.429565,188.330643 210.172501,180.760773 
	C205.437149,185.311249 199.967438,184.376663 194.551086,183.669205 
	C191.085098,183.216522 187.613953,182.132263 184.179520,182.259506 
	C178.435349,182.472336 171.718811,179.117065 167.418152,186.111816 
	C167.027390,186.747391 165.581055,186.719620 164.635086,187.030869 
	C161.636108,188.017639 158.562851,188.831253 155.661957,190.052887 
	C149.083054,192.823425 148.257477,198.962021 153.339767,203.792892 
	C154.251770,202.553726 155.292633,200.119278 156.118622,200.190109 
	C160.141266,200.535110 164.440933,200.883530 167.936569,202.637634 
	C169.453796,203.398972 170.223373,207.761642 169.679672,210.105087 
	C168.295532,216.070847 166.110184,221.868607 163.979797,227.635468 
	C162.980026,230.341782 162.120911,232.704819 165.186356,234.543732 
	C168.133209,236.311478 170.928177,235.931656 173.430313,233.711746 
	C174.443069,232.813217 175.195312,231.621094 175.837280,230.840729 
	C177.799698,236.043869 179.686737,241.047165 181.573776,246.050446 
	C182.268539,246.090256 182.963303,246.130066 183.658066,246.169876 
	C185.651108,240.981583 187.644165,235.793289 189.626907,230.631805 
	C190.321945,231.568054 190.967773,232.761780 191.907715,233.641129 
	C194.356796,235.932358 197.159683,236.401688 200.109390,234.607971 
	C202.969910,232.868469 202.739685,230.546021 201.630371,227.728516 
	C200.540680,224.960861 200.036560,221.962631 199.130157,218.248779 
z"/>
<path fill="#F1F1F1" opacity="1.000000" stroke="none" 
	d="
M203.861984,82.389206 
	C210.275757,83.021881 212.443176,85.270142 211.897675,90.225830 
	C211.427231,94.499413 208.954666,96.015938 202.590012,95.462875 
	C202.872879,91.145706 203.157669,86.799263 203.861984,82.389206 
z"/>
<path fill="#E8E8E8" opacity="1.000000" stroke="none" 
	d="
M97.871979,50.008034 
	C95.442215,50.022774 93.464241,50.022774 90.742638,50.022774 
	C92.255241,45.820477 93.609406,42.058369 94.963562,38.296261 
	C95.423615,38.255486 95.883659,38.214710 96.343704,38.173935 
	C97.003731,42.113724 97.663750,46.053509 97.871979,50.008034 
z"/>
<path fill="#F8F8F8" opacity="1.000000" stroke="none" 
	d="
M200.601166,33.577660 
	C211.475708,37.631413 213.925919,52.319870 205.260345,60.821228 
	C197.272797,63.135208 191.714996,60.102173 190.242813,52.306702 
	C189.554886,48.663982 189.713135,44.659245 190.429153,41.002918 
	C191.404938,36.020187 195.015594,33.508327 200.601166,33.577660 
z"/>
<path fill="#F5F5F5" opacity="1.000000" stroke="none" 
	d="
M55.137047,34.723663 
	C64.139679,33.501385 69.172935,36.140923 71.134415,42.665096 
	C73.510956,50.569847 71.116165,57.031013 64.072708,61.172745 
	C56.035530,62.439724 55.124542,61.670391 55.121086,53.956207 
	C55.118282,47.695786 55.135273,41.435352 55.137047,34.723663 
z"/>
<path fill="#050505" opacity="1.000000" stroke="none" 
	d="
M201.914459,241.469482 
	C205.513977,239.510712 208.748154,237.737976 211.980774,235.962418 
	C220.373672,231.352524 223.477768,223.341583 223.835007,214.683426 
	C224.165985,206.661499 222.715897,198.555893 221.888550,190.503723 
	C221.687439,188.546448 220.736511,186.678467 220.329193,184.727905 
	C218.890671,177.839325 222.271774,174.087006 229.323013,174.849731 
	C234.775436,175.439514 240.190491,176.383011 245.645782,176.936478 
	C261.262543,178.520798 275.844360,175.987808 288.272766,165.383194 
	C291.217163,174.525146 286.205536,186.211105 277.513550,190.995010 
	C268.770172,195.807175 259.095306,196.377411 249.447144,197.013596 
	C248.361481,197.085190 247.267014,197.023285 245.844055,197.023285 
	C252.064545,205.114914 268.207062,205.826309 285.311157,198.933929 
	C285.348419,205.355927 282.264130,209.781555 277.722626,213.375595 
	C269.759369,219.677567 260.207855,221.096024 250.502197,221.843903 
	C247.746277,222.056259 244.960159,221.876389 241.827789,221.876389 
	C247.649826,230.180740 264.301910,230.984116 281.389221,224.155670 
	C281.457184,231.391296 277.581604,236.118637 272.163330,239.778992 
	C264.141510,245.198166 254.902847,246.485611 245.519257,247.038467 
	C243.110687,247.180374 240.686646,247.059769 237.826248,247.059769 
	C244.406036,255.411880 259.712952,256.083588 277.554413,249.283279 
	C277.560974,255.378220 274.773804,259.829956 270.109650,263.234528 
	C263.283722,268.217133 255.296478,269.871155 247.146057,270.824707 
	C241.880402,271.440704 236.571335,271.685699 231.265442,272.098267 
	C236.208176,279.756653 250.763077,281.237091 271.658295,276.824738 
	C270.044952,279.366211 268.825775,282.304688 266.742584,284.372894 
	C261.054932,290.019653 253.794037,292.620636 245.926636,292.731445 
	C239.035873,292.828491 232.132553,292.034943 224.934204,291.617371 
	C232.122299,301.122467 242.507736,302.172180 253.499161,301.979797 
	C245.917892,312.899780 229.438156,314.595184 215.219284,306.269562 
	C215.543396,312.265381 220.598419,319.332489 225.874527,321.126190 
	C229.235001,322.268677 232.122360,321.925934 233.855225,318.181427 
	C234.298065,318.183136 234.740906,318.184845 235.183746,318.186554 
	C235.478043,320.531647 236.742737,323.390930 235.837021,325.100159 
	C234.509781,327.604858 231.943054,330.314575 229.345490,331.108978 
	C223.537125,332.885254 217.841095,331.048798 213.856857,326.557831 
	C209.776703,321.958740 206.552765,316.600067 202.408157,310.811401 
	C203.630310,318.240784 204.758652,325.099823 205.974319,332.489807 
	C198.715912,328.485901 194.451187,322.473785 191.565796,314.983765 
	C189.662109,322.917053 192.190079,336.130310 196.622528,342.206940 
	C201.192780,348.472504 209.249481,350.558746 217.243942,347.505615 
	C218.769989,346.922791 220.238403,346.189026 221.799606,345.495514 
	C222.447113,353.966309 218.886993,360.936859 212.740341,363.486572 
	C205.459839,366.506683 198.416733,364.115967 191.418777,356.249176 
	C188.615601,370.433441 200.137436,379.620392 215.605988,374.920898 
	C215.588852,380.008575 214.092682,384.255005 209.848602,386.810913 
	C200.649963,392.350616 193.911118,387.218323 187.782028,380.421753 
	C188.249725,386.579651 189.502731,392.161682 188.847092,397.509705 
	C188.189285,402.875671 185.628403,408.008301 183.565384,414.262329 
	C175.294464,403.640015 175.173996,393.206696 177.123642,381.930328 
	C170.757416,387.662354 164.253860,391.806549 156.010712,387.135986 
	C151.619400,384.647949 149.895340,380.404907 149.772675,374.911682 
	C156.489487,377.261047 162.835434,377.584534 168.288437,372.990845 
	C173.371536,368.708679 174.686981,362.774506 174.641632,355.403290 
	C168.372452,363.107117 161.260483,367.197845 152.154358,363.150665 
	C144.714722,359.844177 143.622406,352.745117 143.022827,345.141632 
	C144.377228,345.789734 145.369553,346.272125 146.368057,346.741302 
	C157.351013,351.902069 167.957687,347.900269 171.629990,336.368774 
	C173.751572,329.706757 174.254501,322.529266 175.485931,315.583771 
	C175.070999,315.477997 174.656067,315.372223 174.241135,315.266449 
	C172.255951,318.527405 170.495956,321.956696 168.220871,325.000977 
	C166.038864,327.920746 163.818893,331.223206 159.654999,331.073578 
	C160.761230,324.323700 161.823654,317.841125 163.010941,310.596680 
	C158.892303,316.477814 155.811142,321.722992 151.890060,326.238831 
	C147.967133,330.756836 142.472717,332.466064 136.448792,331.375824 
	C129.764893,330.166138 127.218468,323.988251 130.310898,319.381744 
	C133.520065,320.108459 136.549698,321.808167 138.901428,321.136017 
	C145.811142,319.161163 148.517899,313.107269 151.383865,305.698242 
	C136.699188,314.745819 123.890236,313.556061 112.087959,302.597382 
	C122.197769,302.180939 131.916000,301.223083 140.348389,291.966248 
	C136.631500,292.169159 134.290146,292.157196 131.986923,292.447632 
	C123.440399,293.525208 115.002716,293.364624 106.966736,289.909851 
	C101.210068,287.434998 96.504066,283.682526 93.587334,276.755402 
	C96.376915,277.066681 98.574944,277.171417 100.716560,277.575317 
	C109.793808,279.287201 118.866470,280.442017 127.776939,276.926880 
	C130.129593,275.998749 132.256073,274.497314 134.145935,272.319031 
	C126.993622,271.553955 119.698257,271.417847 112.732292,269.833435 
	C106.686501,268.458374 100.724571,265.973694 95.262383,262.995026 
	C90.409225,260.348511 87.947136,255.475937 87.791046,249.264679 
	C101.333717,254.887512 114.464401,256.798462 127.183876,248.032181 
	C112.968460,246.543152 98.219849,246.805679 87.838478,234.746475 
	C85.531685,232.066864 84.677704,228.136581 82.607468,223.576584 
	C97.461220,229.743759 110.568268,231.553574 124.862198,222.685196 
	C106.010300,220.487167 86.442574,222.140701 79.432350,199.834122 
	C86.792542,201.232712 93.445190,203.086304 100.201759,203.617172 
	C107.144173,204.162598 114.016434,202.871841 120.063438,197.674377 
	C112.481079,196.709808 105.409180,196.263901 98.538147,194.845169 
	C82.382729,191.509445 75.576263,182.359818 76.173042,165.673950 
	C76.487984,165.646820 76.924461,165.477219 77.101334,165.622864 
	C93.306000,178.967621 112.019577,178.645721 131.237122,175.595078 
	C131.400223,175.569199 131.553711,175.484497 131.716705,175.456116 
	C144.281570,173.268280 147.512665,176.855042 143.834869,189.221848 
	C140.934662,198.973999 139.799683,208.838760 142.093460,218.794052 
	C144.107498,227.535172 147.523438,235.423447 157.894470,237.149902 
	C158.349564,237.225662 158.801865,237.506683 159.186966,237.786377 
	C165.774612,242.571243 165.772232,242.574524 172.144867,241.992294 
	C174.678894,245.483917 176.944580,248.883194 179.505493,252.043259 
	C181.418137,254.403351 183.842758,254.524246 185.828934,252.075348 
	C188.299988,249.028564 190.541534,245.795654 193.196457,242.219833 
	C195.346054,242.074265 198.447220,241.864243 201.914459,241.469482 
z"/>
<path fill="#060606" opacity="1.000000" stroke="none" 
	d="
M199.202820,218.657181 
	C200.036560,221.962631 200.540680,224.960861 201.630371,227.728516 
	C202.739685,230.546021 202.969910,232.868469 200.109390,234.607971 
	C197.159683,236.401688 194.356796,235.932358 191.907715,233.641129 
	C190.967773,232.761780 190.321945,231.568054 189.626907,230.631805 
	C187.644165,235.793289 185.651108,240.981583 183.658066,246.169876 
	C182.963303,246.130066 182.268539,246.090256 181.573776,246.050446 
	C179.686737,241.047165 177.799698,236.043869 175.837280,230.840729 
	C175.195312,231.621094 174.443069,232.813217 173.430313,233.711746 
	C170.928177,235.931656 168.133209,236.311478 165.186356,234.543732 
	C162.120911,232.704819 162.980026,230.341782 163.979797,227.635468 
	C166.110184,221.868607 168.295532,216.070847 169.679672,210.105087 
	C170.223373,207.761642 169.453796,203.398972 167.936569,202.637634 
	C164.440933,200.883530 160.141266,200.535110 156.118622,200.190109 
	C155.292633,200.119278 154.251770,202.553726 153.339767,203.792892 
	C148.257477,198.962021 149.083054,192.823425 155.661957,190.052887 
	C158.562851,188.831253 161.636108,188.017639 164.635086,187.030869 
	C165.581055,186.719620 167.027390,186.747391 167.418152,186.111816 
	C171.718811,179.117065 178.435349,182.472336 184.179520,182.259506 
	C187.613953,182.132263 191.085098,183.216522 194.551086,183.669205 
	C199.967438,184.376663 205.437149,185.311249 210.172501,180.760773 
	C210.429565,188.330643 208.950180,189.635971 198.409760,191.926636 
	C203.982162,193.389603 210.448074,194.089111 210.940567,201.382690 
	C211.142136,204.367783 209.734558,207.461533 209.228699,209.741135 
	C205.565125,208.882797 201.783737,207.199112 201.145233,208.005112 
	C199.576263,209.985703 199.383987,213.097061 198.794693,215.787933 
	C198.628387,216.547302 199.003418,217.425232 199.202820,218.657181 
M176.978485,191.853897 
	C180.177765,192.356140 182.414108,191.589676 182.650558,187.828598 
	C179.664490,187.828598 177.000031,187.828598 173.304825,187.828598 
	C174.730804,189.604675 175.503647,190.567261 176.978485,191.853897 
z"/>
<path fill="#CECECE" opacity="1.000000" stroke="none" 
	d="
M176.627472,191.691864 
	C175.503647,190.567261 174.730804,189.604675 173.304825,187.828598 
	C177.000031,187.828598 179.664490,187.828598 182.650558,187.828598 
	C182.414108,191.589676 180.177765,192.356140 176.627472,191.691864 
z"/>
</svg>