<svg version="1.1" id="Layer_1" xmlns="http://www.w3.org/2000/svg" xmlns:xlink="http://www.w3.org/1999/xlink" x="0px" y="0px"
	 width="100%" viewBox="0 0 200 200" enable-background="new 0 0 200 200" xml:space="preserve">
<path fill="#FCFCFD" opacity="1.000000" stroke="none" 
	d="
M201.000000,77.000000 
	C201.000000,118.640923 201.000000,159.781845 201.000000,200.961395 
	C134.400772,200.961395 67.801521,200.961395 1.101135,200.961395 
	C1.101135,134.442581 1.101135,67.884949 1.101135,1.163660 
	C67.666336,1.163660 134.333130,1.163660 201.000000,1.163660 
	C201.000000,26.198212 201.000000,51.349106 201.000000,77.000000 
M155.791687,39.437519 
	C155.762970,39.247890 155.734268,39.058262 156.092621,38.284203 
	C156.006210,37.858177 155.919800,37.432148 156.100876,36.510258 
	C155.274719,35.676510 154.448563,34.842762 154.104553,33.412663 
	C154.420715,29.929201 154.736877,26.445740 154.965485,22.429226 
	C154.905136,22.259583 154.844803,22.089939 154.954773,21.259914 
	C154.830734,20.841894 154.706696,20.423872 154.795654,20.186720 
	C154.795654,20.186720 155.016525,20.015574 155.703552,19.816404 
	C155.827988,18.883118 155.952423,17.949831 156.624649,16.661581 
	C156.048370,9.492936 152.840744,15.534791 150.233429,15.788205 
	C149.135513,16.478724 148.037598,17.169243 146.255432,17.970154 
	C145.156708,19.281710 144.057999,20.593264 142.199814,21.764650 
	C141.712662,21.708397 141.225494,21.652143 140.316360,21.617861 
	C140.316360,21.617861 140.043030,21.943342 139.354401,21.978056 
	C137.954361,22.745857 136.554337,23.513659 134.557037,24.396170 
	C133.958755,25.187729 133.360489,25.979290 132.386475,26.789557 
	C132.386475,26.789557 132.044113,26.944889 131.358170,26.787271 
	C130.181839,27.450495 129.005493,28.113716 127.372017,28.920071 
	C127.372017,28.920071 126.972664,29.184595 126.491013,29.101242 
	C126.168747,29.242649 125.961502,29.483194 125.283638,29.918781 
	C124.827721,30.239208 124.371803,30.559635 123.446457,31.051802 
	C123.241890,31.302908 123.037323,31.554012 122.168640,31.837093 
	C121.432526,32.550972 120.696404,33.264854 119.747803,34.220699 
	C119.567619,34.575348 119.629120,34.843513 119.717400,35.584225 
	C119.760826,35.977676 119.804253,36.371132 119.630478,37.306637 
	C119.729156,38.257008 119.827843,39.207375 119.878479,40.583969 
	C119.878479,40.583969 120.138763,40.924889 120.033478,41.609585 
	C120.008110,42.069408 119.982735,42.529232 119.485138,43.406380 
	C119.451096,44.238113 119.417053,45.069843 119.077423,46.678207 
	C119.649323,48.856979 120.221230,51.035751 120.852539,53.648651 
	C120.852539,53.648651 121.087257,54.018654 120.857979,54.606625 
	C120.296844,55.413921 119.735718,56.221222 119.026009,57.923225 
	C117.595207,62.107639 121.199173,66.643250 118.117683,70.812737 
	C117.792427,71.252831 118.663292,73.280449 119.423882,73.645744 
	C120.429169,74.128555 122.763161,74.093086 122.984650,73.595009 
	C124.429230,70.346291 127.776787,71.173553 130.711090,69.997215 
	C131.481659,69.359612 132.252228,68.722000 133.477753,67.958504 
	C133.477753,67.958504 133.845291,67.662315 134.514404,67.718460 
	C135.723602,66.878304 136.932785,66.038147 138.618835,65.135239 
	C138.618835,65.135239 138.972321,64.809074 139.606491,64.773857 
	C140.451553,64.233276 141.296600,63.692707 142.787827,63.010914 
	C143.507294,62.334316 144.226761,61.657719 145.143707,60.626438 
	C145.143707,60.626438 145.092697,60.223709 145.543289,60.127419 
	C145.543289,60.127419 145.977402,59.972954 146.504990,60.164249 
	C146.793091,59.964741 147.081192,59.765236 147.926941,59.394829 
	C148.289047,59.253624 148.651138,59.112415 149.721054,59.026325 
	C151.699005,57.264095 153.676971,55.501865 155.953415,52.960163 
	C155.955460,51.296379 155.957520,49.632599 156.117950,47.319019 
	C156.055176,46.881367 155.992416,46.443714 156.003906,45.486721 
	C155.723480,45.305958 155.443054,45.125191 154.985779,44.386505 
	C154.852966,44.243584 154.720154,44.100662 154.996765,43.457691 
	C155.339661,42.681328 155.682556,41.904968 156.191010,40.534302 
	C156.083969,40.358715 155.976913,40.183132 155.791687,39.437519 
M145.082458,89.926605 
	C145.083786,103.589943 145.003555,117.254097 145.139572,130.916092 
	C145.177002,134.676437 143.841812,137.142487 140.563965,139.005127 
	C128.133224,146.068954 115.754929,153.227341 103.437531,160.486954 
	C100.172752,162.411133 97.368500,162.285309 94.142151,160.378433 
	C81.974892,153.187241 69.754303,146.082245 57.442421,139.142365 
	C53.953701,137.175873 52.576462,134.616959 52.613312,130.686356 
	C52.744526,116.691040 52.782909,102.692337 52.605007,88.698120 
	C52.549122,84.301949 54.283134,81.586960 58.029297,79.502380 
	C66.746216,74.651802 74.942307,68.639496 84.067085,64.806221 
	C94.860092,60.272129 98.426483,53.242023 96.893341,42.106052 
	C96.076546,36.173317 96.748505,30.035620 96.748505,23.337193 
	C94.546928,24.504253 93.227013,25.149708 91.958763,25.884357 
	C71.383682,37.802612 50.873112,49.834240 30.196936,61.574276 
	C25.991108,63.962364 24.472435,66.934166 24.497591,71.599983 
	C24.632347,96.593132 24.627684,121.587700 24.504622,146.580963 
	C24.482546,151.064346 25.965118,153.952728 29.976229,156.242554 
	C51.792294,168.696671 73.510818,181.323318 95.173409,194.043030 
	C98.942993,196.256424 102.086220,196.173203 105.814919,193.985687 
	C127.335091,181.360443 148.900558,168.809937 170.575836,156.453644 
	C174.719345,154.091583 176.380081,151.237930 176.344788,146.475784 
	C176.167007,122.483017 176.266815,98.488190 176.269150,74.494087 
	C176.269333,72.725945 176.269180,70.957802 176.269180,68.289894 
	C165.842880,74.208771 156.182022,79.608208 146.655182,85.234589 
	C145.717117,85.788582 145.600815,87.734024 145.082458,89.926605 
z"/>
<path fill="#071A3C" opacity="1.000000" stroke="none" 
	d="
M145.092773,89.480118 
	C145.600815,87.734024 145.717117,85.788582 146.655182,85.234589 
	C156.182022,79.608208 165.842880,74.208771 176.269180,68.289894 
	C176.269180,70.957802 176.269333,72.725945 176.269150,74.494087 
	C176.266815,98.488190 176.167007,122.483017 176.344788,146.475784 
	C176.380081,151.237930 174.719345,154.091583 170.575836,156.453644 
	C148.900558,168.809937 127.335091,181.360443 105.814919,193.985687 
	C102.086220,196.173203 98.942993,196.256424 95.173409,194.043030 
	C73.510818,181.323318 51.792294,168.696671 29.976229,156.242554 
	C25.965118,153.952728 24.482546,151.064346 24.504622,146.580963 
	C24.627684,121.587700 24.632347,96.593132 24.497591,71.599983 
	C24.472435,66.934166 25.991108,63.962364 30.196936,61.574276 
	C50.873112,49.834240 71.383682,37.802612 91.958763,25.884357 
	C93.227013,25.149708 94.546928,24.504253 96.748505,23.337193 
	C96.748505,30.035620 96.076546,36.173317 96.893341,42.106052 
	C98.426483,53.242023 94.860092,60.272129 84.067085,64.806221 
	C74.942307,68.639496 66.746216,74.651802 58.029297,79.502380 
	C54.283134,81.586960 52.549122,84.301949 52.605007,88.698120 
	C52.782909,102.692337 52.744526,116.691040 52.613312,130.686356 
	C52.576462,134.616959 53.953701,137.175873 57.442421,139.142365 
	C69.754303,146.082245 81.974892,153.187241 94.142151,160.378433 
	C97.368500,162.285309 100.172752,162.411133 103.437531,160.486954 
	C115.754929,153.227341 128.133224,146.068954 140.563965,139.005127 
	C143.841812,137.142487 145.177002,134.676437 145.139572,130.916092 
	C145.003555,117.254097 145.083786,103.589943 145.092773,89.480118 
z"/>
<path fill="#0C2B4F" opacity="1.000000" stroke="none" 
	d="
M130.072449,69.878845 
	C127.776787,71.173553 124.429230,70.346291 122.984650,73.595009 
	C122.763161,74.093086 120.429169,74.128555 119.423882,73.645744 
	C118.663292,73.280449 117.792427,71.252831 118.117683,70.812737 
	C121.199173,66.643250 117.595207,62.107639 119.337860,57.722775 
	C120.557266,60.465244 123.897964,61.924980 125.260567,59.840363 
	C126.048561,58.634830 125.782295,56.740185 126.315308,55.072220 
	C127.085907,54.967602 127.531693,54.946434 128.018799,55.253365 
	C129.037888,56.389763 130.015671,57.198055 131.002930,58.249557 
	C131.012390,58.492767 130.925095,58.971664 130.601151,58.995461 
	C126.596344,61.549671 130.508041,63.612141 130.782227,66.249443 
	C130.599426,67.689690 130.335938,68.784271 130.072449,69.878845 
z"/>
<path fill="#062D56" opacity="1.000000" stroke="none" 
	d="
M155.053040,22.962278 
	C154.736877,26.445740 154.420715,29.929201 153.560760,33.689484 
	C152.308685,34.297394 151.600388,34.628483 150.609863,34.813156 
	C149.223038,33.778812 148.118439,32.890877 146.760498,32.001434 
	C146.338257,31.999813 146.169357,31.999706 146.004456,31.750008 
	C146.008453,31.500418 146.013901,31.001202 146.260895,30.999460 
	C146.507874,30.997719 147.001846,30.997425 147.254578,30.812767 
	C147.706680,29.826260 147.906067,29.024408 148.304382,28.187199 
	C148.503296,28.151840 148.905304,28.110704 148.956696,28.414616 
	C150.598312,30.022120 150.598312,30.022120 152.677429,26.051332 
	C151.152359,26.846260 150.113403,27.387798 149.058685,27.637737 
	C148.712524,26.917713 148.382126,26.489290 148.051758,26.041494 
	C148.051773,26.022123 148.027771,25.992342 148.062775,25.747314 
	C148.131195,25.169540 148.102875,24.842131 148.381836,24.225052 
	C149.321106,23.183950 149.891357,22.437853 150.688705,21.882572 
	C151.242432,22.242306 151.569077,22.411226 151.981522,22.865410 
	C152.326080,23.446835 152.584808,23.742994 153.001953,24.258362 
	C153.449860,23.981262 153.739380,23.484959 154.011658,22.990376 
	C153.994400,22.992096 153.997711,23.026033 154.265686,23.078812 
	C154.706787,23.075155 154.879913,23.018717 155.053040,22.962278 
z"/>
<path fill="#042D5F" opacity="1.000000" stroke="none" 
	d="
M133.845276,67.662315 
	C133.845291,67.662315 133.477753,67.958504 132.995239,67.863266 
	C132.305878,67.226654 132.099014,66.685280 131.887329,65.732590 
	C131.754745,63.449295 131.627014,61.577324 131.520508,59.704285 
	C131.541733,59.703220 131.593689,59.724350 131.739136,59.575684 
	C131.884583,59.427021 132.067200,59.053291 132.305649,58.889381 
	C133.044128,58.155323 133.544159,57.585175 134.242416,57.010223 
	C134.440659,57.005417 134.838486,57.005894 134.964813,57.249077 
	C135.440628,57.054974 135.790115,56.617683 136.372971,56.189804 
	C136.606354,56.199215 137.058151,56.061752 137.294998,56.161720 
	C137.723175,56.541710 137.914505,56.821732 137.966370,57.386253 
	C137.554428,58.444725 137.281921,59.218689 136.705917,60.209564 
	C135.959732,62.217686 135.517059,64.008904 135.019073,65.529633 
	C134.517456,64.995682 134.071167,64.732216 133.624878,64.468750 
	C133.704895,64.970474 133.784897,65.472206 133.878922,66.257645 
	C133.877045,66.915016 133.861160,67.288666 133.845276,67.662315 
z"/>
<path fill="#0B2F5A" opacity="1.000000" stroke="none" 
	d="
M154.587357,43.957745 
	C154.720154,44.100662 154.852966,44.243584 154.763000,44.698250 
	C154.000778,45.279285 153.461334,45.548576 152.596619,45.859528 
	C151.835175,45.926697 151.398987,45.952209 150.780518,45.793427 
	C150.485779,44.861664 150.373322,44.114208 150.164337,42.725182 
	C149.176346,44.247551 148.607513,45.124054 147.914932,45.718079 
	C147.208435,45.301201 146.625687,45.166798 145.788605,44.903084 
	C145.303558,44.475487 145.072815,44.177204 144.905334,43.587791 
	C145.070999,42.913059 145.173431,42.529461 145.550842,42.001850 
	C148.080215,41.640995 150.807663,41.978374 150.288208,38.167152 
	C150.516800,38.090263 150.977356,37.946857 150.987793,38.193680 
	C150.998215,38.440502 151.006180,38.934521 151.149475,39.252544 
	C152.519577,40.038193 153.746353,40.505817 155.037537,41.043968 
	C155.101944,41.114494 155.226151,41.259621 154.995422,41.465904 
	C154.705582,42.434040 154.646469,43.195892 154.587357,43.957745 
z"/>
<path fill="#02214A" opacity="1.000000" stroke="none" 
	d="
M125.990509,55.155678 
	C125.782295,56.740185 126.048561,58.634830 125.260567,59.840363 
	C123.897964,61.924980 120.557266,60.465244 119.412140,57.275421 
	C119.735718,56.221222 120.296844,55.413921 121.267029,54.317970 
	C121.872269,54.036518 122.068451,54.043720 122.239990,54.340881 
	C123.473724,54.805794 124.732117,54.980736 125.990509,55.155678 
z"/>
<path fill="#1D4B74" opacity="1.000000" stroke="none" 
	d="
M148.012848,24.520058 
	C148.102875,24.842131 148.131195,25.169540 147.886597,25.844597 
	C147.439743,26.322910 147.242218,26.501139 146.748169,26.768299 
	C145.966568,26.811478 145.519592,26.807949 145.096405,26.679928 
	C145.120209,26.555435 145.126511,26.302017 145.304123,25.843126 
	C145.324860,24.761406 145.167984,24.138577 145.016357,23.188519 
	C145.660965,21.194115 146.300323,19.526937 146.939682,17.859760 
	C148.037598,17.169243 149.135513,16.478724 150.629059,16.117188 
	C151.085587,16.758331 151.146500,17.070490 151.147446,17.682762 
	C151.010712,18.594015 150.933945,19.205153 150.846375,19.838039 
	C150.835571,19.859793 150.800186,19.893055 150.604584,20.038734 
	C150.205170,20.561813 150.304611,20.824827 150.725266,21.169203 
	C150.743225,21.364950 150.463196,21.640888 150.103455,21.507927 
	C149.166779,22.423332 148.589813,23.471695 148.012848,24.520058 
z"/>
<path fill="#1A3A5D" opacity="1.000000" stroke="none" 
	d="
M149.013245,58.971210 
	C148.651138,59.112415 148.289047,59.253624 147.582642,59.332157 
	C147.238358,59.269485 147.028320,59.025372 147.060043,58.593945 
	C146.986710,56.727234 146.881653,55.291950 146.850403,53.567375 
	C146.935410,52.881504 146.946625,52.484928 146.989838,51.767952 
	C147.046188,51.234276 147.070541,51.021004 147.392151,50.872437 
	C148.090439,50.902485 148.491470,50.867825 149.162262,50.839279 
	C149.789108,50.867985 150.146179,50.890568 150.959229,50.970684 
	C151.714905,51.085064 152.014618,51.141911 152.236053,51.490715 
	C152.152069,52.176170 152.146362,52.569675 152.036102,52.952187 
	C151.931564,52.941196 151.734055,53.013206 151.601990,53.078388 
	C151.306381,53.253769 151.146530,53.369095 150.913986,53.886738 
	C150.841949,54.553535 150.846298,54.823143 150.664551,55.363831 
	C149.990067,56.747013 149.501663,57.859116 149.013245,58.971210 
z"/>
<path fill="#295070" opacity="1.000000" stroke="none" 
	d="
M151.207397,17.382648 
	C151.146500,17.070490 151.085587,16.758331 150.933121,15.977917 
	C152.840744,15.534791 156.048370,9.492936 155.995575,17.005871 
	C155.249847,18.238632 155.133194,19.127104 155.016525,20.015574 
	C155.016525,20.015574 154.795654,20.186720 154.679871,20.107086 
	C154.564102,20.027451 154.553452,19.986320 154.154480,19.975338 
	C153.243088,19.820070 152.730698,19.675789 152.141220,19.285828 
	C151.778564,18.487650 151.492981,17.935150 151.207397,17.382648 
z"/>
<path fill="#153D67" opacity="1.000000" stroke="none" 
	d="
M155.959564,47.968815 
	C155.957520,49.632599 155.955460,51.296379 155.429520,53.101341 
	C154.617401,53.160843 154.329193,53.079170 154.027252,52.775169 
	C153.896561,52.274586 153.838913,51.984531 153.876068,51.315811 
	C153.925690,50.703636 153.939880,50.458328 154.152405,49.955719 
	C152.500107,49.551155 150.649445,49.403889 148.551514,49.272968 
	C147.891785,49.568359 147.479340,49.847404 147.037796,49.806290 
	C146.983047,49.058334 146.957413,48.630539 147.316177,48.152393 
	C148.637817,47.724854 149.575043,47.347664 150.524445,46.961388 
	C150.536636,46.952297 150.516418,46.966877 150.923706,46.998150 
	C152.873856,47.342552 154.416718,47.655682 155.959564,47.968815 
z"/>
<path fill="#456B92" opacity="1.000000" stroke="none" 
	d="
M154.040970,52.997494 
	C154.329193,53.079170 154.617401,53.160843 155.280273,53.491077 
	C153.676971,55.501865 151.699005,57.264095 149.367157,58.998772 
	C149.501663,57.859116 149.990067,56.747013 150.903809,55.259712 
	C151.544983,54.622414 151.760803,54.360313 151.964569,53.816101 
	C151.879684,53.360401 151.806870,53.186806 151.734055,53.013206 
	C151.734055,53.013206 151.931564,52.941196 152.352264,52.965721 
	C153.195633,52.992661 153.618301,52.995075 154.040970,52.997494 
z"/>
<path fill="#154D76" opacity="1.000000" stroke="none" 
	d="
M125.869278,29.822882 
	C125.961502,29.483194 126.168747,29.242649 126.740997,29.469013 
	C127.035263,30.481932 127.079544,31.127079 127.102142,32.090607 
	C127.353325,32.952011 127.626190,33.495041 127.957779,34.368980 
	C128.664169,35.849827 129.311829,36.999756 129.640320,38.194954 
	C129.256271,38.830902 129.191406,39.421585 129.047882,40.207161 
	C128.969208,40.402054 128.794342,40.784302 128.516937,40.807758 
	C127.871078,40.834724 127.502632,40.838234 127.093994,40.448647 
	C126.644661,38.370201 126.235519,36.684853 125.879829,34.570942 
	C125.911949,32.702549 125.890617,31.262716 125.869278,29.822882 
z"/>
<path fill="#1B5A8A" opacity="1.000000" stroke="none" 
	d="
M127.899063,34.038071 
	C127.626190,33.495041 127.353325,32.952011 127.360519,31.897404 
	C127.703430,30.516197 127.766289,29.646566 127.829155,28.776936 
	C129.005493,28.113716 130.181839,27.450495 131.624359,27.196123 
	C131.594177,28.444380 131.297775,29.283787 131.012207,30.354618 
	C131.023041,30.586046 130.951202,31.045176 130.683823,31.271318 
	C130.276535,32.658726 130.136612,33.819992 129.759430,34.904789 
	C128.981125,34.564903 128.440094,34.301487 127.899063,34.038071 
z"/>
<path fill="#1A3A5D" opacity="1.000000" stroke="none" 
	d="
M146.597565,17.914957 
	C146.300323,19.526937 145.660965,21.194115 144.784973,23.349922 
	C144.379974,23.922005 144.211578,24.005459 143.766113,23.921934 
	C143.312439,23.138245 143.135864,22.521534 142.959290,21.904819 
	C144.057999,20.593264 145.156708,19.281710 146.597565,17.914957 
z"/>
<path fill="#456885" opacity="1.000000" stroke="none" 
	d="
M120.793137,53.214523 
	C120.221230,51.035751 119.649323,48.856979 119.478546,46.302711 
	C119.879662,45.927212 120.277115,46.226147 120.346863,46.487160 
	C120.933220,47.161926 121.449829,47.575676 122.235046,47.994171 
	C122.682541,48.007362 122.861435,48.015808 122.983482,48.341545 
	C122.966049,49.085102 123.005470,49.511372 122.793716,50.077324 
	C122.374565,50.745174 122.206589,51.273342 121.989960,51.888321 
	C121.941322,51.975124 121.785110,52.098431 121.578415,52.242805 
	C121.178864,52.662964 120.986000,52.938744 120.793137,53.214523 
z"/>
<path fill="#437BAA" opacity="1.000000" stroke="none" 
	d="
M150.892105,34.959564 
	C151.600388,34.628483 152.308685,34.297394 153.319687,33.987663 
	C154.448563,34.842762 155.274719,35.676510 155.567841,36.761932 
	C153.708344,37.042496 152.381882,37.071384 151.022461,36.771557 
	C150.965591,36.224102 150.941666,36.005367 150.910324,35.579895 
	C150.902924,35.373161 150.892105,34.959564 150.892105,34.959564 
z"/>
<path fill="#3E78A3" opacity="1.000000" stroke="none" 
	d="
M142.579559,21.834736 
	C143.135864,22.521534 143.312439,23.138245 143.726028,24.269913 
	C144.350845,25.290586 144.738678,25.796303 145.126511,26.302019 
	C145.126511,26.302017 145.120209,26.555435 145.078308,27.020672 
	C145.042709,27.711975 145.049026,27.938042 145.036545,28.362606 
	C145.017746,28.561106 144.935028,28.951206 144.552872,28.937782 
	C143.406311,28.923023 142.641922,28.921684 141.790085,28.706978 
	C141.512299,28.249758 141.295990,28.031643 141.055176,27.584877 
	C141.070770,27.161484 141.084900,26.992479 141.380371,26.655510 
	C141.430389,25.295134 141.199097,24.102722 140.926971,22.578815 
	C140.836868,22.030176 140.787598,21.813032 140.738342,21.595888 
	C141.225494,21.652143 141.712662,21.708397 142.579559,21.834736 
z"/>
<path fill="#5989AD" opacity="1.000000" stroke="none" 
	d="
M134.179840,67.690384 
	C133.861160,67.288666 133.877045,66.915016 134.179443,66.199829 
	C134.668762,65.838898 134.871582,65.819504 135.074402,65.800117 
	C135.517059,64.008904 135.959732,62.217686 136.888077,60.216927 
	C137.373749,60.007378 137.737015,59.974384 137.743164,60.234020 
	C137.725540,60.665157 137.701767,60.836658 137.421173,61.245178 
	C137.490204,62.720795 137.816086,63.959389 138.141968,65.197983 
	C136.932785,66.038147 135.723602,66.878304 134.179840,67.690384 
z"/>
<path fill="#153D67" opacity="1.000000" stroke="none" 
	d="
M135.154297,24.281460 
	C136.554337,23.513659 137.954361,22.745857 139.710266,22.379436 
	C139.862518,23.859144 139.658905,24.937471 139.466614,26.020327 
	C139.477921,26.024857 139.502975,26.039774 139.225494,25.831175 
	C137.683456,25.175539 136.418869,24.728500 135.154297,24.281460 
z"/>
<path fill="#154D76" opacity="1.000000" stroke="none" 
	d="
M145.092697,60.223709 
	C145.092697,60.223709 145.143707,60.626438 144.671631,60.755245 
	C143.712524,60.768135 143.225494,60.652214 142.762421,60.367249 
	C142.793259,59.949928 142.865952,59.722565 142.981415,59.147507 
	C142.638428,58.185795 142.318481,57.592690 142.012146,56.761684 
	C142.025772,56.523781 142.084854,56.050865 142.312653,55.892174 
	C142.943451,55.124115 143.346451,54.514740 143.738892,54.312683 
	C143.813431,55.258049 143.898514,55.796093 143.994049,56.509697 
	C144.004501,56.685257 144.008682,57.036972 144.052063,57.340515 
	C144.409149,58.152752 144.722885,58.661446 145.042465,59.433968 
	C145.063110,59.873096 145.077911,60.048405 145.092697,60.223709 
z"/>
<path fill="#0C2B4F" opacity="1.000000" stroke="none" 
	d="
M151.055405,37.100277 
	C152.381882,37.071384 153.708344,37.042496 155.434113,37.009865 
	C155.919800,37.432148 156.006210,37.858177 155.660706,38.546944 
	C155.228790,38.809689 154.771851,38.959255 154.396652,38.972393 
	C153.016357,38.968529 152.011276,38.951523 151.006180,38.934521 
	C151.006180,38.934521 150.998215,38.440502 151.006805,37.982086 
	C151.015411,37.523666 151.055405,37.100277 151.055405,37.100277 
z"/>
<path fill="#295070" opacity="1.000000" stroke="none" 
	d="
M138.380402,65.166611 
	C137.816086,63.959389 137.490204,62.720795 137.777206,61.102936 
	C138.610016,60.601032 138.829941,60.478390 139.261536,60.460743 
	C139.759308,60.869305 140.045364,61.172863 139.957245,61.770023 
	C139.379471,62.978771 139.175903,63.893925 138.972321,64.809074 
	C138.972321,64.809074 138.618835,65.135239 138.380402,65.166611 
z"/>
<path fill="#02214A" opacity="1.000000" stroke="none" 
	d="
M120.277115,46.226143 
	C120.277115,46.226147 119.879662,45.927212 119.631332,45.914394 
	C119.417053,45.069843 119.451096,44.238113 120.050362,43.213203 
	C121.052902,43.039646 121.490211,43.059265 121.939690,43.399841 
	C121.965034,44.150665 121.978210,44.580540 121.978455,45.230103 
	C121.965515,45.449799 122.013351,45.887344 121.716728,45.901047 
	C121.039108,46.018547 120.658112,46.122345 120.277115,46.226143 
z"/>
<path fill="#053462" opacity="1.000000" stroke="none" 
	d="
M122.832756,31.805119 
	C123.037323,31.554012 123.241890,31.302908 123.994652,31.176470 
	C124.802773,32.528526 125.062698,33.755913 125.269478,35.317627 
	C125.222725,36.102962 125.229111,36.553974 124.970718,36.976063 
	C124.531273,36.922436 124.356606,36.897724 124.141083,36.545334 
	C123.781723,35.439095 123.463203,34.660538 123.129601,33.530540 
	C123.020607,32.721111 122.926682,32.263115 122.832756,31.805119 
z"/>
<path fill="#6090BA" opacity="1.000000" stroke="none" 
	d="
M134.855667,24.338816 
	C136.418869,24.728500 137.683456,25.175539 138.796204,25.843246 
	C136.824783,26.420238 135.005173,26.776560 133.077591,27.044865 
	C132.969620,26.956846 132.762207,26.770849 132.762207,26.770851 
	C133.360489,25.979290 133.958755,25.187729 134.855667,24.338816 
z"/>
<path fill="#5989AD" opacity="1.000000" stroke="none" 
	d="
M131.892151,66.143913 
	C132.099014,66.685280 132.305878,67.226654 132.767761,67.926208 
	C132.252228,68.722000 131.481659,69.359612 130.391769,69.938034 
	C130.335938,68.784271 130.599426,67.689690 131.083359,66.298203 
	C131.499893,66.048828 131.696014,66.096375 131.892151,66.143913 
z"/>
<path fill="#437BAA" opacity="1.000000" stroke="none" 
	d="
M156.038757,47.643917 
	C154.416718,47.655682 152.873856,47.342552 151.034393,46.750343 
	C150.812775,46.306751 150.887787,46.142239 150.962784,45.977726 
	C151.398987,45.952209 151.835175,45.926697 152.969818,45.923046 
	C154.422058,45.965294 155.175858,45.985676 155.929657,46.006058 
	C155.992416,46.443714 156.055176,46.881367 156.038757,47.643917 
z"/>
<path fill="#3E719F" opacity="1.000000" stroke="none" 
	d="
M122.500702,31.821106 
	C122.926682,32.263115 123.020607,32.721111 123.083733,33.568783 
	C123.052940,33.958458 122.970741,34.038139 122.751907,34.147125 
	C122.265839,34.458569 122.068108,34.714703 121.717667,35.016212 
	C121.495453,35.007915 121.051178,34.987637 121.035126,35.027119 
	C121.019066,35.066601 120.934364,35.076145 120.859497,34.827103 
	C120.509850,34.378288 120.235069,34.178509 119.960289,33.978733 
	C120.696404,33.264854 121.432526,32.550972 122.500702,31.821106 
z"/>
<path fill="#6090BA" opacity="1.000000" stroke="none" 
	d="
M139.455292,26.015795 
	C139.658905,24.937471 139.862518,23.859144 140.054581,22.362080 
	C140.043030,21.943342 140.316360,21.617861 140.527344,21.606874 
	C140.787598,21.813032 140.836868,22.030176 140.922165,22.972931 
	C141.005127,24.740185 141.052078,25.781830 141.099030,26.823477 
	C141.084900,26.992479 141.070770,27.161484 140.781616,27.593967 
	C140.328629,27.897552 140.150650,27.937660 139.878937,27.652224 
	C139.675247,26.889719 139.565277,26.452757 139.455292,26.015795 
z"/>
<path fill="#4D7696" opacity="1.000000" stroke="none" 
	d="
M139.289398,64.791466 
	C139.175903,63.893925 139.379471,62.978771 140.115082,62.085785 
	C141.013977,62.315605 141.380844,62.523254 141.846283,62.836128 
	C141.944855,62.941345 142.141647,63.152126 142.141647,63.152130 
	C141.296600,63.692707 140.451553,64.233276 139.289398,64.791466 
z"/>
<path fill="#4D86AC" opacity="1.000000" stroke="none" 
	d="
M125.322624,34.983303 
	C125.062698,33.755913 124.802773,32.528526 124.229370,31.090599 
	C124.371803,30.559635 124.827721,30.239208 125.576462,29.870831 
	C125.890617,31.262716 125.911949,32.702549 125.754677,34.567650 
	C125.576073,34.992920 125.322624,34.983303 125.322624,34.983303 
z"/>
<path fill="#0B2F5A" opacity="1.000000" stroke="none" 
	d="
M120.138763,40.924889 
	C120.138763,40.924889 119.878479,40.583969 119.995438,39.949394 
	C120.024155,38.464737 119.935921,37.614662 119.847687,36.764584 
	C119.804253,36.371132 119.760826,35.977676 120.075539,35.314289 
	C120.600571,35.054951 120.767471,35.065548 120.934364,35.076145 
	C120.934364,35.076145 121.019066,35.066601 121.005882,35.420238 
	C121.055405,36.818939 121.118103,37.864006 121.115051,39.245335 
	C120.944664,40.024391 120.840019,40.467182 120.585678,40.892052 
	C120.435989,40.874134 120.138763,40.924889 120.138763,40.924889 
z"/>
<path fill="#4D7696" opacity="1.000000" stroke="none" 
	d="
M142.738480,60.536293 
	C143.225494,60.652214 143.712524,60.768135 144.572891,60.932587 
	C144.226761,61.657719 143.507294,62.334316 142.464737,63.081520 
	C142.141647,63.152126 141.944855,62.941345 141.959717,62.562027 
	C142.229218,61.633904 142.483856,61.085102 142.738480,60.536293 
z"/>
<path fill="#094B78" opacity="1.000000" stroke="none" 
	d="
M145.317993,60.175564 
	C145.077911,60.048405 145.063110,59.873096 145.011475,59.109753 
	C144.652649,58.026798 144.330658,57.531887 144.008682,57.036972 
	C144.008682,57.036972 144.004501,56.685257 144.238083,56.463303 
	C144.768814,56.075848 144.982513,55.836075 145.404938,55.608234 
	C145.838181,56.717716 145.979233,57.740986 146.080627,59.065968 
	C146.019775,59.569435 145.998596,59.771194 145.977402,59.972954 
	C145.977402,59.972954 145.543289,60.127419 145.317993,60.175564 
z"/>
<path fill="#437BAA" opacity="1.000000" stroke="none" 
	d="
M154.792053,43.707718 
	C154.646469,43.195892 154.705582,42.434040 155.190735,41.407265 
	C155.616791,41.142338 156.025436,41.128601 156.025452,41.128605 
	C155.682556,41.904968 155.339661,42.681328 154.792053,43.707718 
z"/>
<path fill="#5F9DC5" opacity="1.000000" stroke="none" 
	d="
M131.001389,30.123192 
	C131.297775,29.283787 131.594177,28.444380 131.967346,27.274933 
	C132.044113,26.944889 132.386475,26.789557 132.574341,26.780203 
	C132.762207,26.770849 132.969620,26.956846 133.009766,27.434227 
	C132.683746,28.832247 132.317566,29.752884 131.758026,30.459721 
	C131.376923,30.205009 131.189148,30.164101 131.001389,30.123192 
z"/>
<path fill="#2A5E88" opacity="1.000000" stroke="none" 
	d="
M120.086121,41.267235 
	C120.138763,40.924889 120.435989,40.874134 120.918671,40.928238 
	C121.621849,41.002552 121.842354,41.022755 122.047325,41.382393 
	C121.997040,42.174179 121.962280,42.626534 121.927528,43.078884 
	C121.490211,43.059265 121.052902,43.039646 120.286469,43.004539 
	C119.982735,42.529232 120.008110,42.069408 120.086121,41.267235 
z"/>
<path fill="#042D5F" opacity="1.000000" stroke="none" 
	d="
M120.822838,53.431587 
	C120.986000,52.938744 121.178864,52.662964 121.699425,52.455750 
	C122.106293,53.033188 122.185471,53.542053 122.264641,54.050919 
	C122.068451,54.043720 121.872269,54.036518 121.381668,54.023987 
	C121.087257,54.018654 120.852539,53.648651 120.822838,53.431587 
z"/>
<path fill="#5989AD" opacity="1.000000" stroke="none" 
	d="
M155.360046,19.915989 
	C155.133194,19.127104 155.249847,18.238632 155.721695,17.183353 
	C155.952423,17.949831 155.827988,18.883118 155.360046,19.915989 
z"/>
<path fill="#2A5E88" opacity="1.000000" stroke="none" 
	d="
M119.739082,37.035610 
	C119.935921,37.614662 120.024155,38.464737 120.019455,39.736282 
	C119.827843,39.207375 119.729156,38.257008 119.739082,37.035610 
z"/>
<path fill="#437BAA" opacity="1.000000" stroke="none" 
	d="
M127.600586,28.848503 
	C127.766289,29.646566 127.703430,30.516197 127.382202,31.579029 
	C127.079544,31.127079 127.035263,30.481932 126.981827,29.510689 
	C126.972664,29.184595 127.372017,28.920071 127.600586,28.848503 
z"/>
<path fill="#125583" opacity="1.000000" stroke="none" 
	d="
M155.966782,45.746391 
	C155.175858,45.985676 154.422058,45.965294 153.295074,45.881386 
	C153.461334,45.548576 154.000778,45.279285 154.851440,44.977211 
	C155.443054,45.125191 155.723480,45.305958 155.966782,45.746391 
z"/>
<path fill="#2A5E88" opacity="1.000000" stroke="none" 
	d="
M120.859497,34.827103 
	C120.767471,35.065548 120.600571,35.054951 120.182983,35.034775 
	C119.629120,34.843513 119.567619,34.575348 119.854050,34.099716 
	C120.235069,34.178509 120.509850,34.378288 120.859497,34.827103 
z"/>
<path fill="#11406C" opacity="1.000000" stroke="none" 
	d="
M154.553452,19.986319 
	C154.553452,19.986320 154.564102,20.027451 154.573380,20.016651 
	C154.706696,20.423872 154.830734,20.841894 154.640930,21.588421 
	C154.327087,21.916925 153.870926,21.949532 153.786667,21.577600 
	C153.986084,20.799217 154.269760,20.392767 154.553452,19.986319 
z"/>
<path fill="#3E78A3" opacity="1.000000" stroke="none" 
	d="
M153.870926,21.949532 
	C153.870926,21.949532 154.327087,21.916925 154.555771,21.918610 
	C154.844803,22.089939 154.905136,22.259583 155.009262,22.695751 
	C154.879913,23.018717 154.706787,23.075155 154.253555,22.802380 
	C153.973541,22.288631 153.973633,22.104095 153.955566,21.952892 
	C153.937393,21.986221 153.870926,21.949532 153.870926,21.949532 
z"/>
<path fill="#154D76" opacity="1.000000" stroke="none" 
	d="
M146.241196,60.068604 
	C145.998596,59.771194 146.019775,59.569435 146.313568,59.109573 
	C146.586166,58.851467 147.028320,59.025372 147.028320,59.025372 
	C147.028320,59.025372 147.238358,59.269485 147.303833,59.417606 
	C147.081192,59.765236 146.793091,59.964741 146.241196,60.068604 
z"/>
<path fill="#0B2F5A" opacity="1.000000" stroke="none" 
	d="
M156.108215,40.831451 
	C156.025436,41.128601 155.616791,41.142338 155.421478,41.200981 
	C155.226151,41.259621 155.101944,41.114494 155.039536,40.805206 
	C154.977127,40.495922 154.993958,40.018013 155.213318,40.046631 
	C155.432663,40.075253 155.869858,40.007545 155.869858,40.007545 
	C155.976913,40.183132 156.083969,40.358715 156.108215,40.831451 
z"/>
<path fill="#437BAA" opacity="1.000000" stroke="none" 
	d="
M155.830780,39.722534 
	C155.869858,40.007545 155.432663,40.075253 155.144379,39.784763 
	C154.828003,39.315933 154.799927,39.137596 154.771851,38.959255 
	C154.771851,38.959255 155.228790,38.809689 155.467194,38.839165 
	C155.734268,39.058262 155.762970,39.247890 155.830780,39.722534 
z"/>
<path fill="#4081AE" opacity="1.000000" stroke="none" 
	d="
M122.239990,54.340881 
	C122.185471,53.542053 122.106293,53.033188 121.906113,52.311378 
	C121.785110,52.098431 121.941322,51.975124 122.300385,51.967796 
	C123.746414,52.615196 124.833389,53.269920 126.166565,53.865341 
	C126.611885,53.544575 126.811012,53.283115 127.006912,53.009232 
	C127.003685,52.996807 127.024582,53.014198 127.368393,53.010796 
	C128.171722,53.022953 128.631241,53.038509 129.081970,53.298019 
	C129.073181,53.541973 129.070999,54.030190 128.907242,54.201103 
	C128.509888,54.586510 128.254547,54.770927 127.977486,54.925266 
	C127.531693,54.946434 127.085907,54.967602 126.315308,55.072224 
	C124.732117,54.980736 123.473724,54.805794 122.239990,54.340881 
z"/>
<path fill="#1F4A74" opacity="1.000000" stroke="none" 
	d="
M131.887329,65.732590 
	C131.696014,66.096375 131.499893,66.048828 131.002655,65.952530 
	C130.508041,63.612141 126.596344,61.549671 130.738159,59.176208 
	C131.199112,59.333157 131.513779,59.658569 131.502014,59.661736 
	C131.490265,59.664902 131.499283,59.705353 131.499283,59.705353 
	C131.627014,61.577324 131.754745,63.449295 131.887329,65.732590 
z"/>
<path fill="#02214A" opacity="1.000000" stroke="none" 
	d="
M128.018799,55.253365 
	C128.254547,54.770927 128.509888,54.586510 129.141785,54.191566 
	C129.540070,54.011124 130.009766,53.992619 130.137970,54.277409 
	C130.922928,55.056831 131.579697,55.551468 132.164658,56.328793 
	C132.041702,56.993862 131.990540,57.376240 131.709900,57.847343 
	C131.480438,57.936073 130.993454,58.006348 130.993454,58.006348 
	C130.015671,57.198055 129.037888,56.389763 128.018799,55.253365 
z"/>
<path fill="#437BAA" opacity="1.000000" stroke="none" 
	d="
M131.002930,58.249557 
	C130.993454,58.006348 131.480438,57.936073 131.734009,58.172546 
	C132.014145,58.623783 132.040680,58.838539 132.067200,59.053291 
	C132.067200,59.053291 131.884583,59.427021 131.727203,59.550560 
	C131.569839,59.674099 131.513779,59.658569 131.513779,59.658569 
	C131.513779,59.658569 131.199112,59.333157 131.062103,59.152412 
	C130.925095,58.971664 131.012390,58.492767 131.002930,58.249557 
z"/>
<path fill="#032752" opacity="1.000000" stroke="none" 
	d="
M141.877518,28.920345 
	C142.641922,28.921684 143.406311,28.923023 144.878418,28.996876 
	C146.058029,29.712070 146.529938,30.354746 147.001846,30.997423 
	C147.001846,30.997425 146.507874,30.997719 145.885101,30.995975 
	C143.618820,31.854532 141.975311,32.714832 140.331802,33.575130 
	C140.902664,33.442551 141.473526,33.309967 142.044373,33.177387 
	C142.733414,34.516991 143.422455,35.856598 144.064270,37.390545 
	C144.017029,37.584885 143.871552,37.957481 143.590515,37.994583 
	C142.859192,38.336151 142.408890,38.640614 141.716339,38.775566 
	C140.643829,38.211201 139.622849,37.301147 139.021149,37.523849 
	C137.563553,38.063335 136.301285,39.130527 135.018829,39.638107 
	C135.737671,37.808605 136.398010,36.326050 137.029633,34.564148 
	C136.339218,33.697582 135.677490,33.110359 135.503082,32.562160 
	C136.296448,32.489182 136.602509,32.377174 137.126892,32.163078 
	C137.649551,31.929329 137.934174,31.763723 138.493088,31.653263 
	C139.476196,31.099491 140.165283,30.456621 141.035461,29.676975 
	C141.454285,29.352137 141.674606,29.145519 141.877518,28.920345 
z"/>
<path fill="#0C365B" opacity="1.000000" stroke="none" 
	d="
M144.111496,37.196209 
	C143.422455,35.856598 142.733414,34.516991 142.044373,33.177387 
	C141.473526,33.309967 140.902664,33.442551 140.331802,33.575130 
	C141.975311,32.714832 143.618820,31.854532 145.638123,30.997717 
	C146.013901,31.001202 146.008453,31.500418 146.090424,31.921219 
	C146.452896,32.228992 146.733368,32.115963 147.013855,32.002941 
	C148.118439,32.890877 149.223038,33.778812 150.609863,34.813156 
	C150.892105,34.959564 150.902924,35.373161 150.701782,35.736374 
	C150.333755,36.397617 150.166870,36.695644 149.692627,36.995663 
	C148.749832,36.570534 148.114380,36.143417 147.507278,35.735344 
	C147.013306,36.467720 146.494736,37.236561 145.849625,37.748619 
	C145.185883,37.393295 144.648697,37.294754 144.111496,37.196209 
z"/>
<path fill="#11406C" opacity="1.000000" stroke="none" 
	d="
M149.074463,27.929338 
	C150.113403,27.387798 151.152359,26.846260 152.677429,26.051332 
	C150.598312,30.022120 150.598312,30.022120 148.998230,28.367100 
	C148.988373,28.015676 149.074463,27.929338 149.074463,27.929338 
z"/>
<path fill="#90C2E0" opacity="1.000000" stroke="none" 
	d="
M154.154480,19.975334 
	C154.269760,20.392767 153.986084,20.799217 153.786667,21.577600 
	C153.870926,21.949532 153.937393,21.986221 153.687469,21.774973 
	C152.923599,21.902531 152.409653,22.241337 151.895706,22.580143 
	C151.569077,22.411226 151.242432,22.242306 150.667084,21.898762 
	C150.418365,21.724140 150.463196,21.640888 150.463196,21.640888 
	C150.463196,21.640888 150.743225,21.364950 150.795837,21.001335 
	C150.899567,20.385206 150.883484,20.136984 150.800186,19.893055 
	C150.800186,19.893055 150.835571,19.859793 151.204346,19.849148 
	C151.788193,19.736170 152.003250,19.633841 152.218292,19.531509 
	C152.730698,19.675789 153.243088,19.820070 154.154480,19.975334 
z"/>
<path fill="#0C365B" opacity="1.000000" stroke="none" 
	d="
M147.254578,30.812765 
	C146.529938,30.354746 146.058029,29.712070 145.260559,29.010300 
	C144.935028,28.951206 145.017746,28.561106 145.369431,28.308002 
	C146.175018,27.610466 146.628906,27.166033 147.082794,26.721596 
	C147.242218,26.501139 147.439743,26.322910 147.851578,26.089622 
	C148.027771,25.992342 148.051773,26.022123 148.016724,26.400551 
	C148.022919,27.260172 148.064194,27.741364 148.105469,28.222557 
	C147.906067,29.024408 147.706680,29.826260 147.254578,30.812765 
z"/>
<path fill="#3B7AAC" opacity="1.000000" stroke="none" 
	d="
M150.103455,21.507927 
	C150.463196,21.640888 150.418365,21.724140 150.439987,21.707949 
	C149.891357,22.437853 149.321106,23.183950 148.381836,24.225052 
	C148.589813,23.471695 149.166779,22.423332 150.103455,21.507927 
z"/>
<path fill="#11406C" opacity="1.000000" stroke="none" 
	d="
M151.981522,22.865410 
	C152.409653,22.241337 152.923599,21.902531 153.705643,21.741642 
	C153.973633,22.104095 153.973541,22.288631 153.985565,22.749599 
	C153.997711,23.026033 153.994400,22.992096 153.770050,23.108543 
	C153.311661,23.496376 153.077606,23.767763 152.843552,24.039152 
	C152.584808,23.742994 152.326080,23.446835 151.981522,22.865410 
z"/>
<path fill="#11406C" opacity="1.000000" stroke="none" 
	d="
M148.304382,28.187199 
	C148.064194,27.741364 148.022919,27.260172 148.016693,26.419922 
	C148.382126,26.489290 148.712524,26.917713 149.058685,27.637737 
	C149.074463,27.929338 148.988373,28.015676 148.946838,28.063190 
	C148.905304,28.110704 148.503296,28.151840 148.304382,28.187199 
z"/>
<path fill="#3E78A3" opacity="1.000000" stroke="none" 
	d="
M153.001953,24.258358 
	C153.077606,23.767763 153.311661,23.496376 153.787308,23.106823 
	C153.739380,23.484959 153.449860,23.981262 153.001953,24.258358 
z"/>
<path fill="#032752" opacity="1.000000" stroke="none" 
	d="
M146.760498,32.001427 
	C146.733368,32.115963 146.452896,32.228992 146.086426,32.170807 
	C146.169357,31.999706 146.338257,31.999813 146.760498,32.001427 
z"/>
<path fill="#2C6798" opacity="1.000000" stroke="none" 
	d="
M132.305649,58.889381 
	C132.040680,58.838539 132.014145,58.623783 131.963486,58.083820 
	C131.990540,57.376240 132.041702,56.993862 132.385590,56.203346 
	C133.086395,55.487778 133.494476,55.180344 133.943848,55.156845 
	C133.991119,55.631969 133.997147,55.823154 134.012604,56.264545 
	C134.029404,56.681511 134.036789,56.848267 134.044174,57.015030 
	C133.544159,57.585175 133.044128,58.155323 132.305649,58.889381 
z"/>
<path fill="#437BAA" opacity="1.000000" stroke="none" 
	d="
M137.737015,59.974384 
	C137.737015,59.974384 137.373749,60.007378 137.191589,60.000015 
	C137.281921,59.218689 137.554428,58.444725 138.205994,57.349602 
	C138.585083,57.028446 139.070389,57.015629 139.055481,57.383595 
	C138.986801,58.477066 138.933044,59.202568 138.862976,59.916832 
	C138.846680,59.905586 138.810104,59.881882 138.539368,59.876312 
	C138.091431,59.905289 137.914230,59.939835 137.737015,59.974384 
z"/>
<path fill="#1F4A74" opacity="1.000000" stroke="none" 
	d="
M135.019073,65.529633 
	C134.871582,65.819504 134.668762,65.838898 134.165436,65.916107 
	C133.784897,65.472206 133.704895,64.970474 133.624878,64.468750 
	C134.071167,64.732216 134.517456,64.995682 135.019073,65.529633 
z"/>
<path fill="#295070" opacity="1.000000" stroke="none" 
	d="
M139.070389,57.015629 
	C139.070389,57.015629 138.585083,57.028446 138.345459,57.065102 
	C137.914505,56.821732 137.723175,56.541710 137.279312,55.861687 
	C136.991959,55.264717 136.957153,55.067749 137.266327,54.862854 
	C138.025757,54.665367 138.441193,54.475807 138.911728,54.745384 
	C138.983871,55.818745 139.000931,56.432972 139.020355,57.022285 
	C139.022705,56.997375 139.070389,57.015629 139.070389,57.015629 
z"/>
<path fill="#3B7AAC" opacity="1.000000" stroke="none" 
	d="
M136.139587,56.180393 
	C135.790115,56.617683 135.440628,57.054974 135.160751,56.960526 
	C135.395966,56.266453 135.561584,56.104115 135.780334,55.949631 
	C135.833466,55.957481 135.950592,55.937553 135.998505,55.997746 
	C136.046417,56.057938 136.139587,56.180393 136.139587,56.180393 
z"/>
<path fill="#02214A" opacity="1.000000" stroke="none" 
	d="
M131.502014,59.661736 
	C131.513779,59.658569 131.569839,59.674099 131.581757,59.699226 
	C131.593689,59.724350 131.541733,59.703220 131.520508,59.704285 
	C131.499283,59.705353 131.490265,59.664902 131.502014,59.661736 
z"/>
<path fill="#053462" opacity="1.000000" stroke="none" 
	d="
M135.727219,55.941780 
	C135.561584,56.104115 135.395966,56.266453 135.034424,56.717339 
	C134.838486,57.005894 134.440659,57.005417 134.242416,57.010223 
	C134.036789,56.848267 134.029404,56.681511 134.441772,56.202705 
	C135.150070,55.907696 135.438644,55.924736 135.727219,55.941780 
z"/>
<path fill="#3B7AAC" opacity="1.000000" stroke="none" 
	d="
M136.922363,54.870781 
	C136.957153,55.067749 136.991959,55.264717 137.042465,55.761719 
	C137.058151,56.061752 136.606354,56.199215 136.372971,56.189804 
	C136.139587,56.180393 136.046417,56.057938 136.170959,55.561184 
	C136.421127,54.777664 136.546738,54.490898 136.735565,54.370537 
	C136.798752,54.536942 136.922363,54.870781 136.922363,54.870781 
z"/>
<path fill="#2C6798" opacity="1.000000" stroke="none" 
	d="
M145.976166,38.005402 
	C146.494736,37.236561 147.013306,36.467720 147.507278,35.735344 
	C148.114380,36.143417 148.749832,36.570534 149.711929,37.308079 
	C150.045578,37.827015 150.052597,38.035526 150.059601,38.244038 
	C150.807663,41.978374 148.080215,41.640995 145.449829,41.943245 
	C145.073822,42.028645 144.935059,41.840775 144.970276,41.508667 
	C145.341354,40.104153 145.677216,39.031754 146.014328,37.979321 
	C146.015564,37.999290 145.976166,38.005402 145.976166,38.005402 
z"/>
<path fill="#053462" opacity="1.000000" stroke="none" 
	d="
M150.780518,45.793427 
	C150.887787,46.142239 150.812775,46.306751 150.627090,46.719070 
	C150.516418,46.966877 150.536636,46.952297 150.088226,46.945702 
	C148.782089,46.905125 147.924332,46.871147 147.072632,46.642761 
	C147.078659,46.448357 147.127213,46.062397 147.353729,46.026886 
	C147.580231,45.991379 148.038666,46.000557 148.038666,46.000557 
	C148.607513,45.124054 149.176346,44.247551 150.164337,42.725182 
	C150.373322,44.114208 150.485779,44.861664 150.780518,45.793427 
z"/>
<path fill="#093B6B" opacity="1.000000" stroke="none" 
	d="
M154.396652,38.972393 
	C154.799927,39.137596 154.828003,39.315933 154.925018,39.756142 
	C154.993958,40.018013 154.977127,40.495922 154.975128,40.734680 
	C153.746353,40.505817 152.519577,40.038193 151.149475,39.252544 
	C152.011276,38.951523 153.016357,38.968529 154.396652,38.972393 
z"/>
<path fill="#437BAA" opacity="1.000000" stroke="none" 
	d="
M145.174835,42.087250 
	C145.173431,42.529461 145.070999,42.913059 144.696960,43.757896 
	C144.240799,44.527035 144.056259,44.834942 143.708466,45.062550 
	C143.299530,44.935150 143.085281,44.826210 142.969391,44.345901 
	C143.087082,43.831459 143.137863,43.626541 143.409180,43.224174 
	C144.064835,42.631405 144.499939,42.236088 144.935059,41.840775 
	C144.935059,41.840775 145.073822,42.028645 145.174835,42.087250 
z"/>
<path fill="#154D76" opacity="1.000000" stroke="none" 
	d="
M143.871719,45.142849 
	C144.056259,44.834942 144.240799,44.527035 144.633698,44.049023 
	C145.072815,44.177204 145.303558,44.475487 145.676849,45.079575 
	C145.819397,45.385372 145.592972,45.736546 145.323639,45.808052 
	C144.872925,45.925716 144.691528,45.971874 144.443069,46.057064 
	C144.376007,46.096096 144.225891,46.056713 144.086609,45.847740 
	C143.922134,45.473465 143.896927,45.308159 143.871719,45.142849 
z"/>
<path fill="#4081AE" opacity="1.000000" stroke="none" 
	d="
M150.288208,38.167152 
	C150.052597,38.035526 150.045578,37.827015 150.019287,37.306087 
	C150.166870,36.695644 150.333755,36.397617 150.709183,35.943111 
	C150.941666,36.005367 150.965591,36.224102 151.022461,36.771557 
	C151.055405,37.100277 151.015411,37.523666 150.996384,37.735260 
	C150.977356,37.946857 150.516800,38.090263 150.288208,38.167152 
z"/>
<path fill="#4686B2" opacity="1.000000" stroke="none" 
	d="
M145.592972,45.736546 
	C145.592972,45.736546 145.819397,45.385372 145.931152,45.208881 
	C146.625687,45.166798 147.208435,45.301201 147.914932,45.718079 
	C148.038666,46.000557 147.580231,45.991379 146.967224,45.958618 
	C146.100464,45.862755 145.846710,45.799652 145.592972,45.736546 
z"/>
<path fill="#4D86AC" opacity="1.000000" stroke="none" 
	d="
M152.141220,19.285830 
	C152.003250,19.633841 151.788193,19.736170 151.215149,19.827394 
	C150.933945,19.205153 151.010712,18.594015 151.147446,17.682766 
	C151.492981,17.935150 151.778564,18.487650 152.141220,19.285830 
z"/>
<path fill="#3B7AAC" opacity="1.000000" stroke="none" 
	d="
M146.748169,26.768301 
	C146.628906,27.166033 146.175018,27.610466 145.388229,28.109505 
	C145.049026,27.938042 145.042709,27.711975 145.054504,27.145164 
	C145.519592,26.807949 145.966568,26.811478 146.748169,26.768301 
z"/>
<path fill="#6CA7CA" opacity="1.000000" stroke="none" 
	d="
M145.304123,25.843128 
	C144.738678,25.796303 144.350845,25.290586 144.003113,24.436892 
	C144.211578,24.005459 144.379974,23.922005 144.779739,23.677149 
	C145.167984,24.138577 145.324860,24.761406 145.304123,25.843128 
z"/>
<path fill="#4D86AC" opacity="1.000000" stroke="none" 
	d="
M150.604584,20.038734 
	C150.883484,20.136984 150.899567,20.385206 150.777893,20.805588 
	C150.304611,20.824827 150.205170,20.561813 150.604584,20.038734 
z"/>
<path fill="#062D56" opacity="1.000000" stroke="none" 
	d="
M144.225891,46.056709 
	C144.225891,46.056713 144.376007,46.096096 144.444839,46.458500 
	C145.345291,47.196613 146.176926,47.572323 146.975006,48.007385 
	C146.941452,48.066734 146.931763,48.202740 146.931763,48.202740 
	C146.957413,48.630539 146.983047,49.058334 147.044434,49.976601 
	C147.080170,50.467068 147.094910,50.807728 147.094910,50.807728 
	C147.070541,51.021004 147.046188,51.234276 146.688797,51.732407 
	C145.951385,52.027901 145.547012,52.038540 144.791809,52.035625 
	C143.548767,51.930725 142.656525,51.839378 141.840332,51.755817 
	C142.281036,50.083618 142.641602,48.715519 143.203064,47.126335 
	C143.677933,46.622402 143.951904,46.339554 144.225891,46.056709 
z"/>
<path fill="#4686B2" opacity="1.000000" stroke="none" 
	d="
M148.798782,49.256622 
	C150.649445,49.403889 152.500107,49.551155 153.795380,49.877693 
	C152.327759,50.342358 151.415512,50.627758 150.503265,50.913155 
	C150.146179,50.890568 149.789108,50.867985 149.174652,50.575706 
	C148.877777,49.956219 148.838272,49.606419 148.798782,49.256622 
z"/>
<path fill="#4D86AC" opacity="1.000000" stroke="none" 
	d="
M147.060043,58.593945 
	C147.028320,59.025372 146.586166,58.851467 146.353210,58.807861 
	C145.979233,57.740986 145.838181,56.717716 145.292786,55.154228 
	C144.794800,54.319218 144.701172,54.024426 144.654205,53.716393 
	C144.700897,53.703156 144.729034,53.796040 145.070572,53.801552 
	C145.866943,53.823597 146.321762,53.840134 146.776596,53.856667 
	C146.881653,55.291950 146.986710,56.727234 147.060043,58.593945 
z"/>
<path fill="#90C2E0" opacity="1.000000" stroke="none" 
	d="
M154.027252,52.775169 
	C153.618301,52.995075 153.195633,52.992661 152.456818,52.976715 
	C152.146362,52.569675 152.152069,52.176170 152.490021,51.573322 
	C153.161713,51.470215 153.501160,51.576450 153.840607,51.682686 
	C153.838913,51.984531 153.896561,52.274586 154.027252,52.775169 
z"/>
<path fill="#90C2E0" opacity="1.000000" stroke="none" 
	d="
M146.850403,53.567375 
	C146.321762,53.840134 145.866943,53.823597 145.166382,53.516830 
	C144.994659,52.834129 145.068649,52.441654 145.142624,52.049175 
	C145.547012,52.038540 145.951385,52.027901 146.656799,52.052811 
	C146.946625,52.484928 146.935410,52.881504 146.850403,53.567375 
z"/>
<path fill="#0B2F5A" opacity="1.000000" stroke="none" 
	d="
M153.876068,51.315815 
	C153.501160,51.576450 153.161713,51.470215 152.568298,51.281372 
	C152.014618,51.141911 151.714905,51.085064 150.959229,50.970688 
	C151.415512,50.627758 152.327759,50.342358 153.597031,50.134987 
	C153.939880,50.458328 153.925690,50.703636 153.876068,51.315815 
z"/>
<path fill="#90C2E0" opacity="1.000000" stroke="none" 
	d="
M148.551514,49.272964 
	C148.838272,49.606419 148.877777,49.956219 148.904877,50.569592 
	C148.491470,50.867825 148.090439,50.902485 147.392151,50.872437 
	C147.094910,50.807728 147.080170,50.467068 147.073532,50.296761 
	C147.479340,49.847404 147.891785,49.568359 148.551514,49.272964 
z"/>
<path fill="#0B2F5A" opacity="1.000000" stroke="none" 
	d="
M151.601990,53.078388 
	C151.806870,53.186806 151.879684,53.360401 151.705490,53.684376 
	C151.302460,53.719688 151.146423,53.604622 150.990387,53.489552 
	C151.146530,53.369095 151.306381,53.253769 151.601990,53.078388 
z"/>
<path fill="#4D7696" opacity="1.000000" stroke="none" 
	d="
M150.913986,53.886738 
	C151.146423,53.604622 151.302460,53.719688 151.717560,53.966484 
	C151.760803,54.360313 151.544983,54.622414 151.089890,54.988632 
	C150.846298,54.823143 150.841949,54.553535 150.913986,53.886738 
z"/>
<path fill="#4686B2" opacity="1.000000" stroke="none" 
	d="
M147.066589,46.837170 
	C147.924332,46.871147 148.782089,46.905125 150.076050,46.954788 
	C149.575043,47.347664 148.637817,47.724854 147.316177,48.152393 
	C146.931763,48.202740 146.941452,48.066734 146.983398,47.729431 
	C147.039078,47.207146 147.052826,47.022156 147.066589,46.837170 
z"/>
<path fill="#A8D8FA" opacity="1.000000" stroke="none" 
	d="
M128.794342,40.784302 
	C128.794342,40.784302 128.969208,40.402054 129.203613,40.161533 
	C129.653702,39.842445 129.799576,39.694920 130.085907,39.479683 
	C130.296219,39.480930 130.693100,39.341709 131.047791,39.449276 
	C131.593735,39.401291 131.784988,39.245735 131.980530,39.053925 
	C131.984787,39.017673 131.912766,39.029640 131.696289,39.359879 
	C131.579178,39.933792 131.678543,40.177467 131.530273,40.557159 
	C131.189301,41.410271 131.095947,42.127365 130.674011,42.903217 
	C129.907272,42.942387 129.469116,42.922798 128.987549,42.550446 
	C128.894211,41.726555 128.844284,41.255428 128.794342,40.784302 
z"/>
<path fill="#4686B2" opacity="1.000000" stroke="none" 
	d="
M125.269478,35.317627 
	C125.322624,34.983303 125.576073,34.992920 125.701225,34.996208 
	C126.235519,36.684853 126.644661,38.370201 126.833939,40.500526 
	C126.441200,40.981304 126.268318,41.017109 126.063171,40.691624 
	C125.765770,39.221886 125.500633,38.113434 125.235504,37.004982 
	C125.229111,36.553974 125.222725,36.102962 125.269478,35.317627 
z"/>
<path fill="#3B7AAC" opacity="1.000000" stroke="none" 
	d="
M130.693100,39.341709 
	C130.693100,39.341709 130.296219,39.480930 130.119904,39.146988 
	C129.948898,38.591923 129.954208,38.370800 129.959503,38.149681 
	C129.311829,36.999756 128.664169,35.849827 127.957779,34.368984 
	C128.440094,34.301487 128.981125,34.564903 129.758698,34.913460 
	C129.995224,34.998604 129.986374,34.981731 130.066422,35.244736 
	C130.443375,35.960709 130.740280,36.413673 131.025024,37.123543 
	C131.005142,37.551731 130.997421,37.723015 130.925308,38.258148 
	C130.804962,38.861900 130.749023,39.101807 130.693100,39.341709 
z"/>
<path fill="#6CA7CA" opacity="1.000000" stroke="none" 
	d="
M126.095436,41.052910 
	C126.268318,41.017109 126.441200,40.981304 126.874130,40.893623 
	C127.502632,40.838234 127.871078,40.834724 128.516937,40.807758 
	C128.844284,41.255428 128.894211,41.726555 128.610443,42.593086 
	C127.520050,42.999695 126.763374,43.010895 125.985489,42.693047 
	C126.007996,41.926964 126.051712,41.489937 126.095436,41.052910 
z"/>
<path fill="#90C2E0" opacity="1.000000" stroke="none" 
	d="
M129.640320,38.194954 
	C129.954208,38.370800 129.948898,38.591923 129.909607,39.145737 
	C129.799576,39.694920 129.653702,39.842445 129.282272,39.966637 
	C129.191406,39.421585 129.256271,38.830902 129.640320,38.194954 
z"/>
<path fill="#4081AE" opacity="1.000000" stroke="none" 
	d="
M129.995972,34.989929 
	C130.136612,33.819992 130.276535,32.658726 130.691345,31.604202 
	C131.311493,32.471607 131.656738,33.232273 132.049026,34.244892 
	C132.070908,34.665974 132.045731,34.835102 131.681366,35.012234 
	C130.890228,35.007401 130.438309,34.994568 129.986374,34.981735 
	C129.986374,34.981731 129.995224,34.998604 129.995972,34.989929 
z"/>
<path fill="#053462" opacity="1.000000" stroke="none" 
	d="
M132.001984,33.992935 
	C131.656738,33.232273 131.311493,32.471607 130.958740,31.378059 
	C130.951202,31.045176 131.023041,30.586046 131.012207,30.354618 
	C131.189148,30.164101 131.376923,30.205009 131.759399,30.648510 
	C131.951752,31.310148 131.949402,31.569191 131.950470,32.194721 
	C131.958801,33.048386 131.963715,33.535561 131.983582,34.022060 
	C131.998550,34.021385 132.001984,33.992935 132.001984,33.992935 
z"/>
<path fill="#093B6B" opacity="1.000000" stroke="none" 
	d="
M125.920364,53.924644 
	C124.833389,53.269920 123.746414,52.615196 122.349022,51.880993 
	C122.206589,51.273342 122.374565,50.745174 123.132263,50.085205 
	C123.993874,49.639122 124.265770,49.324844 124.654007,49.022629 
	C124.770355,49.034698 125.001251,48.997040 125.250671,48.998451 
	C125.500092,48.999863 125.998940,49.001141 126.052048,49.184315 
	C126.200401,49.610481 126.350464,49.812832 126.463593,50.379295 
	C126.545914,51.290775 126.719971,51.797497 126.916237,52.483631 
	C126.938446,52.663044 127.024582,53.014198 127.024582,53.014198 
	C127.024582,53.014198 127.003685,52.996807 126.787292,53.108650 
	C126.302292,53.407391 126.085449,53.642109 125.920364,53.924644 
z"/>
<path fill="#1F4A74" opacity="1.000000" stroke="none" 
	d="
M125.001251,48.997040 
	C125.001251,48.997040 124.770355,49.034698 124.459419,48.776348 
	C123.779099,48.353416 123.409721,48.188839 123.040337,48.024261 
	C122.861435,48.015808 122.682541,48.007362 122.259247,47.644318 
	C122.014351,46.822262 122.013847,46.354805 122.013351,45.887344 
	C122.013351,45.887344 121.965515,45.449799 122.231590,45.244896 
	C122.666023,45.025555 122.834389,45.011120 123.081711,45.284176 
	C123.775955,46.046013 124.391220,46.520355 125.010025,47.233337 
	C125.013573,47.471977 125.030495,47.949009 125.016335,48.210823 
	C125.001869,48.647442 125.001564,48.822239 125.001251,48.997040 
z"/>
<path fill="#90C2E0" opacity="1.000000" stroke="none" 
	d="
M121.716728,45.901047 
	C122.013847,46.354805 122.014351,46.822262 121.990646,47.639572 
	C121.449829,47.575676 120.933220,47.161926 120.346863,46.487160 
	C120.658112,46.122345 121.039108,46.018547 121.716728,45.901047 
z"/>
<path fill="#90C2E0" opacity="1.000000" stroke="none" 
	d="
M122.983482,48.341545 
	C123.409721,48.188839 123.779099,48.353416 124.343079,48.764282 
	C124.265770,49.324844 123.993874,49.639122 123.383430,49.945522 
	C123.005470,49.511372 122.966049,49.085102 122.983482,48.341545 
z"/>
<path fill="#042D5F" opacity="1.000000" stroke="none" 
	d="
M141.380371,26.655510 
	C141.052078,25.781830 141.005127,24.740185 140.962982,23.304424 
	C141.199097,24.102722 141.430389,25.295134 141.380371,26.655510 
z"/>
<path fill="#A8D8FA" opacity="1.000000" stroke="none" 
	d="
M141.790085,28.706978 
	C141.674606,29.145519 141.454285,29.352137 140.848541,29.547976 
	C140.289551,29.318707 140.076859,29.103081 139.848404,28.672379 
	C139.854355,28.435879 139.972672,27.977766 139.972672,27.977766 
	C140.150650,27.937660 140.328629,27.897552 140.780167,27.848354 
	C141.295990,28.031643 141.512299,28.249758 141.790085,28.706978 
z"/>
<path fill="#062D56" opacity="1.000000" stroke="none" 
	d="
M137.743164,60.234020 
	C137.914230,59.939835 138.091431,59.905289 138.611725,59.989861 
	C138.954819,60.108974 139.049850,60.355743 139.049850,60.355743 
	C138.829941,60.478390 138.610016,60.601032 138.034042,60.865917 
	C137.701767,60.836658 137.725540,60.665157 137.743164,60.234020 
z"/>
<path fill="#0E3C66" opacity="1.000000" stroke="none" 
	d="
M139.878937,27.652224 
	C139.972672,27.977766 139.854355,28.435879 139.510986,28.724098 
	C138.104919,28.728632 137.042221,28.444944 135.734924,28.354244 
	C134.982925,29.704330 134.475525,30.861427 133.983719,32.008389 
	C133.999298,31.998251 134.029541,31.976662 133.681274,31.922337 
	C132.871017,31.854750 132.409027,31.841490 131.947037,31.828232 
	C131.949402,31.569191 131.951752,31.310148 131.952744,30.862312 
	C132.317566,29.752884 132.683746,28.832247 133.117737,27.522247 
	C135.005173,26.776560 136.824783,26.420238 139.073685,26.051846 
	C139.502975,26.039774 139.477921,26.024857 139.466614,26.020325 
	C139.565277,26.452757 139.675247,26.889719 139.878937,27.652224 
z"/>
<path fill="#072B49" opacity="1.000000" stroke="none" 
	d="
M144.791809,52.035625 
	C145.068649,52.441654 144.994659,52.834129 144.824860,53.511322 
	C144.729034,53.796040 144.700897,53.703156 144.436584,53.740200 
	C144.172272,53.777245 143.749451,53.905369 143.749451,53.905365 
	C143.346451,54.514740 142.943451,55.124115 141.986359,55.860031 
	C141.215118,55.967400 140.997940,55.948219 140.900925,55.651520 
	C140.381119,54.569420 139.741135,53.764839 138.903076,52.686897 
	C137.852203,52.391899 136.999405,52.370262 136.215424,52.138062 
	C136.284210,51.927498 136.072403,51.538376 136.056915,51.540459 
	C136.041443,51.542545 136.016907,51.525734 136.408920,51.403625 
	C137.437531,50.418476 138.074142,49.555435 138.821045,48.527470 
	C138.946503,47.951206 138.961670,47.539864 139.000885,47.107735 
	C139.024902,47.086941 138.992401,47.032333 139.278000,46.915672 
	C139.559784,46.416641 139.555969,46.034271 139.967255,45.542900 
	C141.255646,46.071739 142.128906,46.709579 143.002167,47.347420 
	C142.641602,48.715519 142.281036,50.083618 141.840332,51.755817 
	C142.656525,51.839378 143.548767,51.930725 144.791809,52.035625 
z"/>
<path fill="#02214A" opacity="1.000000" stroke="none" 
	d="
M139.261536,60.460743 
	C139.049850,60.355743 138.954819,60.108974 138.882462,59.995430 
	C138.810104,59.881882 138.846680,59.905586 139.099167,59.887997 
	C139.721405,59.589489 140.091156,59.308571 140.870056,59.176105 
	C141.854294,59.388416 142.429367,59.452271 143.004440,59.516121 
	C142.865952,59.722565 142.793259,59.949928 142.762421,60.367252 
	C142.483856,61.085102 142.229218,61.633904 141.861145,62.456806 
	C141.380844,62.523254 141.013977,62.315605 140.489273,61.792191 
	C140.045364,61.172863 139.759308,60.869305 139.261536,60.460743 
z"/>
<path fill="#062D56" opacity="1.000000" stroke="none" 
	d="
M140.460892,59.027649 
	C140.091156,59.308571 139.721405,59.589489 139.115479,59.899239 
	C138.933044,59.202568 138.986801,58.477066 139.055481,57.383595 
	C139.070389,57.015629 139.022705,56.997375 139.281082,56.961784 
	C139.953217,56.593803 140.366974,56.261417 140.780746,55.929035 
	C140.997940,55.948219 141.215118,55.967400 141.758575,56.018723 
	C142.084854,56.050865 142.025772,56.523781 141.839661,57.029579 
	C141.255997,58.032803 140.858444,58.530224 140.460892,59.027649 
z"/>
<path fill="#4891BA" opacity="1.000000" stroke="none" 
	d="
M140.870056,59.176105 
	C140.858444,58.530224 141.255997,58.032803 141.826050,57.267487 
	C142.318481,57.592690 142.638428,58.185795 142.981415,59.147511 
	C142.429367,59.452271 141.854294,59.388416 140.870056,59.176105 
z"/>
<path fill="#4D7696" opacity="1.000000" stroke="none" 
	d="
M144.052063,57.340515 
	C144.330658,57.531887 144.652649,58.026798 145.005615,58.845928 
	C144.722885,58.661446 144.409149,58.152752 144.052063,57.340515 
z"/>
<path fill="#4D7696" opacity="1.000000" stroke="none" 
	d="
M143.738892,54.312687 
	C143.749451,53.905369 144.172272,53.777245 144.389893,53.753437 
	C144.701172,54.024426 144.794800,54.319218 145.000595,55.068016 
	C144.982513,55.836075 144.768814,56.075848 144.227631,56.287743 
	C143.898514,55.796093 143.813431,55.258049 143.738892,54.312687 
z"/>
<path fill="#4081AE" opacity="1.000000" stroke="none" 
	d="
M123.002747,44.996681 
	C122.834389,45.011120 122.666023,45.025555 122.244530,45.025200 
	C121.978210,44.580540 121.965034,44.150665 121.939690,43.399841 
	C121.962280,42.626534 121.997040,42.174179 122.285217,41.367416 
	C122.538643,41.013008 123.016411,41.003021 123.015099,41.401630 
	C123.012787,42.863243 123.011795,43.926250 123.006653,44.993401 
	C123.002510,44.997543 123.002747,44.996681 123.002747,44.996681 
z"/>
<path fill="#125583" opacity="1.000000" stroke="none" 
	d="
M126.063171,40.691624 
	C126.051712,41.489937 126.007996,41.926964 125.986794,42.937073 
	C126.009308,43.510159 126.008583,43.998596 125.717697,43.796463 
	C124.949242,42.089474 124.471680,40.584614 124.008255,38.710915 
	C124.075577,37.852386 124.128754,37.362701 124.181931,36.873016 
	C124.356606,36.897724 124.531273,36.922436 124.970726,36.976063 
	C125.500633,38.113434 125.765770,39.221886 126.063171,40.691624 
z"/>
<path fill="#3E719F" opacity="1.000000" stroke="none" 
	d="
M124.141083,36.545334 
	C124.128754,37.362701 124.075577,37.852386 124.024178,38.922070 
	C124.025955,39.502068 124.041290,39.927109 123.804169,39.826969 
	C123.357956,39.458172 123.148872,39.189514 122.945328,38.513046 
	C122.957489,36.749538 122.964111,35.393837 122.970741,34.038139 
	C122.970741,34.038139 123.052940,33.958458 123.098808,33.920219 
	C123.463203,34.660538 123.781723,35.439095 124.141083,36.545334 
z"/>
<path fill="#094B78" opacity="1.000000" stroke="none" 
	d="
M122.751907,34.147125 
	C122.964111,35.393837 122.957489,36.749538 122.705200,38.541145 
	C122.459541,38.977055 121.975235,38.992149 121.985123,38.594910 
	C121.976631,37.139950 121.958252,36.082233 121.939873,35.024513 
	C122.068108,34.714703 122.265839,34.458569 122.751907,34.147125 
z"/>
<path fill="#4686B2" opacity="1.000000" stroke="none" 
	d="
M121.717667,35.016212 
	C121.958252,36.082233 121.976631,37.139950 121.785950,38.580574 
	C121.576881,38.963474 121.180809,38.909069 121.180801,38.909069 
	C121.118103,37.864006 121.055405,36.818939 121.021942,35.380756 
	C121.051178,34.987637 121.495453,35.007915 121.717667,35.016212 
z"/>
<path fill="#22679A" opacity="1.000000" stroke="none" 
	d="
M121.115051,39.245335 
	C121.180809,38.909069 121.576881,38.963474 121.776062,38.977814 
	C121.975235,38.992149 122.459541,38.977055 122.699661,38.948952 
	C123.148872,39.189514 123.357956,39.458172 123.791077,40.109070 
	C123.989349,40.677166 123.963593,40.863022 123.707672,41.033688 
	C123.477501,41.018501 123.016411,41.003021 123.016411,41.003021 
	C123.016411,41.003021 122.538643,41.013008 122.300751,41.027985 
	C121.842354,41.022755 121.621849,41.002552 121.068359,40.946159 
	C120.840019,40.467182 120.944664,40.024391 121.115051,39.245335 
z"/>
<path fill="#0E3C66" opacity="1.000000" stroke="none" 
	d="
M134.960297,39.985054 
	C136.301285,39.130527 137.563553,38.063335 139.021149,37.523849 
	C139.622849,37.301147 140.643829,38.211201 141.766052,38.838234 
	C142.057999,39.070412 142.157852,39.193710 142.012314,39.444756 
	C141.770279,41.240456 141.673767,42.785114 141.573425,44.625252 
	C141.398865,45.019043 141.228149,45.117355 141.016479,44.890915 
	C140.852966,44.642647 140.616318,44.748852 140.627167,44.790558 
	C140.679398,44.990986 140.798492,45.173988 140.721832,45.540268 
	C140.219116,45.799244 139.896561,45.774769 139.381607,45.968475 
	C139.118179,46.539463 139.055283,46.785900 138.992401,47.032333 
	C138.992401,47.032333 139.024902,47.086941 138.734650,47.188728 
	C137.961929,47.834175 137.479477,48.377831 136.995148,48.947964 
	C136.993286,48.974442 136.940796,48.982281 136.672272,48.996716 
	C136.224884,49.026463 136.046021,49.041775 135.542389,49.069611 
	C134.494888,49.795006 133.772141,50.507881 133.164215,51.359085 
	C133.450516,51.689785 133.665283,51.784515 134.201385,51.849495 
	C134.667313,51.951313 134.855118,51.985256 134.977570,52.236092 
	C134.797806,52.751884 134.591766,52.960011 133.936859,53.169800 
	C132.389664,53.505692 131.199722,53.749153 130.009766,53.992615 
	C130.009766,53.992619 129.540070,54.011124 129.305542,54.020657 
	C129.070999,54.030190 129.073181,53.541973 129.063660,53.282471 
	C129.054153,53.022968 129.035446,53.059368 129.332886,52.908005 
	C130.676651,51.395878 132.053192,49.936970 128.623505,49.733879 
	C128.476761,49.604858 128.088211,49.562958 128.077789,49.542053 
	C128.067352,49.521152 128.026749,49.495316 128.105377,49.255001 
	C128.139297,48.852230 128.094620,48.689770 128.354843,48.402691 
	C129.056183,47.609322 129.452606,46.940575 129.978027,45.961445 
	C130.426788,45.058304 130.746552,44.465549 131.402252,43.945862 
	C136.221466,44.825115 133.083954,41.238197 134.274445,39.993366 
	C134.502457,39.971947 134.960297,39.985054 134.960297,39.985054 
z"/>
<path fill="#2C6798" opacity="1.000000" stroke="none" 
	d="
M128.088211,49.562958 
	C128.088211,49.562958 128.476761,49.604858 128.705933,50.128792 
	C128.968567,51.454941 129.001999,52.257156 129.035446,53.059368 
	C129.035446,53.059368 129.054153,53.022968 129.072449,53.038517 
	C128.631241,53.038509 128.171722,53.022953 127.368393,53.010796 
	C127.024582,53.014198 126.938446,52.663044 127.239822,52.322536 
	C127.692406,51.305763 127.843605,50.629501 127.991592,49.849312 
	C127.988380,49.745384 128.088211,49.562958 128.088211,49.562958 
z"/>
<path fill="#2C6798" opacity="1.000000" stroke="none" 
	d="
M126.166565,53.865341 
	C126.085449,53.642109 126.302292,53.407391 126.790520,53.121078 
	C126.811012,53.283115 126.611885,53.544575 126.166565,53.865341 
z"/>
<path fill="#053462" opacity="1.000000" stroke="none" 
	d="
M130.137970,54.277405 
	C131.199722,53.749153 132.389664,53.505692 133.853455,53.465698 
	C134.052383,54.070415 133.977478,54.471661 133.902557,54.872910 
	C133.494476,55.180344 133.086395,55.487778 132.457367,55.920658 
	C131.579697,55.551468 130.922928,55.056831 130.137970,54.277405 
z"/>
<path fill="#4081AE" opacity="1.000000" stroke="none" 
	d="
M135.018829,39.638107 
	C134.960297,39.985054 134.502457,39.971947 134.007538,39.983253 
	C133.334671,39.991131 133.156754,39.987701 132.888031,39.743908 
	C132.502411,39.345573 132.207581,39.187607 131.912766,39.029640 
	C131.912766,39.029640 131.984787,39.017673 131.894653,38.799122 
	C131.532913,38.351810 131.261307,38.123051 130.989716,37.894295 
	C130.997421,37.723015 131.005142,37.551731 131.351257,37.166458 
	C132.127457,36.967121 132.565247,36.981773 133.039749,37.175346 
	C133.192444,37.409531 133.308441,37.464798 133.424438,37.520061 
	C133.281967,37.347515 133.139481,37.174969 133.000504,36.747177 
	C132.999786,36.321796 132.995590,36.151669 133.351898,35.945812 
	C134.827698,35.554558 135.943024,35.199028 137.058334,34.843498 
	C136.398010,36.326050 135.737671,37.808605 135.018829,39.638107 
z"/>
<path fill="#093B6B" opacity="1.000000" stroke="none" 
	d="
M137.029633,34.564148 
	C135.943024,35.199028 134.827698,35.554558 133.354553,35.959358 
	C132.996719,36.008625 133.024384,36.013882 132.981476,35.740116 
	C132.622177,35.302383 132.305786,35.138416 131.991211,34.988403 
	C131.993011,35.002357 132.020554,35.004230 132.020554,35.004230 
	C132.045731,34.835102 132.070908,34.665974 132.049026,34.244892 
	C132.001984,33.992935 131.998550,34.021385 132.325134,34.010216 
	C133.111008,33.324921 133.570267,32.650791 134.029541,31.976662 
	C134.029541,31.976662 133.999298,31.998251 134.259491,32.105747 
	C134.685043,32.316536 134.850418,32.419834 135.015778,32.523136 
	C135.677490,33.110359 136.339218,33.697582 137.029633,34.564148 
z"/>
<path fill="#4686B2" opacity="1.000000" stroke="none" 
	d="
M135.979538,28.161259 
	C137.042221,28.444944 138.104919,28.728632 139.505035,28.960598 
	C140.076859,29.103081 140.289551,29.318707 140.667450,29.684753 
	C140.165283,30.456621 139.476196,31.099491 138.410950,31.383612 
	C137.388062,30.713917 136.741348,30.402969 136.094818,29.769123 
	C136.056519,29.017900 136.018036,28.589581 135.979538,28.161259 
z"/>
<path fill="#5F9DC5" opacity="1.000000" stroke="none" 
	d="
M135.734924,28.354244 
	C136.018036,28.589581 136.056519,29.017900 136.107742,30.167824 
	C136.383163,31.348007 136.645874,31.806589 136.908569,32.265171 
	C136.602509,32.377174 136.296448,32.489182 135.503082,32.562160 
	C134.850418,32.419834 134.685043,32.316536 134.243912,32.115883 
	C134.475525,30.861427 134.982925,29.704330 135.734924,28.354244 
z"/>
<path fill="#2A5E88" opacity="1.000000" stroke="none" 
	d="
M137.126892,32.163078 
	C136.645874,31.806589 136.383163,31.348007 136.107544,30.490723 
	C136.741348,30.402969 137.388062,30.713917 138.116928,31.294518 
	C137.934174,31.763723 137.649551,31.929329 137.126892,32.163078 
z"/>
<path fill="#4D7696" opacity="1.000000" stroke="none" 
	d="
M144.064270,37.390549 
	C144.648697,37.294754 145.185883,37.393295 145.849625,37.748619 
	C145.976166,38.005402 146.015564,37.999290 145.737122,38.074196 
	C144.967987,38.438122 144.477280,38.727142 143.952728,38.752045 
	C143.903107,38.311115 143.887329,38.134296 143.871552,37.957481 
	C143.871552,37.957481 144.017029,37.584885 144.064270,37.390549 
z"/>
<path fill="#0E3C66" opacity="1.000000" stroke="none" 
	d="
M143.590515,37.994583 
	C143.887329,38.134296 143.903107,38.311115 143.957169,38.739159 
	C143.995468,38.990391 144.023453,38.991955 143.709167,38.996639 
	C142.982544,39.065453 142.570190,39.129585 142.157852,39.193710 
	C142.157852,39.193710 142.057999,39.070412 142.008301,39.007744 
	C142.408890,38.640614 142.859192,38.336151 143.590515,37.994583 
z"/>
<path fill="#437BAA" opacity="1.000000" stroke="none" 
	d="
M133.943832,55.156845 
	C133.977478,54.471661 134.052383,54.070415 134.210693,53.373268 
	C134.591766,52.960011 134.797806,52.751884 135.241302,52.129684 
	C135.737732,51.717052 135.905060,51.627716 136.072403,51.538376 
	C136.072403,51.538376 136.284210,51.927498 136.363663,52.332199 
	C136.519531,53.225979 136.595947,53.715057 136.672363,54.204136 
	C136.546738,54.490898 136.421127,54.777664 136.123047,55.500992 
	C135.950592,55.937553 135.833466,55.957481 135.780334,55.949631 
	C135.438644,55.924736 135.150070,55.907696 134.432343,55.952499 
	C133.997147,55.823154 133.991119,55.631969 133.943832,55.156845 
z"/>
<path fill="#90C2E0" opacity="1.000000" stroke="none" 
	d="
M136.735565,54.370537 
	C136.595947,53.715057 136.519531,53.225979 136.294861,52.542763 
	C136.999405,52.370262 137.852203,52.391899 138.839203,52.904266 
	C138.893372,53.686695 138.854446,53.983780 138.856644,54.286247 
	C138.441193,54.475807 138.025757,54.665367 137.266327,54.862854 
	C136.922363,54.870781 136.798752,54.536942 136.735565,54.370537 
z"/>
<path fill="#3E78A3" opacity="1.000000" stroke="none" 
	d="
M138.911728,54.745384 
	C138.854446,53.983780 138.893372,53.686695 139.037292,53.177628 
	C139.741135,53.764839 140.381119,54.569420 140.900925,55.651516 
	C140.366974,56.261417 139.953217,56.593803 139.278732,56.986694 
	C139.000931,56.432972 138.983871,55.818745 138.911728,54.745384 
z"/>
<path fill="#053462" opacity="1.000000" stroke="none" 
	d="
M143.991028,39.003273 
	C144.477280,38.727142 144.967987,38.438122 145.735886,38.054230 
	C145.677216,39.031754 145.341354,40.104153 144.970276,41.508663 
	C144.499939,42.236088 144.064835,42.631405 143.249908,43.123390 
	C142.870117,43.220058 142.506470,43.152195 142.677094,42.805626 
	C143.239624,41.303356 143.631531,40.147655 144.023453,38.991951 
	C144.023453,38.991955 143.995468,38.990391 143.991028,39.003273 
z"/>
<path fill="#4D86AC" opacity="1.000000" stroke="none" 
	d="
M147.072632,46.642761 
	C147.052826,47.022156 147.039078,47.207146 147.016937,47.670082 
	C146.176926,47.572323 145.345291,47.196613 144.511902,46.419468 
	C144.691528,45.971874 144.872925,45.925716 145.323639,45.808052 
	C145.846710,45.799652 146.100464,45.862755 146.740707,45.994129 
	C147.127213,46.062397 147.078659,46.448357 147.072632,46.642761 
z"/>
<path fill="#A8D8FA" opacity="1.000000" stroke="none" 
	d="
M139.582138,45.643929 
	C139.896561,45.774769 140.219116,45.799244 140.737305,45.506092 
	C140.924789,45.294830 141.057419,45.215668 141.057419,45.215668 
	C141.228149,45.117355 141.398865,45.019043 141.572235,44.596725 
	C141.574875,44.272720 141.618469,44.318356 141.895325,44.570793 
	C142.415619,44.767300 142.659058,44.711361 142.902481,44.655426 
	C143.085281,44.826210 143.299530,44.935150 143.708466,45.062550 
	C143.896927,45.308159 143.922134,45.473465 144.086609,45.847740 
	C143.951904,46.339554 143.677933,46.622402 143.203064,47.126335 
	C142.128906,46.709579 141.255646,46.071739 139.978317,45.577866 
	C139.574265,45.721828 139.582138,45.643929 139.582138,45.643929 
z"/>
<path fill="#2A5E88" opacity="1.000000" stroke="none" 
	d="
M142.969391,44.345901 
	C142.659058,44.711361 142.415619,44.767300 142.012924,44.348434 
	C142.002518,43.570869 142.220123,43.330391 142.506470,43.152195 
	C142.506470,43.152195 142.870117,43.220058 143.029388,43.320843 
	C143.137863,43.626541 143.087082,43.831459 142.969391,44.345901 
z"/>
<path fill="#4891BA" opacity="1.000000" stroke="none" 
	d="
M132.978836,39.984276 
	C133.156754,39.987701 133.334671,39.991131 133.779526,40.004677 
	C133.083954,41.238197 136.221466,44.825115 131.368713,43.690201 
	C131.000336,43.189137 131.001465,43.016800 131.002594,42.844460 
	C131.095947,42.127365 131.189301,41.410271 131.820160,40.417892 
	C132.564728,40.089832 132.771790,40.037052 132.978836,39.984276 
z"/>
<path fill="#15466B" opacity="1.000000" stroke="none" 
	d="
M130.674011,42.903217 
	C131.001465,43.016800 131.000336,43.189137 131.032761,43.617130 
	C130.746552,44.465549 130.426788,45.058304 129.677338,45.880997 
	C128.835999,46.061390 128.424332,46.011848 127.841461,45.729198 
	C127.138817,45.304413 126.607376,45.112736 126.072250,44.689484 
	C126.068558,44.457909 126.008583,43.998596 126.008583,43.998596 
	C126.008583,43.998596 126.009308,43.510159 126.007996,43.266129 
	C126.763374,43.010895 127.520050,42.999695 128.653839,42.945854 
	C129.469116,42.922798 129.907272,42.942387 130.674011,42.903217 
z"/>
<path fill="#1B5A8A" opacity="1.000000" stroke="none" 
	d="
M130.925308,38.258148 
	C131.261307,38.123051 131.532913,38.351810 131.890381,38.835373 
	C131.784988,39.245735 131.593735,39.401291 131.047791,39.449276 
	C130.749023,39.101807 130.804962,38.861900 130.925308,38.258148 
z"/>
<path fill="#1B5A8A" opacity="1.000000" stroke="none" 
	d="
M132.888031,39.743908 
	C132.771790,40.037052 132.564728,40.089832 132.067780,40.281879 
	C131.678543,40.177467 131.579178,39.933792 131.696289,39.359879 
	C132.207581,39.187607 132.502411,39.345573 132.888031,39.743908 
z"/>
<path fill="#094B78" opacity="1.000000" stroke="none" 
	d="
M132.994064,35.995079 
	C132.995590,36.151669 132.999786,36.321796 133.001999,36.745960 
	C133.000000,36.999992 133.003052,36.996422 133.003052,36.996422 
	C132.565247,36.981773 132.127457,36.967121 131.363419,36.909557 
	C130.740280,36.413673 130.443375,35.960709 130.066422,35.244736 
	C130.438309,34.994568 130.890228,35.007401 131.681366,35.012234 
	C132.020554,35.004230 131.993011,35.002357 132.070557,35.238838 
	C132.440201,35.654839 132.732300,35.834358 133.024384,36.013878 
	C133.024384,36.013882 132.996719,36.008625 132.994064,35.995079 
z"/>
<path fill="#5F9DC5" opacity="1.000000" stroke="none" 
	d="
M133.681274,31.922337 
	C133.570267,32.650791 133.111008,33.324921 132.310181,34.010895 
	C131.963715,33.535561 131.958801,33.048386 131.950470,32.194721 
	C132.409027,31.841490 132.871017,31.854750 133.681274,31.922337 
z"/>
<path fill="#154D76" opacity="1.000000" stroke="none" 
	d="
M128.026749,49.495316 
	C128.026749,49.495316 128.067352,49.521152 128.077789,49.542053 
	C128.088211,49.562958 127.988380,49.745384 127.631317,49.826736 
	C127.034615,49.930241 126.794975,49.952389 126.555344,49.974537 
	C126.350464,49.812832 126.200401,49.610481 126.100388,49.126793 
	C126.095619,48.886101 126.191750,48.771614 126.503433,48.875900 
	C127.219002,49.151894 127.622871,49.323605 128.026749,49.495316 
z"/>
<path fill="#5F9DC5" opacity="1.000000" stroke="none" 
	d="
M126.463593,50.379295 
	C126.794975,49.952389 127.034615,49.930241 127.634529,49.930664 
	C127.843605,50.629501 127.692406,51.305763 127.217621,52.143124 
	C126.719971,51.797497 126.545914,51.290775 126.463593,50.379295 
z"/>
<path fill="#154D76" opacity="1.000000" stroke="none" 
	d="
M125.250671,48.998451 
	C125.001564,48.822239 125.001869,48.647442 125.249054,48.286152 
	C125.794785,48.254356 126.026726,48.478340 126.191750,48.771614 
	C126.191750,48.771614 126.095619,48.886101 126.047279,48.943619 
	C125.998940,49.001141 125.500092,48.999863 125.250671,48.998451 
z"/>
<path fill="#4081AE" opacity="1.000000" stroke="none" 
	d="
M126.503433,48.875900 
	C126.026726,48.478340 125.794785,48.254356 125.263214,48.024338 
	C125.030495,47.949009 125.013573,47.471977 125.010994,47.231720 
	C125.008415,46.991463 125.018600,46.981525 125.230286,46.989799 
	C125.441971,46.998077 125.867378,47.015057 126.159691,47.034180 
	C126.645912,47.076553 126.839813,47.099804 127.150055,47.315895 
	C127.466393,47.749416 127.719284,47.902973 128.052994,48.107918 
	C128.080902,48.246426 128.049942,48.527313 128.049942,48.527313 
	C128.094620,48.689770 128.139297,48.852230 128.105377,49.254997 
	C127.622871,49.323605 127.219002,49.151894 126.503433,48.875900 
z"/>
<path fill="#4081AE" opacity="1.000000" stroke="none" 
	d="
M125.007446,46.993080 
	C124.391220,46.520355 123.775955,46.046013 123.081711,45.284176 
	C123.002747,44.996681 123.002510,44.997543 123.302162,44.997597 
	C123.798615,45.009819 123.995422,45.021988 124.396530,45.019402 
	C124.600838,45.004650 125.010429,45.013195 125.008255,45.340630 
	C125.010246,46.105888 125.014427,46.543705 125.018600,46.981525 
	C125.018600,46.981525 125.008415,46.991463 125.007446,46.993080 
z"/>
<path fill="#093B6B" opacity="1.000000" stroke="none" 
	d="
M136.056915,51.540459 
	C135.905060,51.627716 135.737732,51.717052 135.306671,51.912788 
	C134.855118,51.985256 134.667313,51.951313 134.210434,51.804279 
	C133.941360,51.691185 133.937531,51.592434 134.180679,51.364609 
	C134.956909,50.754581 135.490005,50.372383 136.028549,50.374100 
	C136.028320,51.013924 136.022614,51.269829 136.016907,51.525734 
	C136.016907,51.525734 136.041443,51.542545 136.056915,51.540459 
z"/>
<path fill="#3E719F" opacity="1.000000" stroke="none" 
	d="
M136.408920,51.403625 
	C136.022614,51.269829 136.028320,51.013924 136.013535,50.378841 
	C135.993057,49.999664 136.001389,50.029865 136.233032,49.935322 
	C136.623398,49.554615 136.782089,49.268448 136.940796,48.982281 
	C136.940796,48.982281 136.993286,48.974442 137.425049,48.902382 
	C138.141479,48.784348 138.426117,48.738373 138.710754,48.692398 
	C138.074142,49.555435 137.437531,50.418476 136.408920,51.403625 
z"/>
<path fill="#093B6B" opacity="1.000000" stroke="none" 
	d="
M138.821045,48.527473 
	C138.426117,48.738373 138.141479,48.784348 137.426926,48.875904 
	C137.479477,48.377831 137.961929,47.834175 138.710617,47.209518 
	C138.961670,47.539864 138.946503,47.951206 138.821045,48.527473 
z"/>
<path fill="#3E78A3" opacity="1.000000" stroke="none" 
	d="
M139.381607,45.968475 
	C139.582138,45.643929 139.574265,45.721828 139.563202,45.686863 
	C139.555969,46.034271 139.559784,46.416641 139.278000,46.915672 
	C139.055283,46.785900 139.118179,46.539463 139.381607,45.968475 
z"/>
<path fill="#094B78" opacity="1.000000" stroke="none" 
	d="
M124.192223,45.034157 
	C123.995422,45.021988 123.798615,45.009819 123.306305,44.993454 
	C123.011795,43.926250 123.012787,42.863243 123.015099,41.401630 
	C123.016411,41.003021 123.477501,41.018501 123.723724,41.431297 
	C124.044037,42.907448 124.118134,43.970802 124.192223,45.034157 
z"/>
<path fill="#4686B2" opacity="1.000000" stroke="none" 
	d="
M124.396530,45.019402 
	C124.118134,43.970802 124.044037,42.907448 123.953888,41.446484 
	C123.963593,40.863022 123.989349,40.677166 124.028198,40.209206 
	C124.041290,39.927109 124.025955,39.502068 124.010033,39.290909 
	C124.471680,40.584614 124.949242,42.089474 125.717697,43.796463 
	C126.008583,43.998596 126.068558,44.457909 126.050140,44.712570 
	C126.031715,44.967228 125.988869,45.011189 125.744247,45.007019 
	C125.499626,45.002846 125.010429,45.013195 125.010429,45.013195 
	C125.010429,45.013195 124.600838,45.004650 124.396530,45.019402 
z"/>
<path fill="#3E719F" opacity="1.000000" stroke="none" 
	d="
M142.677094,42.805626 
	C142.220123,43.330391 142.002518,43.570869 141.736069,44.095997 
	C141.618469,44.318356 141.574875,44.272720 141.576065,44.301247 
	C141.673767,42.785114 141.770279,41.240456 142.012314,39.444756 
	C142.570190,39.129585 142.982544,39.065453 143.709167,38.996635 
	C143.631531,40.147655 143.239624,41.303356 142.677094,42.805626 
z"/>
<path fill="#3B7AAC" opacity="1.000000" stroke="none" 
	d="
M129.332886,52.908005 
	C129.001999,52.257156 128.968567,51.454941 128.852692,50.257816 
	C132.053192,49.936970 130.676651,51.395878 129.332886,52.908005 
z"/>
<path fill="#6CA7CA" opacity="1.000000" stroke="none" 
	d="
M128.012665,45.962303 
	C128.424332,46.011848 128.835999,46.061390 129.548340,46.191383 
	C129.452606,46.940575 129.056183,47.609322 128.354843,48.402691 
	C128.049942,48.527313 128.080902,48.246426 128.045593,47.773643 
	C128.011093,46.854679 128.011887,46.408489 128.012665,45.962303 
z"/>
<path fill="#2C6798" opacity="1.000000" stroke="none" 
	d="
M136.008072,49.994926 
	C135.490005,50.372383 134.956909,50.754581 133.964539,51.254200 
	C133.505264,51.371620 133.049408,51.220757 133.049408,51.220757 
	C133.772141,50.507881 134.494888,49.795006 135.580429,49.312035 
	C135.943222,49.541939 136.001389,50.029865 136.001389,50.029865 
	C136.001389,50.029865 135.993057,49.999664 136.008072,49.994926 
z"/>
<path fill="#093B6B" opacity="1.000000" stroke="none" 
	d="
M136.233032,49.935322 
	C136.001389,50.029865 135.943222,49.541939 135.905182,49.299511 
	C136.046021,49.041775 136.224884,49.026463 136.672272,48.996716 
	C136.782089,49.268448 136.623398,49.554615 136.233032,49.935322 
z"/>
<path fill="#053462" opacity="1.000000" stroke="none" 
	d="
M133.164215,51.359085 
	C133.049408,51.220757 133.505264,51.371620 133.721405,51.482025 
	C133.937531,51.592434 133.941360,51.691185 133.932312,51.736397 
	C133.665283,51.784515 133.450516,51.689785 133.164215,51.359085 
z"/>
<path fill="#3E78A3" opacity="1.000000" stroke="none" 
	d="
M141.016479,44.890915 
	C141.057419,45.215668 140.924789,45.294830 140.909302,45.329006 
	C140.798492,45.173988 140.679398,44.990986 140.627167,44.790558 
	C140.616318,44.748852 140.852966,44.642647 141.016479,44.890915 
z"/>
<path fill="#094B78" opacity="1.000000" stroke="none" 
	d="
M132.998505,37.001205 
	C133.139481,37.174969 133.281967,37.347515 133.424438,37.520061 
	C133.308441,37.464798 133.192444,37.409531 133.039749,37.175346 
	C133.003052,36.996422 133.000000,36.999992 132.998505,37.001205 
z"/>
<path fill="#4081AE" opacity="1.000000" stroke="none" 
	d="
M132.981476,35.740112 
	C132.732300,35.834358 132.440201,35.654839 132.068756,35.224884 
	C132.305786,35.138416 132.622177,35.302383 132.981476,35.740112 
z"/>
<path fill="#4686B2" opacity="1.000000" stroke="none" 
	d="
M127.841461,45.729198 
	C128.011887,46.408489 128.011093,46.854679 128.017700,47.635136 
	C127.719284,47.902973 127.466393,47.749416 127.050316,47.038006 
	C126.545631,46.305882 126.257042,46.044487 125.982437,45.590351 
	C125.996429,45.397610 125.988869,45.011189 125.988869,45.011189 
	C125.988869,45.011189 126.031715,44.967228 126.053833,44.944145 
	C126.607376,45.112736 127.138817,45.304413 127.841461,45.729198 
z"/>
<path fill="#4D86AC" opacity="1.000000" stroke="none" 
	d="
M125.744247,45.007019 
	C125.988869,45.011189 125.996429,45.397610 125.942680,45.898155 
	C125.881744,46.604156 125.874557,46.809608 125.867378,47.015057 
	C125.867378,47.015057 125.441971,46.998077 125.230286,46.989799 
	C125.014427,46.543705 125.010246,46.105888 125.008255,45.340630 
	C125.010429,45.013195 125.499626,45.002846 125.744247,45.007019 
z"/>
<path fill="#1B5A8A" opacity="1.000000" stroke="none" 
	d="
M126.159691,47.034180 
	C125.874557,46.809608 125.881744,46.604156 125.928696,46.090897 
	C126.257042,46.044487 126.545631,46.305882 126.933960,46.845161 
	C126.839813,47.099804 126.645912,47.076553 126.159691,47.034180 
z"/>
</svg>